{"glyphs":{"0":{"ha":833,"x_min":74,"x_max":760,"o":"m 417 -12 q 161 117 249 -12 q 74 490 74 246 q 161 864 74 736 q 417 992 249 992 q 673 865 586 992 q 760 492 760 738 q 672 117 760 246 q 417 -12 583 -12 m 417 86 q 590 185 533 86 q 646 492 646 285 q 590 797 646 700 q 417 893 535 893 q 244 796 300 893 q 188 492 188 699 q 244 185 188 285 q 417 86 300 86 z "},"1":{"ha":833,"x_min":163,"x_max":729,"o":"m 215 0 q 163 50 163 0 q 215 97 163 97 l 396 97 l 396 846 l 254 751 q 213 744 232 738 q 185 767 194 750 q 178 803 175 783 q 204 838 182 822 l 396 964 q 431 982 414 975 q 464 989 447 989 q 497 977 483 989 q 510 940 510 965 l 510 97 l 676 97 q 729 50 729 97 q 676 0 729 0 l 215 0 z "},"2":{"ha":833,"x_min":93,"x_max":758,"o":"m 179 0 q 133 15 147 0 q 119 54 119 29 q 149 114 119 83 l 460 447 q 562 588 531 524 q 593 719 593 653 q 394 890 593 890 q 169 811 271 890 q 129 799 147 794 q 102 821 111 804 q 95 858 93 838 q 118 893 97 878 q 249 965 172 938 q 404 992 325 992 q 630 923 551 992 q 708 728 708 854 q 666 556 708 640 q 533 378 624 472 l 269 97 l 706 97 q 758 50 758 97 q 706 0 758 0 l 179 0 z "},"3":{"ha":833,"x_min":74,"x_max":735,"o":"m 406 -12 q 243 11 324 -12 q 103 81 163 35 q 77 117 81 97 q 83 154 74 138 q 111 176 92 171 q 154 165 131 181 q 276 107 215 125 q 403 89 338 89 q 565 135 508 89 q 621 272 621 182 q 564 403 621 358 q 399 447 507 447 l 300 447 q 246 497 246 447 q 300 546 246 546 l 389 546 q 538 595 483 546 q 593 731 593 644 q 542 849 593 807 q 399 890 492 890 q 280 872 335 890 q 171 811 225 854 q 131 800 150 796 q 102 820 113 804 q 95 857 92 836 q 121 894 99 878 q 250 966 175 940 q 406 992 325 992 q 627 925 547 992 q 707 740 707 858 q 665 597 707 658 q 550 507 624 535 q 686 420 638 483 q 735 264 735 357 q 647 63 735 138 q 406 -12 558 -12 z "},"4":{"ha":833,"x_min":65,"x_max":794,"o":"m 581 -10 q 524 49 524 -10 l 524 210 l 125 210 q 81 223 97 210 q 65 261 65 236 q 97 333 65 286 l 521 950 q 585 989 546 989 q 623 974 607 989 q 639 931 639 960 l 639 307 l 740 307 q 794 258 794 307 q 740 210 794 210 l 639 210 l 639 49 q 581 -10 639 -10 m 524 307 l 524 796 l 189 307 l 524 307 z "},"5":{"ha":833,"x_min":110,"x_max":768,"o":"m 438 -12 q 278 11 357 -12 q 138 85 200 35 q 113 119 117 99 q 119 156 110 139 q 148 178 129 172 q 190 168 167 183 q 436 89 300 89 q 596 146 538 89 q 654 296 654 203 q 599 453 654 392 q 446 514 543 514 q 335 492 386 514 q 244 421 285 469 q 222 402 235 410 q 192 394 208 394 q 142 443 142 394 l 142 926 q 194 979 142 979 l 667 979 q 719 931 719 979 q 667 882 719 882 l 254 882 l 254 532 q 467 613 335 613 q 626 574 558 613 q 731 465 694 535 q 768 301 768 394 q 728 139 768 210 q 613 28 688 68 q 438 -12 539 -12 z "},"6":{"ha":833,"x_min":89,"x_max":761,"o":"m 450 -12 q 183 113 276 -12 q 89 465 89 239 q 193 856 89 719 q 485 992 297 992 q 616 967 549 992 q 735 896 683 942 q 755 861 753 881 q 747 825 757 842 q 720 803 738 808 q 681 815 703 799 q 583 873 633 856 q 482 890 533 890 q 273 789 346 890 q 200 488 200 688 l 200 419 q 298 563 226 511 q 467 614 369 614 q 619 574 553 614 q 724 465 686 535 q 761 306 761 396 q 722 141 761 213 q 612 28 682 69 q 450 -12 542 -12 m 443 85 q 594 144 536 85 q 651 301 651 204 q 594 458 651 397 q 443 518 536 518 q 292 458 350 518 q 235 301 235 397 q 292 144 235 204 q 443 85 350 85 z "},"7":{"ha":833,"x_min":83,"x_max":743,"o":"m 233 -10 q 188 12 203 -10 q 190 65 174 33 l 611 881 l 136 881 q 83 931 83 881 q 136 979 83 979 l 688 979 q 728 966 713 979 q 743 931 743 953 q 738 895 743 910 q 725 864 733 881 l 297 29 q 233 -10 278 -10 z "},"8":{"ha":833,"x_min":68,"x_max":765,"o":"m 417 -12 q 160 59 251 -12 q 68 260 68 131 q 117 414 68 350 q 249 501 167 478 q 133 590 175 529 q 92 731 92 651 q 180 923 92 854 q 417 992 268 992 q 654 923 565 992 q 743 731 743 854 q 701 590 743 651 q 586 501 658 528 q 717 414 668 478 q 765 260 765 350 q 674 59 765 131 q 417 -12 582 -12 m 417 543 q 576 591 518 543 q 633 721 633 639 q 576 851 633 804 q 417 897 518 897 q 258 851 315 897 q 201 721 201 804 q 258 591 201 639 q 417 543 315 543 m 417 82 q 656 267 656 82 q 417 449 656 449 q 178 267 178 449 q 417 82 178 82 z "},"9":{"ha":833,"x_min":72,"x_max":744,"o":"m 349 -12 q 217 13 285 -12 q 99 85 150 38 q 78 119 81 99 q 86 155 76 139 q 113 176 96 171 q 153 165 131 181 q 250 107 200 125 q 351 89 300 89 q 560 190 488 89 q 633 492 633 292 l 633 560 q 535 417 607 468 q 367 365 464 365 q 214 405 281 365 q 110 514 147 444 q 72 674 72 583 q 112 838 72 767 q 222 951 151 910 q 383 992 292 992 q 651 866 557 992 q 744 514 744 740 q 640 124 744 260 q 349 -12 536 -12 m 390 461 q 542 522 483 461 q 600 679 600 582 q 542 835 600 775 q 390 896 483 896 q 240 835 299 896 q 182 679 182 775 q 240 522 182 582 q 390 461 299 461 z "},"A":{"ha":1013,"x_min":42,"x_max":972,"o":"m 100 -10 q 54 13 67 -10 q 57 68 42 35 l 439 938 q 507 989 461 989 q 545 977 528 989 q 574 938 563 965 l 957 68 q 961 13 972 35 q 917 -10 950 -10 q 876 3 892 -10 q 851 42 861 17 l 761 250 l 251 250 l 163 42 q 100 -10 140 -10 m 506 846 l 293 346 l 721 346 l 508 846 l 506 846 z "},"Á":{"ha":1013,"x_min":42,"x_max":972,"o":"m 100 -10 q 54 13 67 -10 q 57 68 42 35 l 439 938 q 507 989 461 989 q 545 977 528 989 q 574 938 563 965 l 957 68 q 961 13 972 35 q 917 -10 950 -10 q 876 3 892 -10 q 851 42 861 17 l 761 250 l 251 250 l 163 42 q 100 -10 140 -10 m 506 846 l 293 346 l 721 346 l 508 846 l 506 846 m 557 1068 q 523 1055 542 1051 q 494 1074 504 1058 q 497 1110 485 1090 l 621 1289 q 656 1313 636 1311 q 692 1304 676 1315 q 713 1275 708 1293 q 701 1239 718 1257 l 557 1068 z "},"Ă":{"ha":1013,"x_min":42,"x_max":972,"o":"m 100 -10 q 54 13 67 -10 q 57 68 42 35 l 439 938 q 507 989 461 989 q 545 977 528 989 q 574 938 563 965 l 957 68 q 961 13 972 35 q 917 -10 950 -10 q 876 3 892 -10 q 851 42 861 17 l 761 250 l 251 250 l 163 42 q 100 -10 140 -10 m 506 846 l 293 346 l 721 346 l 508 846 l 506 846 m 508 1056 q 363 1104 426 1056 q 278 1256 299 1153 q 283 1288 274 1275 q 308 1300 293 1300 q 335 1292 325 1301 q 349 1269 346 1283 q 410 1162 364 1193 q 508 1131 456 1131 q 607 1162 561 1131 q 668 1269 653 1193 q 681 1292 671 1283 q 708 1300 692 1301 q 733 1288 724 1300 q 739 1256 743 1275 q 654 1104 718 1153 q 508 1056 590 1056 z "},"Ắ":{"ha":1013,"x_min":42,"x_max":972,"o":"m 100 -10 q 54 13 67 -10 q 57 68 42 35 l 439 938 q 507 989 461 989 q 545 977 528 989 q 574 938 563 965 l 957 68 q 961 13 972 35 q 917 -10 950 -10 q 876 3 892 -10 q 851 42 861 17 l 761 250 l 251 250 l 163 42 q 100 -10 140 -10 m 506 846 l 293 346 l 721 346 l 508 846 l 506 846 m 538 1213 q 506 1199 524 1196 q 479 1215 489 1201 q 482 1250 469 1229 l 576 1403 q 608 1429 589 1426 q 644 1422 628 1432 q 665 1394 661 1411 q 654 1357 669 1376 l 538 1213 m 508 1056 q 367 1103 424 1056 q 296 1231 311 1150 q 299 1263 292 1251 q 322 1276 307 1275 q 360 1244 351 1279 q 410 1159 372 1190 q 508 1128 447 1128 q 607 1159 569 1128 q 657 1244 644 1190 q 696 1276 665 1279 q 721 1229 729 1272 q 649 1102 706 1149 q 508 1056 593 1056 z "},"Ặ":{"ha":1013,"x_min":42,"x_max":972,"o":"m 100 -10 q 54 13 67 -10 q 57 68 42 35 l 439 938 q 507 989 461 989 q 545 977 528 989 q 574 938 563 965 l 957 68 q 961 13 972 35 q 917 -10 950 -10 q 876 3 892 -10 q 851 42 861 17 l 761 250 l 251 250 l 163 42 q 100 -10 140 -10 m 506 846 l 293 346 l 721 346 l 508 846 l 506 846 m 508 -265 q 440 -199 440 -265 q 508 -133 440 -133 q 578 -199 578 -133 q 508 -265 578 -265 m 508 1056 q 363 1104 426 1056 q 278 1256 299 1153 q 283 1288 274 1275 q 308 1300 293 1300 q 335 1292 325 1301 q 349 1269 346 1283 q 410 1162 364 1193 q 508 1131 456 1131 q 607 1162 561 1131 q 668 1269 653 1193 q 681 1292 671 1283 q 708 1300 692 1301 q 733 1288 724 1300 q 739 1256 743 1275 q 654 1104 718 1153 q 508 1056 590 1056 z "},"Ằ":{"ha":1013,"x_min":42,"x_max":972,"o":"m 100 -10 q 54 13 67 -10 q 57 68 42 35 l 439 938 q 507 989 461 989 q 545 977 528 989 q 574 938 563 965 l 957 68 q 961 13 972 35 q 917 -10 950 -10 q 876 3 892 -10 q 851 42 861 17 l 761 250 l 251 250 l 163 42 q 100 -10 140 -10 m 506 846 l 293 346 l 721 346 l 508 846 l 506 846 m 479 1213 l 363 1357 q 351 1394 347 1376 q 372 1422 356 1411 q 408 1429 389 1432 q 440 1403 428 1426 l 535 1250 q 538 1215 547 1229 q 510 1199 528 1201 q 479 1213 493 1196 m 508 1056 q 367 1102 424 1056 q 296 1229 311 1149 q 321 1276 288 1272 q 360 1244 351 1279 q 410 1159 372 1190 q 508 1128 447 1128 q 607 1159 569 1128 q 657 1244 644 1190 q 694 1276 665 1279 q 717 1263 710 1275 q 721 1231 725 1251 q 649 1103 706 1150 q 508 1056 593 1056 z "},"Ẳ":{"ha":1013,"x_min":42,"x_max":972,"o":"m 100 -10 q 54 13 67 -10 q 57 68 42 35 l 439 938 q 507 989 461 989 q 545 977 528 989 q 574 938 563 965 l 957 68 q 961 13 972 35 q 917 -10 950 -10 q 876 3 892 -10 q 851 42 861 17 l 761 250 l 251 250 l 163 42 q 100 -10 140 -10 m 506 846 l 293 346 l 721 346 l 508 846 l 506 846 m 532 1208 q 499 1205 514 1200 q 481 1222 485 1210 q 494 1244 478 1233 q 540 1283 525 1265 q 556 1324 556 1301 q 494 1363 556 1363 q 439 1356 468 1363 q 397 1371 406 1347 q 421 1410 389 1397 q 467 1419 443 1417 q 514 1422 490 1422 q 606 1402 574 1422 q 639 1342 639 1382 q 606 1265 639 1299 q 532 1208 572 1232 m 508 1056 q 367 1102 424 1056 q 296 1229 311 1149 q 321 1276 288 1272 q 360 1244 351 1279 q 410 1159 372 1190 q 508 1128 447 1128 q 607 1159 569 1128 q 657 1244 644 1190 q 694 1276 665 1279 q 717 1263 710 1275 q 721 1231 725 1251 q 649 1103 706 1150 q 508 1056 593 1056 z "},"Ẵ":{"ha":1013,"x_min":42,"x_max":972,"o":"m 100 -10 q 54 13 67 -10 q 57 68 42 35 l 439 938 q 507 989 461 989 q 545 977 528 989 q 574 938 563 965 l 957 68 q 961 13 972 35 q 917 -10 950 -10 q 876 3 892 -10 q 851 42 861 17 l 761 250 l 251 250 l 163 42 q 100 -10 140 -10 m 506 846 l 293 346 l 721 346 l 508 846 l 506 846 m 321 1276 q 299 1289 307 1278 q 296 1319 290 1300 q 340 1396 307 1369 q 419 1422 372 1422 q 486 1403 457 1422 q 542 1367 515 1385 q 596 1349 568 1349 q 658 1394 646 1349 q 697 1424 668 1425 q 719 1412 711 1422 q 722 1382 726 1401 q 677 1305 710 1331 q 599 1279 644 1279 q 531 1297 561 1279 q 475 1333 501 1315 q 421 1351 449 1351 q 358 1306 372 1351 q 321 1276 350 1275 m 508 1056 q 381 1089 433 1056 q 304 1174 328 1122 q 301 1205 294 1193 q 321 1221 307 1217 q 365 1200 350 1226 q 420 1147 383 1167 q 508 1128 457 1128 q 597 1147 561 1128 q 651 1200 633 1167 q 696 1221 667 1226 q 716 1205 710 1217 q 713 1174 722 1193 q 636 1089 689 1122 q 508 1056 583 1056 z "},"Ǎ":{"ha":1013,"x_min":42,"x_max":972,"o":"m 100 -10 q 54 13 67 -10 q 57 68 42 35 l 439 938 q 507 989 461 989 q 545 977 528 989 q 574 938 563 965 l 957 68 q 961 13 972 35 q 917 -10 950 -10 q 876 3 892 -10 q 851 42 861 17 l 761 250 l 251 250 l 163 42 q 100 -10 140 -10 m 506 846 l 293 346 l 721 346 l 508 846 l 506 846 m 508 1050 q 438 1088 464 1050 l 315 1260 q 310 1294 301 1279 q 339 1312 319 1310 q 375 1296 358 1314 l 508 1136 l 643 1296 q 678 1312 658 1314 q 706 1294 697 1310 q 701 1260 715 1279 l 581 1088 q 508 1050 554 1050 z "},"Â":{"ha":1013,"x_min":42,"x_max":972,"o":"m 100 -10 q 54 13 67 -10 q 57 68 42 35 l 439 938 q 507 989 461 989 q 545 977 528 989 q 574 938 563 965 l 957 68 q 961 13 972 35 q 917 -10 950 -10 q 876 3 892 -10 q 851 42 861 17 l 761 250 l 251 250 l 163 42 q 100 -10 140 -10 m 506 846 l 293 346 l 721 346 l 508 846 l 506 846 m 375 1067 q 339 1051 358 1049 q 310 1069 319 1054 q 315 1104 301 1085 l 438 1275 q 508 1314 464 1314 q 581 1275 553 1314 l 701 1104 q 706 1069 715 1085 q 678 1051 697 1054 q 643 1067 658 1049 l 508 1228 l 375 1067 z "},"Ấ":{"ha":1013,"x_min":42,"x_max":972,"o":"m 100 -10 q 54 13 67 -10 q 57 68 42 35 l 439 938 q 507 989 461 989 q 545 977 528 989 q 574 938 563 965 l 957 68 q 961 13 972 35 q 917 -10 950 -10 q 876 3 892 -10 q 851 42 861 17 l 761 250 l 251 250 l 163 42 q 100 -10 140 -10 m 506 846 l 293 346 l 721 346 l 508 846 l 506 846 m 707 1200 q 678 1187 694 1185 q 654 1203 663 1189 q 657 1238 646 1217 l 753 1403 q 783 1428 765 1425 q 816 1422 801 1432 q 835 1396 831 1413 q 825 1361 840 1379 l 707 1200 m 385 1067 q 351 1051 369 1049 q 325 1068 333 1053 q 331 1103 317 1083 l 439 1263 q 470 1293 453 1285 q 508 1301 488 1301 q 547 1293 529 1301 q 578 1263 564 1285 l 686 1103 q 692 1068 700 1083 q 666 1051 683 1053 q 632 1067 649 1049 l 508 1215 l 385 1067 z "},"Ậ":{"ha":1013,"x_min":42,"x_max":972,"o":"m 100 -10 q 54 13 67 -10 q 57 68 42 35 l 439 938 q 507 989 461 989 q 545 977 528 989 q 574 938 563 965 l 957 68 q 961 13 972 35 q 917 -10 950 -10 q 876 3 892 -10 q 851 42 861 17 l 761 250 l 251 250 l 163 42 q 100 -10 140 -10 m 506 846 l 293 346 l 721 346 l 508 846 l 506 846 m 508 -265 q 440 -199 440 -265 q 508 -133 440 -133 q 578 -199 578 -133 q 508 -265 578 -265 m 375 1067 q 339 1051 358 1049 q 310 1069 319 1054 q 315 1104 301 1085 l 438 1275 q 508 1314 464 1314 q 581 1275 553 1314 l 701 1104 q 706 1069 715 1085 q 678 1051 697 1054 q 643 1067 658 1049 l 508 1228 l 375 1067 z "},"Ầ":{"ha":1013,"x_min":42,"x_max":972,"o":"m 100 -10 q 54 13 67 -10 q 57 68 42 35 l 439 938 q 507 989 461 989 q 545 977 528 989 q 574 938 563 965 l 957 68 q 961 13 972 35 q 917 -10 950 -10 q 876 3 892 -10 q 851 42 861 17 l 761 250 l 251 250 l 163 42 q 100 -10 140 -10 m 506 846 l 293 346 l 721 346 l 508 846 l 506 846 m 700 1200 l 581 1361 q 572 1396 567 1379 q 591 1422 576 1413 q 624 1428 606 1432 q 654 1403 642 1425 l 750 1238 q 753 1203 761 1217 q 728 1187 744 1189 q 700 1200 711 1185 m 385 1067 q 351 1051 369 1049 q 325 1068 333 1053 q 331 1103 317 1083 l 439 1263 q 470 1293 453 1285 q 508 1301 488 1301 q 547 1293 529 1301 q 578 1263 564 1285 l 686 1103 q 692 1068 700 1083 q 666 1051 683 1053 q 632 1067 649 1049 l 508 1215 l 385 1067 z "},"Ẩ":{"ha":1013,"x_min":42,"x_max":972,"o":"m 100 -10 q 54 13 67 -10 q 57 68 42 35 l 439 938 q 507 989 461 989 q 545 977 528 989 q 574 938 563 965 l 957 68 q 961 13 972 35 q 917 -10 950 -10 q 876 3 892 -10 q 851 42 861 17 l 761 250 l 251 250 l 163 42 q 100 -10 140 -10 m 506 846 l 293 346 l 721 346 l 508 846 l 506 846 m 701 1201 q 671 1199 685 1193 q 654 1216 657 1204 q 668 1240 651 1228 q 715 1279 699 1260 q 732 1321 732 1299 q 669 1360 732 1360 q 615 1353 644 1360 q 572 1369 581 1344 q 597 1407 564 1397 q 642 1417 618 1414 q 690 1419 665 1419 q 781 1400 749 1419 q 814 1338 814 1381 q 778 1258 814 1293 q 701 1201 742 1224 m 385 1067 q 351 1051 369 1049 q 325 1068 333 1053 q 331 1103 317 1083 l 439 1263 q 470 1293 453 1285 q 508 1301 488 1301 q 547 1293 529 1301 q 578 1263 564 1285 l 686 1103 q 692 1068 700 1083 q 666 1051 683 1053 q 632 1067 649 1049 l 508 1215 l 385 1067 z "},"Ẫ":{"ha":1013,"x_min":42,"x_max":972,"o":"m 100 -10 q 54 13 67 -10 q 57 68 42 35 l 439 938 q 507 989 461 989 q 545 977 528 989 q 574 938 563 965 l 957 68 q 961 13 972 35 q 917 -10 950 -10 q 876 3 892 -10 q 851 42 861 17 l 761 250 l 251 250 l 163 42 q 100 -10 140 -10 m 506 846 l 293 346 l 721 346 l 508 846 l 506 846 m 321 1278 q 299 1290 307 1279 q 296 1321 290 1301 q 340 1397 307 1371 q 419 1422 372 1422 q 486 1404 457 1422 q 542 1368 515 1386 q 596 1350 568 1350 q 658 1396 646 1350 q 697 1425 668 1426 q 719 1413 711 1424 q 722 1383 726 1403 q 677 1306 710 1332 q 599 1281 644 1281 q 531 1299 561 1281 q 475 1335 501 1317 q 421 1353 449 1353 q 358 1307 372 1353 q 321 1278 350 1276 m 378 1063 q 346 1052 361 1049 q 325 1069 331 1056 q 333 1099 319 1083 l 435 1221 q 469 1248 451 1240 q 508 1256 488 1256 q 547 1248 529 1256 q 582 1221 565 1240 l 683 1099 q 692 1069 697 1083 q 671 1051 686 1056 q 639 1063 656 1047 l 508 1181 l 378 1063 z "},"Ȁ":{"ha":1013,"x_min":42,"x_max":972,"o":"m 100 -10 q 54 13 67 -10 q 57 68 42 35 l 439 938 q 507 989 461 989 q 545 977 528 989 q 574 938 563 965 l 957 68 q 961 13 972 35 q 917 -10 950 -10 q 876 3 892 -10 q 851 42 861 17 l 761 250 l 251 250 l 163 42 q 100 -10 140 -10 m 506 846 l 293 346 l 721 346 l 508 846 l 506 846 m 385 1067 l 261 1243 q 251 1281 246 1264 q 273 1308 257 1299 q 308 1313 289 1317 q 338 1285 326 1308 l 435 1097 q 436 1066 444 1079 q 413 1051 428 1053 q 385 1067 397 1050 m 558 1068 l 440 1243 q 431 1281 425 1264 q 453 1308 436 1299 q 488 1312 469 1317 q 518 1285 507 1307 l 614 1096 q 613 1065 622 1078 q 588 1052 604 1053 q 558 1068 571 1051 z "},"Ä":{"ha":1013,"x_min":42,"x_max":972,"o":"m 100 -10 q 54 13 67 -10 q 57 68 42 35 l 439 938 q 507 989 461 989 q 545 977 528 989 q 574 938 563 965 l 957 68 q 961 13 972 35 q 917 -10 950 -10 q 876 3 892 -10 q 851 42 861 17 l 761 250 l 251 250 l 163 42 q 100 -10 140 -10 m 506 846 l 293 346 l 721 346 l 508 846 l 506 846 m 631 1114 q 564 1179 564 1114 q 631 1243 564 1243 q 694 1179 694 1243 q 631 1114 694 1114 m 388 1114 q 322 1179 322 1114 q 388 1243 322 1243 q 453 1179 453 1243 q 388 1114 453 1114 z "},"Ȧ":{"ha":1013,"x_min":42,"x_max":972,"o":"m 100 -10 q 54 13 67 -10 q 57 68 42 35 l 439 938 q 507 989 461 989 q 545 977 528 989 q 574 938 563 965 l 957 68 q 961 13 972 35 q 917 -10 950 -10 q 876 3 892 -10 q 851 42 861 17 l 761 250 l 251 250 l 163 42 q 100 -10 140 -10 m 506 846 l 293 346 l 721 346 l 508 846 l 506 846 m 508 1115 q 440 1182 440 1115 q 508 1247 440 1247 q 576 1182 576 1247 q 508 1115 576 1115 z "},"Ạ":{"ha":1013,"x_min":42,"x_max":972,"o":"m 100 -10 q 54 13 67 -10 q 57 68 42 35 l 439 938 q 507 989 461 989 q 545 977 528 989 q 574 938 563 965 l 957 68 q 961 13 972 35 q 917 -10 950 -10 q 876 3 892 -10 q 851 42 861 17 l 761 250 l 251 250 l 163 42 q 100 -10 140 -10 m 506 846 l 293 346 l 721 346 l 508 846 l 506 846 m 508 -265 q 440 -199 440 -265 q 508 -133 440 -133 q 578 -199 578 -133 q 508 -265 578 -265 z "},"À":{"ha":1013,"x_min":42,"x_max":972,"o":"m 100 -10 q 54 13 67 -10 q 57 68 42 35 l 439 938 q 507 989 461 989 q 545 977 528 989 q 574 938 563 965 l 957 68 q 961 13 972 35 q 917 -10 950 -10 q 876 3 892 -10 q 851 42 861 17 l 761 250 l 251 250 l 163 42 q 100 -10 140 -10 m 506 846 l 293 346 l 721 346 l 508 846 l 506 846 m 460 1068 l 315 1239 q 304 1275 300 1257 q 324 1304 308 1293 q 360 1313 340 1315 q 396 1289 381 1311 l 519 1110 q 524 1074 533 1090 q 495 1055 514 1058 q 460 1068 476 1051 z "},"Ả":{"ha":1013,"x_min":42,"x_max":972,"o":"m 100 -10 q 54 13 67 -10 q 57 68 42 35 l 439 938 q 507 989 461 989 q 545 977 528 989 q 574 938 563 965 l 957 68 q 961 13 972 35 q 917 -10 950 -10 q 876 3 892 -10 q 851 42 861 17 l 761 250 l 251 250 l 163 42 q 100 -10 140 -10 m 506 846 l 293 346 l 721 346 l 508 846 l 506 846 m 508 1053 q 469 1085 469 1053 q 483 1130 469 1113 q 513 1160 496 1147 q 544 1183 531 1172 q 557 1211 557 1194 q 493 1243 557 1243 q 465 1241 481 1243 q 436 1235 450 1239 q 388 1250 396 1224 q 411 1293 376 1281 q 515 1310 456 1310 q 613 1286 578 1310 q 649 1224 649 1263 q 633 1177 649 1194 q 598 1147 618 1160 q 563 1119 578 1135 q 547 1078 547 1104 q 508 1053 547 1053 z "},"Ȃ":{"ha":1013,"x_min":42,"x_max":972,"o":"m 100 -10 q 54 13 67 -10 q 57 68 42 35 l 439 938 q 507 989 461 989 q 545 977 528 989 q 574 938 563 965 l 957 68 q 961 13 972 35 q 917 -10 950 -10 q 876 3 892 -10 q 851 42 861 17 l 761 250 l 251 250 l 163 42 q 100 -10 140 -10 m 506 846 l 293 346 l 721 346 l 508 846 l 506 846 m 308 1054 q 283 1067 293 1056 q 278 1100 274 1079 q 363 1250 299 1201 q 508 1299 426 1299 q 654 1250 590 1299 q 739 1100 718 1201 q 733 1067 743 1079 q 708 1054 724 1056 q 681 1063 692 1053 q 668 1086 671 1072 q 606 1192 651 1161 q 508 1224 561 1224 q 410 1192 456 1224 q 349 1086 365 1161 q 335 1063 346 1072 q 308 1054 325 1053 z "},"Ā":{"ha":1013,"x_min":42,"x_max":972,"o":"m 100 -10 q 54 13 67 -10 q 57 68 42 35 l 439 938 q 507 989 461 989 q 545 977 528 989 q 574 938 563 965 l 957 68 q 961 13 972 35 q 917 -10 950 -10 q 876 3 892 -10 q 851 42 861 17 l 761 250 l 251 250 l 163 42 q 100 -10 140 -10 m 506 846 l 293 346 l 721 346 l 508 846 l 506 846 m 319 1131 q 279 1169 279 1131 q 319 1207 279 1207 l 697 1207 q 739 1169 739 1207 q 697 1131 739 1131 l 319 1131 z "},"Ą":{"ha":1013,"x_min":42,"x_max":1046,"o":"m 935 -267 q 829 -231 869 -267 q 789 -132 789 -194 q 809 -51 789 -90 q 865 17 829 -12 q 851 42 858 25 l 761 250 l 251 250 l 163 42 q 100 -10 140 -10 q 54 13 67 -10 q 56 68 42 35 l 439 938 q 507 989 461 989 q 545 977 528 989 q 574 938 563 965 l 957 68 q 946 -3 981 15 q 897 -46 924 -15 q 869 -119 869 -76 q 893 -178 869 -160 q 950 -197 917 -197 q 999 -189 974 -197 q 1035 -196 1024 -182 q 1041 -228 1046 -210 q 1017 -254 1036 -247 q 976 -265 996 -262 q 935 -267 956 -267 m 506 846 l 293 346 l 721 346 l 508 846 l 506 846 z "},"Å":{"ha":1013,"x_min":42,"x_max":972,"o":"m 100 -10 q 54 13 67 -10 q 57 68 42 35 l 439 938 q 507 989 461 989 q 545 977 528 989 q 574 938 563 965 l 957 68 q 961 13 972 35 q 917 -10 950 -10 q 876 3 892 -10 q 851 42 861 17 l 761 250 l 251 250 l 163 42 q 100 -10 140 -10 m 506 846 l 293 346 l 721 346 l 508 846 l 506 846 m 508 1053 q 391 1099 439 1053 q 343 1214 343 1146 q 391 1327 343 1281 q 508 1374 439 1374 q 626 1327 578 1374 q 674 1214 674 1281 q 626 1099 674 1146 q 508 1053 578 1053 m 508 1113 q 581 1142 553 1113 q 608 1214 608 1171 q 581 1285 608 1256 q 508 1314 553 1314 q 437 1285 465 1314 q 408 1214 408 1256 q 437 1142 408 1171 q 508 1113 465 1113 z "},"Ǻ":{"ha":1013,"x_min":42,"x_max":972,"o":"m 100 -10 q 54 13 67 -10 q 57 68 42 35 l 439 938 q 507 989 461 989 q 545 977 528 989 q 574 938 563 965 l 957 68 q 961 13 972 35 q 917 -10 950 -10 q 876 3 892 -10 q 851 42 861 17 l 761 250 l 251 250 l 163 42 q 100 -10 140 -10 m 506 846 l 293 346 l 721 346 l 508 846 l 506 846 m 508 1053 q 394 1099 440 1053 q 347 1210 347 1144 q 394 1322 347 1276 q 508 1368 440 1368 q 600 1340 558 1368 l 701 1435 q 740 1446 721 1453 q 766 1420 760 1439 q 753 1385 772 1401 l 646 1293 q 669 1210 669 1257 q 623 1099 669 1144 q 508 1053 576 1053 m 508 1110 q 581 1139 553 1110 q 608 1210 608 1168 q 581 1281 608 1253 q 508 1310 553 1310 q 437 1281 465 1310 q 408 1210 408 1253 q 437 1139 408 1168 q 508 1110 465 1110 z "},"Ã":{"ha":1013,"x_min":42,"x_max":972,"o":"m 100 -10 q 54 13 67 -10 q 57 68 42 35 l 439 938 q 507 989 461 989 q 545 977 528 989 q 574 938 563 965 l 957 68 q 961 13 972 35 q 917 -10 950 -10 q 876 3 892 -10 q 851 42 861 17 l 761 250 l 251 250 l 163 42 q 100 -10 140 -10 m 506 846 l 293 346 l 721 346 l 508 846 l 506 846 m 253 1083 q 228 1094 238 1083 q 222 1122 219 1104 q 279 1236 236 1196 q 385 1276 322 1276 q 456 1260 422 1276 q 521 1224 490 1244 q 580 1187 551 1203 q 636 1171 608 1171 q 697 1194 672 1171 q 728 1257 721 1218 q 764 1285 735 1286 q 788 1274 779 1285 q 794 1246 797 1264 q 738 1132 781 1172 q 633 1092 694 1092 q 562 1108 596 1092 q 497 1144 528 1124 q 437 1181 465 1165 q 381 1197 408 1197 q 320 1174 344 1197 q 289 1111 296 1150 q 253 1083 282 1082 z "},"Æ":{"ha":1363,"x_min":0,"x_max":1301,"o":"m 58 -10 q 10 13 19 -10 q 17 63 0 35 l 551 944 q 614 979 572 979 l 1250 979 q 1301 932 1301 979 q 1250 883 1301 883 l 700 883 l 772 544 l 1222 544 q 1274 497 1274 544 q 1222 449 1274 449 l 792 449 l 868 96 l 1250 96 q 1301 49 1301 96 q 1250 0 1301 0 l 831 0 q 774 46 785 0 l 731 250 l 250 250 l 118 28 q 93 0 107 10 q 58 -10 79 -10 m 601 844 l 306 346 l 710 346 l 604 844 l 601 844 z "},"Ǽ":{"ha":1363,"x_min":0,"x_max":1301,"o":"m 58 -10 q 10 13 19 -10 q 17 63 0 35 l 551 944 q 614 979 572 979 l 1250 979 q 1301 932 1301 979 q 1250 883 1301 883 l 700 883 l 772 544 l 1222 544 q 1274 497 1274 544 q 1222 449 1274 449 l 792 449 l 868 96 l 1250 96 q 1301 49 1301 96 q 1250 0 1301 0 l 831 0 q 774 46 785 0 l 731 250 l 250 250 l 118 28 q 93 0 107 10 q 58 -10 79 -10 m 601 844 l 306 346 l 710 346 l 604 844 l 601 844 m 725 1068 q 691 1055 710 1051 q 663 1074 672 1058 q 665 1110 653 1090 l 789 1289 q 824 1313 804 1311 q 860 1304 844 1315 q 881 1275 876 1293 q 869 1239 886 1257 l 725 1068 z "},"B":{"ha":939,"x_min":121,"x_max":853,"o":"m 183 0 q 121 63 121 0 l 121 917 q 183 979 121 979 l 513 979 q 747 912 664 979 q 829 724 829 844 q 788 586 829 643 q 672 503 746 529 q 805 421 757 481 q 853 269 853 361 q 768 69 853 139 q 529 0 683 0 l 183 0 m 232 542 l 496 542 q 717 714 717 542 q 496 888 717 888 l 232 888 l 232 542 m 232 92 l 518 92 q 740 271 740 92 q 518 450 740 450 l 232 450 l 232 92 z "},"Ɓ":{"ha":1111,"x_min":0,"x_max":1025,"o":"m 356 0 q 293 63 293 0 l 293 892 l 249 892 q 97 744 97 892 l 97 717 q 85 683 97 697 q 50 668 74 668 q 13 683 25 668 q 0 718 0 699 l 0 750 q 261 979 0 979 l 685 979 q 919 912 836 979 q 1001 724 1001 844 q 960 586 1001 643 q 844 503 918 529 q 977 421 929 481 q 1025 269 1025 361 q 940 69 1025 139 q 701 0 856 0 l 356 0 m 404 542 l 668 542 q 889 714 889 542 q 668 888 889 888 l 404 888 l 404 542 m 404 92 l 690 92 q 913 271 913 92 q 690 450 913 450 l 404 450 l 404 92 z "},"C":{"ha":935,"x_min":85,"x_max":875,"o":"m 544 -12 q 297 49 400 -12 q 140 222 194 110 q 85 490 85 335 q 140 757 85 644 q 297 931 194 869 q 544 992 400 992 q 708 967 631 992 q 843 896 786 942 q 870 857 867 879 q 863 817 874 835 q 831 795 851 800 q 786 808 811 790 q 547 888 688 888 q 294 783 382 888 q 207 490 207 679 q 294 196 207 300 q 547 92 382 92 q 789 172 688 92 q 834 185 814 189 q 865 164 854 181 q 872 126 875 147 q 849 89 869 106 q 711 13 789 39 q 544 -12 633 -12 z "},"Ć":{"ha":935,"x_min":85,"x_max":875,"o":"m 544 -12 q 297 49 400 -12 q 140 222 194 110 q 85 490 85 335 q 140 757 85 644 q 297 931 194 869 q 544 992 400 992 q 708 967 631 992 q 843 896 786 942 q 870 857 867 879 q 863 817 874 835 q 831 795 851 800 q 786 808 811 790 q 547 888 688 888 q 294 783 382 888 q 207 490 207 679 q 294 196 207 300 q 547 92 382 92 q 789 172 688 92 q 834 185 814 189 q 865 164 854 181 q 872 126 875 147 q 849 89 869 106 q 711 13 789 39 q 544 -12 633 -12 m 586 1068 q 552 1055 571 1051 q 524 1074 533 1058 q 526 1110 514 1090 l 650 1289 q 685 1313 665 1311 q 722 1304 706 1315 q 742 1275 738 1293 q 731 1239 747 1257 l 586 1068 z "},"Č":{"ha":935,"x_min":85,"x_max":875,"o":"m 544 -12 q 297 49 400 -12 q 140 222 194 110 q 85 490 85 335 q 140 757 85 644 q 297 931 194 869 q 544 992 400 992 q 708 967 631 992 q 843 896 786 942 q 870 857 867 879 q 863 817 874 835 q 831 795 851 800 q 786 808 811 790 q 547 888 688 888 q 294 783 382 888 q 207 490 207 679 q 294 196 207 300 q 547 92 382 92 q 789 172 688 92 q 834 185 814 189 q 865 164 854 181 q 872 126 875 147 q 849 89 869 106 q 711 13 789 39 q 544 -12 633 -12 m 538 1050 q 467 1088 493 1050 l 344 1260 q 340 1294 331 1279 q 368 1312 349 1310 q 404 1296 388 1314 l 538 1136 l 672 1296 q 707 1312 688 1314 q 735 1294 726 1310 q 731 1260 744 1279 l 610 1088 q 538 1050 583 1050 z "},"Ç":{"ha":935,"x_min":85,"x_max":875,"o":"m 544 -12 q 297 49 400 -12 q 140 222 194 110 q 85 490 85 335 q 140 757 85 644 q 297 931 194 869 q 544 992 400 992 q 708 967 631 992 q 843 896 786 942 q 870 857 867 879 q 863 817 874 835 q 831 795 851 800 q 786 808 811 790 q 547 888 688 888 q 294 783 382 888 q 207 490 207 679 q 294 196 207 300 q 547 92 382 92 q 789 172 688 92 q 834 185 814 189 q 865 164 854 181 q 872 126 875 147 q 849 89 869 106 q 711 13 789 39 q 544 -12 633 -12 m 539 -267 q 487 -263 514 -267 q 438 -250 460 -260 q 415 -224 417 -242 q 424 -193 413 -206 q 458 -189 436 -181 q 536 -201 489 -201 q 594 -188 572 -201 q 617 -150 617 -175 q 564 -111 617 -111 q 542 -112 553 -111 q 518 -117 532 -114 q 485 -117 496 -124 q 479 -82 475 -108 l 496 28 l 567 28 l 551 -60 q 578 -58 565 -58 q 662 -83 629 -58 q 694 -153 694 -108 q 651 -235 694 -204 q 539 -267 608 -267 z "},"Ḉ":{"ha":935,"x_min":85,"x_max":875,"o":"m 544 -12 q 297 49 400 -12 q 140 222 194 110 q 85 490 85 335 q 140 757 85 644 q 297 931 194 869 q 544 992 400 992 q 708 967 631 992 q 843 896 786 942 q 870 857 867 879 q 863 817 874 835 q 831 795 851 800 q 786 808 811 790 q 547 888 688 888 q 294 783 382 888 q 207 490 207 679 q 294 196 207 300 q 547 92 382 92 q 789 172 688 92 q 834 185 814 189 q 865 164 854 181 q 872 126 875 147 q 849 89 869 106 q 711 13 789 39 q 544 -12 633 -12 m 539 -267 q 487 -263 514 -267 q 438 -250 460 -260 q 415 -224 417 -242 q 424 -193 413 -206 q 458 -189 436 -181 q 536 -201 489 -201 q 594 -188 572 -201 q 617 -150 617 -175 q 564 -111 617 -111 q 542 -112 553 -111 q 518 -117 532 -114 q 485 -117 496 -124 q 479 -82 475 -108 l 496 28 l 567 28 l 551 -60 q 578 -58 565 -58 q 662 -83 629 -58 q 694 -153 694 -108 q 651 -235 694 -204 q 539 -267 608 -267 m 586 1068 q 552 1055 571 1051 q 524 1074 533 1058 q 526 1110 514 1090 l 650 1289 q 685 1313 665 1311 q 722 1304 706 1315 q 742 1275 738 1293 q 731 1239 747 1257 l 586 1068 z "},"Ĉ":{"ha":935,"x_min":85,"x_max":875,"o":"m 544 -12 q 297 49 400 -12 q 140 222 194 110 q 85 490 85 335 q 140 757 85 644 q 297 931 194 869 q 544 992 400 992 q 708 967 631 992 q 843 896 786 942 q 870 857 867 879 q 863 817 874 835 q 831 795 851 800 q 786 808 811 790 q 547 888 688 888 q 294 783 382 888 q 207 490 207 679 q 294 196 207 300 q 547 92 382 92 q 789 172 688 92 q 834 185 814 189 q 865 164 854 181 q 872 126 875 147 q 849 89 869 106 q 711 13 789 39 q 544 -12 633 -12 m 404 1067 q 368 1051 388 1049 q 340 1069 349 1054 q 344 1104 331 1085 l 467 1275 q 538 1314 493 1314 q 610 1275 582 1314 l 731 1104 q 735 1069 744 1085 q 707 1051 726 1054 q 672 1067 688 1049 l 538 1228 l 404 1067 z "},"Ċ":{"ha":935,"x_min":85,"x_max":875,"o":"m 544 -12 q 297 49 400 -12 q 140 222 194 110 q 85 490 85 335 q 140 757 85 644 q 297 931 194 869 q 544 992 400 992 q 708 967 631 992 q 843 896 786 942 q 870 857 867 879 q 863 817 874 835 q 831 795 851 800 q 786 808 811 790 q 547 888 688 888 q 294 783 382 888 q 207 490 207 679 q 294 196 207 300 q 547 92 382 92 q 789 172 688 92 q 834 185 814 189 q 865 164 854 181 q 872 126 875 147 q 849 89 869 106 q 711 13 789 39 q 544 -12 633 -12 m 538 1115 q 469 1182 469 1115 q 538 1247 469 1247 q 606 1182 606 1247 q 538 1115 606 1115 z "},"D":{"ha":1031,"x_min":121,"x_max":947,"o":"m 183 0 q 121 63 121 0 l 121 917 q 183 979 121 979 l 451 979 q 818 853 689 979 q 947 490 947 728 q 818 126 947 253 q 451 0 689 0 l 183 0 m 235 97 l 443 97 q 826 490 826 97 q 443 882 826 882 l 235 882 l 235 97 z "},"Ǆ":{"ha":1828,"x_min":121,"x_max":1807,"o":"m 183 0 q 121 63 121 0 l 121 917 q 183 979 121 979 l 451 979 q 818 853 689 979 q 947 490 947 728 q 818 126 947 253 q 451 0 689 0 l 183 0 m 235 97 l 443 97 q 826 490 826 97 q 443 882 826 882 l 235 882 l 235 97 z "},"Ð":{"ha":1031,"x_min":-11,"x_max":947,"o":"m 183 0 q 121 63 121 0 l 121 917 q 183 979 121 979 l 451 979 q 818 853 689 979 q 947 490 947 728 q 818 126 947 253 q 451 0 689 0 l 183 0 m 235 97 l 443 97 q 826 490 826 97 q 443 882 826 882 l 235 882 l 235 97 m 35 453 q -11 497 -11 453 q 35 542 -11 542 l 472 542 q 518 497 518 542 q 472 453 518 453 l 35 453 z "},"Ď":{"ha":1031,"x_min":121,"x_max":947,"o":"m 183 0 q 121 63 121 0 l 121 917 q 183 979 121 979 l 451 979 q 818 853 689 979 q 947 490 947 728 q 818 126 947 253 q 451 0 689 0 l 183 0 m 235 97 l 443 97 q 826 490 826 97 q 443 882 826 882 l 235 882 l 235 97 m 514 1050 q 443 1088 469 1050 l 321 1260 q 316 1294 307 1279 q 344 1312 325 1310 q 381 1296 364 1314 l 514 1136 l 649 1296 q 683 1312 664 1314 q 712 1294 703 1310 q 707 1260 721 1279 l 586 1088 q 514 1050 560 1050 z "},"Đ":{"ha":1031,"x_min":-11,"x_max":947,"o":"m 183 0 q 121 63 121 0 l 121 917 q 183 979 121 979 l 451 979 q 818 853 689 979 q 947 490 947 728 q 818 126 947 253 q 451 0 689 0 l 183 0 m 235 97 l 443 97 q 826 490 826 97 q 443 882 826 882 l 235 882 l 235 97 m 35 453 q -11 497 -11 453 q 35 542 -11 542 l 472 542 q 518 497 518 542 q 472 453 518 453 l 35 453 z "},"Ḍ":{"ha":1031,"x_min":121,"x_max":947,"o":"m 183 0 q 121 63 121 0 l 121 917 q 183 979 121 979 l 451 979 q 818 853 689 979 q 947 490 947 728 q 818 126 947 253 q 451 0 689 0 l 183 0 m 235 97 l 443 97 q 826 490 826 97 q 443 882 826 882 l 235 882 l 235 97 m 515 -265 q 447 -199 447 -265 q 515 -133 447 -133 q 585 -199 585 -133 q 515 -265 585 -265 z "},"Ɗ":{"ha":1204,"x_min":0,"x_max":1119,"o":"m 356 0 q 293 63 293 0 l 293 892 l 249 892 q 97 744 97 892 l 97 717 q 85 683 97 697 q 50 668 74 668 q 13 683 25 668 q 0 718 0 699 l 0 750 q 250 979 0 979 l 624 979 q 990 853 861 979 q 1119 490 1119 728 q 990 126 1119 253 q 624 0 861 0 l 356 0 m 408 97 l 615 97 q 999 490 999 97 q 615 882 999 882 l 408 882 l 408 97 z "},"Ḏ":{"ha":1031,"x_min":121,"x_max":947,"o":"m 183 0 q 121 63 121 0 l 121 917 q 183 979 121 979 l 451 979 q 818 853 689 979 q 947 490 947 728 q 818 126 947 253 q 451 0 689 0 l 183 0 m 235 97 l 443 97 q 826 490 826 97 q 443 882 826 882 l 235 882 l 235 97 m 347 -217 q 307 -179 307 -217 q 347 -140 307 -140 l 683 -140 q 725 -179 725 -140 q 683 -217 725 -217 l 347 -217 z "},"ǅ":{"ha":1675,"x_min":121,"x_max":1643,"o":"m 183 0 q 121 63 121 0 l 121 917 q 183 979 121 979 l 451 979 q 818 853 689 979 q 947 490 947 728 q 818 126 947 253 q 451 0 689 0 l 183 0 m 235 97 l 443 97 q 826 490 826 97 q 443 882 826 882 l 235 882 l 235 97 z "},"E":{"ha":810,"x_min":121,"x_max":749,"o":"m 183 0 q 121 63 121 0 l 121 917 q 183 979 121 979 l 700 979 q 749 932 749 979 q 700 883 749 883 l 232 883 l 232 544 l 671 544 q 719 497 719 544 q 671 449 719 449 l 232 449 l 232 96 l 700 96 q 749 49 749 96 q 700 0 749 0 l 183 0 z "},"É":{"ha":810,"x_min":121,"x_max":749,"o":"m 183 0 q 121 63 121 0 l 121 917 q 183 979 121 979 l 700 979 q 749 932 749 979 q 700 883 749 883 l 232 883 l 232 544 l 671 544 q 719 497 719 544 q 671 449 719 449 l 232 449 l 232 96 l 700 96 q 749 49 749 96 q 700 0 749 0 l 183 0 m 499 1068 q 465 1055 483 1051 q 436 1074 446 1058 q 439 1110 426 1090 l 563 1289 q 598 1313 578 1311 q 634 1304 618 1315 q 655 1275 650 1293 q 643 1239 660 1257 l 499 1068 z "},"Ĕ":{"ha":810,"x_min":121,"x_max":749,"o":"m 183 0 q 121 63 121 0 l 121 917 q 183 979 121 979 l 700 979 q 749 932 749 979 q 700 883 749 883 l 232 883 l 232 544 l 671 544 q 719 497 719 544 q 671 449 719 449 l 232 449 l 232 96 l 700 96 q 749 49 749 96 q 700 0 749 0 l 183 0 m 450 1056 q 304 1104 368 1056 q 219 1256 240 1153 q 225 1288 215 1275 q 250 1300 235 1300 q 277 1292 267 1301 q 290 1269 288 1283 q 351 1162 306 1193 q 450 1131 397 1131 q 549 1162 503 1131 q 610 1269 594 1193 q 623 1292 613 1283 q 650 1300 633 1301 q 675 1288 665 1300 q 681 1256 685 1275 q 596 1104 660 1153 q 450 1056 532 1056 z "},"Ě":{"ha":810,"x_min":121,"x_max":749,"o":"m 183 0 q 121 63 121 0 l 121 917 q 183 979 121 979 l 700 979 q 749 932 749 979 q 700 883 749 883 l 232 883 l 232 544 l 671 544 q 719 497 719 544 q 671 449 719 449 l 232 449 l 232 96 l 700 96 q 749 49 749 96 q 700 0 749 0 l 183 0 m 450 1050 q 379 1088 406 1050 l 257 1260 q 252 1294 243 1279 q 281 1312 261 1310 q 317 1296 300 1314 l 450 1136 l 585 1296 q 619 1312 600 1314 q 648 1294 639 1310 q 643 1260 657 1279 l 522 1088 q 450 1050 496 1050 z "},"Ȩ":{"ha":810,"x_min":121,"x_max":749,"o":"m 183 0 q 121 63 121 0 l 121 917 q 183 979 121 979 l 700 979 q 749 932 749 979 q 700 883 749 883 l 232 883 l 232 544 l 671 544 q 719 497 719 544 q 671 449 719 449 l 232 449 l 232 96 l 700 96 q 749 49 749 96 q 700 0 749 0 l 183 0 m 454 -267 q 402 -263 429 -267 q 353 -250 375 -260 q 330 -224 332 -242 q 340 -193 328 -206 q 374 -189 351 -181 q 451 -201 404 -201 q 510 -188 488 -201 q 532 -150 532 -175 q 479 -111 532 -111 q 458 -112 468 -111 q 433 -117 447 -114 q 400 -117 411 -124 q 394 -82 390 -108 l 411 28 l 482 28 l 467 -60 q 493 -58 481 -58 q 577 -83 544 -58 q 610 -153 610 -108 q 567 -235 610 -204 q 454 -267 524 -267 z "},"Ḝ":{"ha":810,"x_min":121,"x_max":749,"o":"m 183 0 q 121 63 121 0 l 121 917 q 183 979 121 979 l 700 979 q 749 932 749 979 q 700 883 749 883 l 232 883 l 232 544 l 671 544 q 719 497 719 544 q 671 449 719 449 l 232 449 l 232 96 l 700 96 q 749 49 749 96 q 700 0 749 0 l 183 0 m 454 -267 q 402 -263 429 -267 q 353 -250 375 -260 q 330 -224 332 -242 q 340 -193 328 -206 q 374 -189 351 -181 q 451 -201 404 -201 q 510 -188 488 -201 q 532 -150 532 -175 q 479 -111 532 -111 q 458 -112 468 -111 q 433 -117 447 -114 q 400 -117 411 -124 q 394 -82 390 -108 l 411 28 l 482 28 l 467 -60 q 493 -58 481 -58 q 577 -83 544 -58 q 610 -153 610 -108 q 567 -235 610 -204 q 454 -267 524 -267 m 450 1056 q 304 1104 368 1056 q 219 1256 240 1153 q 225 1288 215 1275 q 250 1300 235 1300 q 277 1292 267 1301 q 290 1269 288 1283 q 351 1162 306 1193 q 450 1131 397 1131 q 549 1162 503 1131 q 610 1269 594 1193 q 623 1292 613 1283 q 650 1300 633 1301 q 675 1288 665 1300 q 681 1256 685 1275 q 596 1104 660 1153 q 450 1056 532 1056 z "},"Ê":{"ha":810,"x_min":121,"x_max":749,"o":"m 183 0 q 121 63 121 0 l 121 917 q 183 979 121 979 l 700 979 q 749 932 749 979 q 700 883 749 883 l 232 883 l 232 544 l 671 544 q 719 497 719 544 q 671 449 719 449 l 232 449 l 232 96 l 700 96 q 749 49 749 96 q 700 0 749 0 l 183 0 m 317 1067 q 281 1051 300 1049 q 252 1069 261 1054 q 257 1104 243 1085 l 379 1275 q 450 1314 406 1314 q 522 1275 494 1314 l 643 1104 q 648 1069 657 1085 q 619 1051 639 1054 q 585 1067 600 1049 l 450 1228 l 317 1067 z "},"Ế":{"ha":810,"x_min":121,"x_max":782,"o":"m 183 0 q 121 63 121 0 l 121 917 q 183 979 121 979 l 700 979 q 749 932 749 979 q 700 883 749 883 l 232 883 l 232 544 l 671 544 q 719 497 719 544 q 671 449 719 449 l 232 449 l 232 96 l 700 96 q 749 49 749 96 q 700 0 749 0 l 183 0 m 649 1200 q 620 1187 636 1185 q 596 1203 604 1189 q 599 1238 588 1217 l 694 1403 q 725 1428 707 1425 q 758 1422 743 1432 q 777 1396 772 1413 q 767 1361 782 1379 l 649 1200 m 326 1067 q 293 1051 311 1049 q 267 1068 275 1053 q 272 1103 258 1083 l 381 1263 q 412 1293 394 1285 q 450 1301 429 1301 q 488 1293 471 1301 q 519 1263 506 1285 l 628 1103 q 633 1068 642 1083 q 608 1051 625 1053 q 574 1067 590 1049 l 450 1215 l 326 1067 z "},"Ệ":{"ha":810,"x_min":121,"x_max":749,"o":"m 183 0 q 121 63 121 0 l 121 917 q 183 979 121 979 l 700 979 q 749 932 749 979 q 700 883 749 883 l 232 883 l 232 544 l 671 544 q 719 497 719 544 q 671 449 719 449 l 232 449 l 232 96 l 700 96 q 749 49 749 96 q 700 0 749 0 l 183 0 m 450 -265 q 382 -199 382 -265 q 450 -133 382 -133 q 519 -199 519 -133 q 450 -265 519 -265 m 317 1067 q 281 1051 300 1049 q 252 1069 261 1054 q 257 1104 243 1085 l 379 1275 q 450 1314 406 1314 q 522 1275 494 1314 l 643 1104 q 648 1069 657 1085 q 619 1051 639 1054 q 585 1067 600 1049 l 450 1228 l 317 1067 z "},"Ề":{"ha":810,"x_min":121,"x_max":749,"o":"m 183 0 q 121 63 121 0 l 121 917 q 183 979 121 979 l 700 979 q 749 932 749 979 q 700 883 749 883 l 232 883 l 232 544 l 671 544 q 719 497 719 544 q 671 449 719 449 l 232 449 l 232 96 l 700 96 q 749 49 749 96 q 700 0 749 0 l 183 0 m 642 1200 l 522 1361 q 513 1396 508 1379 q 533 1422 518 1413 q 565 1428 547 1432 q 596 1403 583 1425 l 692 1238 q 694 1203 703 1217 q 669 1187 686 1189 q 642 1200 653 1185 m 326 1067 q 293 1051 311 1049 q 267 1068 275 1053 q 272 1103 258 1083 l 381 1263 q 412 1293 394 1285 q 450 1301 429 1301 q 488 1293 471 1301 q 519 1263 506 1285 l 628 1103 q 633 1068 642 1083 q 608 1051 625 1053 q 574 1067 590 1049 l 450 1215 l 326 1067 z "},"Ể":{"ha":810,"x_min":121,"x_max":756,"o":"m 183 0 q 121 63 121 0 l 121 917 q 183 979 121 979 l 700 979 q 749 932 749 979 q 700 883 749 883 l 232 883 l 232 544 l 671 544 q 719 497 719 544 q 671 449 719 449 l 232 449 l 232 96 l 700 96 q 749 49 749 96 q 700 0 749 0 l 183 0 m 643 1201 q 613 1199 626 1193 q 596 1216 599 1204 q 610 1240 593 1228 q 657 1279 640 1260 q 674 1321 674 1299 q 611 1360 674 1360 q 557 1353 586 1360 q 514 1369 522 1344 q 539 1407 506 1397 q 583 1417 560 1414 q 632 1419 607 1419 q 723 1400 690 1419 q 756 1338 756 1381 q 719 1258 756 1293 q 643 1201 683 1224 m 326 1067 q 293 1051 311 1049 q 267 1068 275 1053 q 272 1103 258 1083 l 381 1263 q 412 1293 394 1285 q 450 1301 429 1301 q 488 1293 471 1301 q 519 1263 506 1285 l 628 1103 q 633 1068 642 1083 q 608 1051 625 1053 q 574 1067 590 1049 l 450 1215 l 326 1067 z "},"Ễ":{"ha":810,"x_min":121,"x_max":749,"o":"m 183 0 q 121 63 121 0 l 121 917 q 183 979 121 979 l 700 979 q 749 932 749 979 q 700 883 749 883 l 232 883 l 232 544 l 671 544 q 719 497 719 544 q 671 449 719 449 l 232 449 l 232 96 l 700 96 q 749 49 749 96 q 700 0 749 0 l 183 0 m 263 1278 q 240 1290 249 1279 q 238 1321 232 1301 q 281 1397 249 1371 q 361 1422 314 1422 q 428 1404 399 1422 q 483 1368 457 1386 q 538 1350 510 1350 q 600 1396 588 1350 q 639 1425 610 1426 q 660 1413 653 1424 q 664 1383 668 1403 q 619 1306 651 1332 q 540 1281 586 1281 q 473 1299 503 1281 q 417 1335 443 1317 q 363 1353 390 1353 q 300 1307 314 1353 q 263 1278 292 1276 m 319 1063 q 288 1052 303 1049 q 267 1069 272 1056 q 275 1099 261 1083 l 376 1221 q 411 1248 393 1240 q 450 1256 429 1256 q 489 1248 471 1256 q 524 1221 507 1240 l 625 1099 q 633 1069 639 1083 q 613 1051 628 1056 q 581 1063 597 1047 l 450 1181 l 319 1063 z "},"Ȅ":{"ha":810,"x_min":121,"x_max":749,"o":"m 183 0 q 121 63 121 0 l 121 917 q 183 979 121 979 l 700 979 q 749 932 749 979 q 700 883 749 883 l 232 883 l 232 544 l 671 544 q 719 497 719 544 q 671 449 719 449 l 232 449 l 232 96 l 700 96 q 749 49 749 96 q 700 0 749 0 l 183 0 m 326 1067 l 203 1243 q 193 1281 188 1264 q 215 1308 199 1299 q 249 1313 231 1317 q 279 1285 268 1308 l 376 1097 q 378 1066 386 1079 q 354 1051 369 1053 q 326 1067 339 1050 m 500 1068 l 382 1243 q 372 1281 367 1264 q 394 1308 378 1299 q 430 1312 411 1317 q 460 1285 449 1307 l 556 1096 q 555 1065 564 1078 q 529 1052 546 1053 q 500 1068 513 1051 z "},"Ë":{"ha":810,"x_min":121,"x_max":749,"o":"m 183 0 q 121 63 121 0 l 121 917 q 183 979 121 979 l 700 979 q 749 932 749 979 q 700 883 749 883 l 232 883 l 232 544 l 671 544 q 719 497 719 544 q 671 449 719 449 l 232 449 l 232 96 l 700 96 q 749 49 749 96 q 700 0 749 0 l 183 0 m 572 1114 q 506 1179 506 1114 q 572 1243 506 1243 q 636 1179 636 1243 q 572 1114 636 1114 m 329 1114 q 264 1179 264 1114 q 329 1243 264 1243 q 394 1179 394 1243 q 329 1114 394 1114 z "},"Ė":{"ha":810,"x_min":121,"x_max":749,"o":"m 183 0 q 121 63 121 0 l 121 917 q 183 979 121 979 l 700 979 q 749 932 749 979 q 700 883 749 883 l 232 883 l 232 544 l 671 544 q 719 497 719 544 q 671 449 719 449 l 232 449 l 232 96 l 700 96 q 749 49 749 96 q 700 0 749 0 l 183 0 m 450 1115 q 382 1182 382 1115 q 450 1247 382 1247 q 518 1182 518 1247 q 450 1115 518 1115 z "},"Ẹ":{"ha":810,"x_min":121,"x_max":749,"o":"m 183 0 q 121 63 121 0 l 121 917 q 183 979 121 979 l 700 979 q 749 932 749 979 q 700 883 749 883 l 232 883 l 232 544 l 671 544 q 719 497 719 544 q 671 449 719 449 l 232 449 l 232 96 l 700 96 q 749 49 749 96 q 700 0 749 0 l 183 0 m 450 -265 q 382 -199 382 -265 q 450 -133 382 -133 q 519 -199 519 -133 q 450 -265 519 -265 z "},"È":{"ha":810,"x_min":121,"x_max":749,"o":"m 183 0 q 121 63 121 0 l 121 917 q 183 979 121 979 l 700 979 q 749 932 749 979 q 700 883 749 883 l 232 883 l 232 544 l 671 544 q 719 497 719 544 q 671 449 719 449 l 232 449 l 232 96 l 700 96 q 749 49 749 96 q 700 0 749 0 l 183 0 m 401 1068 l 257 1239 q 246 1275 242 1257 q 266 1304 250 1293 q 302 1313 282 1315 q 338 1289 322 1311 l 461 1110 q 465 1074 475 1090 q 437 1055 456 1058 q 401 1068 418 1051 z "},"Ẻ":{"ha":810,"x_min":121,"x_max":749,"o":"m 183 0 q 121 63 121 0 l 121 917 q 183 979 121 979 l 700 979 q 749 932 749 979 q 700 883 749 883 l 232 883 l 232 544 l 671 544 q 719 497 719 544 q 671 449 719 449 l 232 449 l 232 96 l 700 96 q 749 49 749 96 q 700 0 749 0 l 183 0 m 450 1053 q 411 1085 411 1053 q 424 1130 411 1113 q 455 1160 438 1147 q 485 1183 472 1172 q 499 1211 499 1194 q 435 1243 499 1243 q 407 1241 422 1243 q 378 1235 392 1239 q 329 1250 338 1224 q 353 1293 318 1281 q 457 1310 397 1310 q 555 1286 519 1310 q 590 1224 590 1263 q 575 1177 590 1194 q 540 1147 560 1160 q 504 1119 519 1135 q 489 1078 489 1104 q 450 1053 489 1053 z "},"Ȇ":{"ha":810,"x_min":121,"x_max":749,"o":"m 183 0 q 121 63 121 0 l 121 917 q 183 979 121 979 l 700 979 q 749 932 749 979 q 700 883 749 883 l 232 883 l 232 544 l 671 544 q 719 497 719 544 q 671 449 719 449 l 232 449 l 232 96 l 700 96 q 749 49 749 96 q 700 0 749 0 l 183 0 m 250 1054 q 225 1067 235 1056 q 219 1100 215 1079 q 304 1250 240 1201 q 450 1299 368 1299 q 596 1250 532 1299 q 681 1100 660 1201 q 675 1067 685 1079 q 650 1054 665 1056 q 623 1063 633 1053 q 610 1086 613 1072 q 548 1192 593 1161 q 450 1224 503 1224 q 352 1192 397 1224 q 290 1086 307 1161 q 277 1063 288 1072 q 250 1054 267 1053 z "},"Ē":{"ha":810,"x_min":121,"x_max":749,"o":"m 183 0 q 121 63 121 0 l 121 917 q 183 979 121 979 l 700 979 q 749 932 749 979 q 700 883 749 883 l 232 883 l 232 544 l 671 544 q 719 497 719 544 q 671 449 719 449 l 232 449 l 232 96 l 700 96 q 749 49 749 96 q 700 0 749 0 l 183 0 m 261 1131 q 221 1169 221 1131 q 261 1207 221 1207 l 639 1207 q 681 1169 681 1207 q 639 1131 681 1131 l 261 1131 z "},"Ḗ":{"ha":810,"x_min":121,"x_max":749,"o":"m 183 0 q 121 63 121 0 l 121 917 q 183 979 121 979 l 700 979 q 749 932 749 979 q 700 883 749 883 l 232 883 l 232 544 l 671 544 q 719 497 719 544 q 671 449 719 449 l 232 449 l 232 96 l 700 96 q 749 49 749 96 q 700 0 749 0 l 183 0 m 488 1222 q 456 1208 474 1206 q 430 1226 439 1211 q 432 1261 421 1240 l 525 1413 q 558 1439 539 1435 q 594 1433 578 1443 q 616 1406 611 1424 q 606 1369 621 1389 l 488 1222 m 282 1097 q 239 1135 239 1097 q 282 1174 239 1174 l 618 1174 q 661 1135 661 1174 q 618 1097 661 1097 l 282 1097 z "},"Ḕ":{"ha":810,"x_min":121,"x_max":749,"o":"m 183 0 q 121 63 121 0 l 121 917 q 183 979 121 979 l 700 979 q 749 932 749 979 q 700 883 749 883 l 232 883 l 232 544 l 671 544 q 719 497 719 544 q 671 449 719 449 l 232 449 l 232 96 l 700 96 q 749 49 749 96 q 700 0 749 0 l 183 0 m 413 1222 l 294 1369 q 284 1406 279 1389 q 306 1433 289 1424 q 342 1439 322 1443 q 375 1413 361 1435 l 468 1261 q 470 1226 479 1240 q 444 1208 461 1211 q 413 1222 426 1206 m 282 1097 q 239 1135 239 1097 q 282 1174 239 1174 l 618 1174 q 661 1135 661 1174 q 618 1097 661 1097 l 282 1097 z "},"Ę":{"ha":810,"x_min":121,"x_max":769,"o":"m 183 0 q 121 63 121 0 l 121 917 q 183 979 121 979 l 700 979 q 749 932 749 979 q 700 883 749 883 l 232 883 l 232 544 l 671 544 q 719 497 719 544 q 671 449 719 449 l 232 449 l 232 96 l 700 96 q 749 49 749 96 q 700 0 749 0 l 183 0 m 660 -267 q 553 -231 593 -267 q 514 -132 514 -194 q 549 -28 514 -76 q 646 50 585 21 l 686 0 q 624 -45 653 -14 q 594 -119 594 -76 q 617 -178 594 -160 q 675 -197 640 -197 q 724 -189 697 -197 q 759 -196 749 -182 q 765 -228 769 -210 q 742 -254 761 -247 q 700 -265 721 -262 q 660 -267 679 -267 z "},"Ẽ":{"ha":810,"x_min":121,"x_max":749,"o":"m 183 0 q 121 63 121 0 l 121 917 q 183 979 121 979 l 700 979 q 749 932 749 979 q 700 883 749 883 l 232 883 l 232 544 l 671 544 q 719 497 719 544 q 671 449 719 449 l 232 449 l 232 96 l 700 96 q 749 49 749 96 q 700 0 749 0 l 183 0 m 194 1083 q 170 1094 179 1083 q 164 1122 161 1104 q 221 1236 178 1196 q 326 1276 264 1276 q 398 1260 364 1276 q 463 1224 432 1244 q 522 1187 493 1203 q 578 1171 550 1171 q 638 1194 614 1171 q 669 1257 663 1218 q 706 1285 676 1286 q 730 1274 721 1285 q 736 1246 739 1264 q 679 1132 722 1172 q 575 1092 636 1092 q 503 1108 538 1092 q 438 1144 469 1124 q 378 1181 407 1165 q 322 1197 350 1197 q 262 1174 286 1197 q 231 1111 238 1150 q 194 1083 224 1082 z "},"F":{"ha":761,"x_min":121,"x_max":736,"o":"m 182 -10 q 121 53 121 -10 l 121 917 q 183 979 121 979 l 688 979 q 736 932 736 979 q 688 883 736 883 l 235 883 l 235 542 l 658 542 q 708 494 708 542 q 658 446 708 446 l 235 446 l 235 53 q 182 -10 235 -10 z "},"G":{"ha":1008,"x_min":85,"x_max":896,"o":"m 568 -12 q 208 121 332 -12 q 85 489 85 254 q 140 757 85 644 q 300 931 196 869 q 551 992 404 992 q 721 967 639 992 q 867 890 803 943 q 889 856 886 876 q 881 819 892 836 q 852 796 871 801 q 813 804 833 790 q 692 869 756 849 q 550 889 628 889 q 294 784 383 889 q 206 489 206 679 q 297 192 206 294 q 571 89 389 89 q 797 129 689 89 l 797 419 l 599 419 q 549 465 549 419 q 599 510 549 510 l 847 510 q 896 461 896 510 l 896 99 q 865 43 896 56 q 726 3 807 18 q 568 -12 644 -12 z "},"Ğ":{"ha":1008,"x_min":85,"x_max":896,"o":"m 568 -12 q 208 121 332 -12 q 85 489 85 254 q 140 757 85 644 q 300 931 196 869 q 551 992 404 992 q 721 967 639 992 q 867 890 803 943 q 889 856 886 876 q 881 819 892 836 q 852 796 871 801 q 813 804 833 790 q 692 869 756 849 q 550 889 628 889 q 294 784 383 889 q 206 489 206 679 q 297 192 206 294 q 571 89 389 89 q 797 129 689 89 l 797 419 l 599 419 q 549 465 549 419 q 599 510 549 510 l 847 510 q 896 461 896 510 l 896 99 q 865 43 896 56 q 726 3 807 18 q 568 -12 644 -12 m 543 1056 q 397 1104 461 1056 q 313 1256 333 1153 q 318 1288 308 1275 q 343 1300 328 1300 q 370 1292 360 1301 q 383 1269 381 1283 q 444 1162 399 1193 q 543 1131 490 1131 q 642 1162 596 1131 q 703 1269 688 1193 q 716 1292 706 1283 q 743 1300 726 1301 q 768 1288 758 1300 q 774 1256 778 1275 q 689 1104 753 1153 q 543 1056 625 1056 z "},"Ǧ":{"ha":1008,"x_min":85,"x_max":896,"o":"m 568 -12 q 208 121 332 -12 q 85 489 85 254 q 140 757 85 644 q 300 931 196 869 q 551 992 404 992 q 721 967 639 992 q 867 890 803 943 q 889 856 886 876 q 881 819 892 836 q 852 796 871 801 q 813 804 833 790 q 692 869 756 849 q 550 889 628 889 q 294 784 383 889 q 206 489 206 679 q 297 192 206 294 q 571 89 389 89 q 797 129 689 89 l 797 419 l 599 419 q 549 465 549 419 q 599 510 549 510 l 847 510 q 896 461 896 510 l 896 99 q 865 43 896 56 q 726 3 807 18 q 568 -12 644 -12 m 543 1050 q 472 1088 499 1050 l 350 1260 q 345 1294 336 1279 q 374 1312 354 1310 q 410 1296 393 1314 l 543 1136 l 678 1296 q 713 1312 693 1314 q 741 1294 732 1310 q 736 1260 750 1279 l 615 1088 q 543 1050 589 1050 z "},"Ĝ":{"ha":1008,"x_min":85,"x_max":896,"o":"m 568 -12 q 208 121 332 -12 q 85 489 85 254 q 140 757 85 644 q 300 931 196 869 q 551 992 404 992 q 721 967 639 992 q 867 890 803 943 q 889 856 886 876 q 881 819 892 836 q 852 796 871 801 q 813 804 833 790 q 692 869 756 849 q 550 889 628 889 q 294 784 383 889 q 206 489 206 679 q 297 192 206 294 q 571 89 389 89 q 797 129 689 89 l 797 419 l 599 419 q 549 465 549 419 q 599 510 549 510 l 847 510 q 896 461 896 510 l 896 99 q 865 43 896 56 q 726 3 807 18 q 568 -12 644 -12 m 410 1067 q 374 1051 393 1049 q 345 1069 354 1054 q 350 1104 336 1085 l 472 1275 q 543 1314 499 1314 q 615 1275 588 1314 l 736 1104 q 741 1069 750 1085 q 713 1051 732 1054 q 678 1067 693 1049 l 543 1228 l 410 1067 z "},"Ģ":{"ha":1008,"x_min":85,"x_max":896,"o":"m 568 -12 q 208 121 332 -12 q 85 489 85 254 q 140 757 85 644 q 300 931 196 869 q 551 992 404 992 q 721 967 639 992 q 867 890 803 943 q 889 856 886 876 q 881 819 892 836 q 852 796 871 801 q 813 804 833 790 q 692 869 756 849 q 550 889 628 889 q 294 784 383 889 q 206 489 206 679 q 297 192 206 294 q 571 89 389 89 q 797 129 689 89 l 797 419 l 599 419 q 549 465 549 419 q 599 510 549 510 l 847 510 q 896 461 896 510 l 896 99 q 865 43 896 56 q 726 3 807 18 q 568 -12 644 -12 m 572 -347 q 538 -365 556 -367 q 514 -347 521 -362 q 522 -308 507 -332 q 540 -273 533 -292 q 550 -237 547 -254 q 499 -218 518 -236 q 481 -171 481 -200 q 499 -122 481 -140 q 551 -104 518 -104 q 624 -185 624 -104 q 611 -269 624 -225 q 572 -347 599 -314 z "},"Ġ":{"ha":1008,"x_min":85,"x_max":896,"o":"m 568 -12 q 208 121 332 -12 q 85 489 85 254 q 140 757 85 644 q 300 931 196 869 q 551 992 404 992 q 721 967 639 992 q 867 890 803 943 q 889 856 886 876 q 881 819 892 836 q 852 796 871 801 q 813 804 833 790 q 692 869 756 849 q 550 889 628 889 q 294 784 383 889 q 206 489 206 679 q 297 192 206 294 q 571 89 389 89 q 797 129 689 89 l 797 419 l 599 419 q 549 465 549 419 q 599 510 549 510 l 847 510 q 896 461 896 510 l 896 99 q 865 43 896 56 q 726 3 807 18 q 568 -12 644 -12 m 543 1115 q 475 1182 475 1115 q 543 1247 475 1247 q 611 1182 611 1247 q 543 1115 611 1115 z "},"Ḡ":{"ha":1008,"x_min":85,"x_max":896,"o":"m 568 -12 q 208 121 332 -12 q 85 489 85 254 q 140 757 85 644 q 300 931 196 869 q 551 992 404 992 q 721 967 639 992 q 867 890 803 943 q 889 856 886 876 q 881 819 892 836 q 852 796 871 801 q 813 804 833 790 q 692 869 756 849 q 550 889 628 889 q 294 784 383 889 q 206 489 206 679 q 297 192 206 294 q 571 89 389 89 q 797 129 689 89 l 797 419 l 599 419 q 549 465 549 419 q 599 510 549 510 l 847 510 q 896 461 896 510 l 896 99 q 865 43 896 56 q 726 3 807 18 q 568 -12 644 -12 m 354 1131 q 314 1169 314 1131 q 354 1207 314 1207 l 732 1207 q 774 1169 774 1207 q 732 1131 774 1131 l 354 1131 z "},"H":{"ha":1057,"x_min":121,"x_max":936,"o":"m 178 -10 q 121 50 121 -10 l 121 929 q 178 989 121 989 q 235 929 235 989 l 235 546 l 822 546 l 822 929 q 879 989 822 989 q 936 929 936 989 l 936 50 q 879 -10 936 -10 q 822 50 822 -10 l 822 447 l 235 447 l 235 50 q 178 -10 235 -10 z "},"Ħ":{"ha":1108,"x_min":11,"x_max":1099,"o":"m 204 -10 q 146 50 146 -10 l 146 721 l 58 721 q 11 767 11 721 q 58 811 11 811 l 146 811 l 146 929 q 204 989 146 989 q 261 929 261 989 l 261 811 l 847 811 l 847 929 q 906 989 847 989 q 963 929 963 989 l 963 811 l 1050 811 q 1099 767 1099 811 q 1050 721 1099 721 l 963 721 l 963 50 q 906 -10 963 -10 q 847 50 847 -10 l 847 440 l 261 440 l 261 50 q 204 -10 261 -10 m 261 539 l 847 539 l 847 721 l 261 721 l 261 539 z "},"Ḫ":{"ha":1057,"x_min":121,"x_max":936,"o":"m 178 -10 q 121 50 121 -10 l 121 929 q 178 989 121 989 q 235 929 235 989 l 235 546 l 822 546 l 822 929 q 879 989 822 989 q 936 929 936 989 l 936 50 q 879 -10 936 -10 q 822 50 822 -10 l 822 447 l 235 447 l 235 50 q 178 -10 235 -10 m 529 -299 q 390 -253 444 -299 q 319 -125 335 -207 q 323 -91 314 -103 q 349 -78 332 -79 q 389 -110 381 -74 q 437 -194 400 -164 q 529 -224 474 -224 q 622 -194 585 -224 q 669 -110 658 -164 q 710 -78 678 -74 q 735 -91 726 -79 q 739 -125 744 -103 q 669 -253 724 -207 q 529 -299 614 -299 z "},"Ĥ":{"ha":1057,"x_min":121,"x_max":936,"o":"m 178 -10 q 121 50 121 -10 l 121 929 q 178 989 121 989 q 235 929 235 989 l 235 546 l 822 546 l 822 929 q 879 989 822 989 q 936 929 936 989 l 936 50 q 879 -10 936 -10 q 822 50 822 -10 l 822 447 l 235 447 l 235 50 q 178 -10 235 -10 m 394 1067 q 358 1051 378 1049 q 330 1069 339 1054 q 335 1104 321 1085 l 457 1275 q 528 1314 483 1314 q 600 1275 572 1314 l 721 1104 q 726 1069 735 1085 q 697 1051 717 1054 q 663 1067 678 1049 l 528 1228 l 394 1067 z "},"Ḥ":{"ha":1057,"x_min":121,"x_max":936,"o":"m 178 -10 q 121 50 121 -10 l 121 929 q 178 989 121 989 q 235 929 235 989 l 235 546 l 822 546 l 822 929 q 879 989 822 989 q 936 929 936 989 l 936 50 q 879 -10 936 -10 q 822 50 822 -10 l 822 447 l 235 447 l 235 50 q 178 -10 235 -10 m 529 -265 q 461 -199 461 -265 q 529 -133 461 -133 q 599 -199 599 -133 q 529 -265 599 -265 z "},"I":{"ha":357,"x_min":121,"x_max":235,"o":"m 178 -10 q 121 50 121 -10 l 121 929 q 178 989 121 989 q 235 929 235 989 l 235 50 q 178 -10 235 -10 z "},"Ĳ":{"ha":806,"x_min":121,"x_max":686,"o":"m 178 -10 q 121 50 121 -10 l 121 929 q 178 989 121 989 q 235 929 235 989 l 235 50 q 178 -10 235 -10 m 396 -8 q 355 6 369 -10 q 340 43 340 21 q 351 73 340 60 q 383 89 361 86 l 426 92 q 535 141 497 97 q 572 261 572 185 l 572 931 q 629 989 572 989 q 686 931 686 989 l 686 260 q 624 72 686 139 q 442 -4 561 4 l 396 -8 z "},"Í":{"ha":357,"x_min":121,"x_max":388,"o":"m 178 -10 q 121 50 121 -10 l 121 929 q 178 989 121 989 q 235 929 235 989 l 235 50 q 178 -10 235 -10 m 226 1068 q 192 1055 211 1051 q 164 1074 174 1058 q 167 1110 154 1090 l 290 1289 q 326 1313 306 1311 q 362 1304 346 1315 q 383 1275 378 1293 q 371 1239 388 1257 l 226 1068 z "},"Ĭ":{"ha":357,"x_min":-57,"x_max":413,"o":"m 178 -10 q 121 50 121 -10 l 121 929 q 178 989 121 989 q 235 929 235 989 l 235 50 q 178 -10 235 -10 m 178 1056 q 32 1104 96 1056 q -53 1256 -32 1153 q -47 1288 -57 1275 q -22 1300 -37 1300 q 5 1292 -6 1301 q 18 1269 15 1283 q 79 1162 33 1193 q 178 1131 125 1131 q 276 1162 231 1131 q 338 1269 322 1193 q 351 1292 340 1283 q 378 1300 361 1301 q 403 1288 393 1300 q 408 1256 413 1275 q 324 1104 388 1153 q 178 1056 260 1056 z "},"Î":{"ha":357,"x_min":-29,"x_max":385,"o":"m 178 -10 q 121 50 121 -10 l 121 929 q 178 989 121 989 q 235 929 235 989 l 235 50 q 178 -10 235 -10 m 44 1067 q 8 1051 28 1049 q -20 1069 -11 1054 q -15 1104 -29 1085 l 107 1275 q 178 1314 133 1314 q 250 1275 222 1314 l 371 1104 q 376 1069 385 1085 q 347 1051 367 1054 q 313 1067 328 1049 l 178 1228 l 44 1067 z "},"Ȉ":{"ha":357,"x_min":-85,"x_max":292,"o":"m 178 -10 q 121 50 121 -10 l 121 929 q 178 989 121 989 q 235 929 235 989 l 235 50 q 178 -10 235 -10 m 54 1067 l -69 1243 q -79 1281 -85 1264 q -58 1308 -74 1299 q -23 1313 -42 1317 q 7 1285 -4 1308 l 104 1097 q 106 1066 114 1079 q 82 1051 97 1053 q 54 1067 67 1050 m 228 1068 l 110 1243 q 100 1281 94 1264 q 122 1308 106 1299 q 158 1312 139 1317 q 188 1285 176 1307 l 283 1096 q 283 1065 292 1078 q 257 1052 274 1053 q 228 1068 240 1051 z "},"Ï":{"ha":357,"x_min":-8,"x_max":364,"o":"m 178 -10 q 121 50 121 -10 l 121 929 q 178 989 121 989 q 235 929 235 989 l 235 50 q 178 -10 235 -10 m 300 1114 q 233 1179 233 1114 q 300 1243 233 1243 q 364 1179 364 1243 q 300 1114 364 1114 m 57 1114 q -8 1179 -8 1114 q 57 1243 -8 1243 q 122 1179 122 1243 q 57 1114 122 1114 z "},"Ḯ":{"ha":357,"x_min":-8,"x_max":364,"o":"m 178 -10 q 121 50 121 -10 l 121 929 q 178 989 121 989 q 235 929 235 989 l 235 50 q 178 -10 235 -10 m 214 1222 q 184 1208 201 1206 q 158 1226 167 1211 q 160 1261 149 1240 l 253 1413 q 287 1438 267 1435 q 323 1432 307 1442 q 344 1405 339 1422 q 333 1368 349 1388 l 214 1222 m 57 1065 q -8 1121 -8 1065 q 57 1176 -8 1176 q 122 1121 122 1176 q 57 1065 122 1065 m 300 1065 q 233 1121 233 1065 q 300 1176 233 1176 q 364 1121 364 1176 q 300 1065 364 1065 z "},"İ":{"ha":357,"x_min":110,"x_max":246,"o":"m 178 -10 q 121 50 121 -10 l 121 929 q 178 989 121 989 q 235 929 235 989 l 235 50 q 178 -10 235 -10 m 178 1115 q 110 1182 110 1115 q 178 1247 110 1247 q 246 1182 246 1247 q 178 1115 246 1115 z "},"Ị":{"ha":357,"x_min":110,"x_max":247,"o":"m 178 -10 q 121 50 121 -10 l 121 929 q 178 989 121 989 q 235 929 235 989 l 235 50 q 178 -10 235 -10 m 178 -265 q 110 -199 110 -265 q 178 -133 110 -133 q 247 -199 247 -133 q 178 -265 247 -265 z "},"Ì":{"ha":357,"x_min":-31,"x_max":235,"o":"m 178 -10 q 121 50 121 -10 l 121 929 q 178 989 121 989 q 235 929 235 989 l 235 50 q 178 -10 235 -10 m 129 1068 l -15 1239 q -26 1275 -31 1257 q -6 1304 -22 1293 q 30 1313 10 1315 q 65 1289 50 1311 l 189 1110 q 193 1074 203 1090 q 165 1055 183 1058 q 129 1068 146 1051 z "},"Ỉ":{"ha":357,"x_min":46,"x_max":318,"o":"m 178 -10 q 121 50 121 -10 l 121 929 q 178 989 121 989 q 235 929 235 989 l 235 50 q 178 -10 235 -10 m 178 1053 q 139 1085 139 1053 q 152 1130 139 1113 q 183 1160 165 1147 q 213 1183 200 1172 q 226 1211 226 1194 q 163 1243 226 1243 q 135 1241 150 1243 q 106 1235 119 1239 q 57 1250 65 1224 q 81 1293 46 1281 q 185 1310 125 1310 q 283 1286 247 1310 q 318 1224 318 1263 q 303 1177 318 1194 q 267 1147 288 1160 q 232 1119 247 1135 q 217 1078 217 1104 q 178 1053 217 1053 z "},"Ȋ":{"ha":357,"x_min":-57,"x_max":413,"o":"m 178 -10 q 121 50 121 -10 l 121 929 q 178 989 121 989 q 235 929 235 989 l 235 50 q 178 -10 235 -10 m -22 1054 q -47 1067 -37 1056 q -53 1100 -57 1079 q 32 1250 -32 1201 q 178 1299 96 1299 q 324 1250 260 1299 q 408 1100 388 1201 q 403 1067 413 1079 q 378 1054 393 1056 q 351 1063 361 1053 q 338 1086 340 1072 q 276 1192 321 1161 q 178 1224 231 1224 q 80 1192 125 1224 q 18 1086 35 1161 q 5 1063 15 1072 q -22 1054 -6 1053 z "},"Ī":{"ha":357,"x_min":-51,"x_max":408,"o":"m 178 -10 q 121 50 121 -10 l 121 929 q 178 989 121 989 q 235 929 235 989 l 235 50 q 178 -10 235 -10 m -11 1131 q -51 1169 -51 1131 q -11 1207 -51 1207 l 367 1207 q 408 1169 408 1207 q 367 1131 408 1131 l -11 1131 z "},"Į":{"ha":357,"x_min":46,"x_max":301,"o":"m 192 -267 q 85 -231 125 -267 q 46 -132 46 -194 q 128 19 46 -43 q 121 50 121 32 l 121 929 q 178 989 121 989 q 235 929 235 989 l 235 50 q 208 -4 235 10 q 151 -51 176 -21 q 125 -119 125 -81 q 149 -178 125 -160 q 207 -197 172 -197 q 254 -189 229 -197 q 291 -196 281 -182 q 297 -228 301 -210 q 274 -254 293 -247 q 232 -265 253 -262 q 192 -267 211 -267 z "},"Ĩ":{"ha":357,"x_min":-111,"x_max":467,"o":"m 178 -10 q 121 50 121 -10 l 121 929 q 178 989 121 989 q 235 929 235 989 l 235 50 q 178 -10 235 -10 m -78 1083 q -102 1094 -93 1083 q -108 1122 -111 1104 q -51 1236 -94 1196 q 54 1276 -8 1276 q 126 1260 92 1276 q 190 1224 160 1244 q 249 1187 221 1203 q 306 1171 278 1171 q 366 1194 342 1171 q 397 1257 390 1218 q 433 1285 404 1286 q 458 1274 449 1285 q 464 1246 467 1264 q 407 1132 450 1172 q 303 1092 364 1092 q 231 1108 265 1092 q 166 1144 197 1124 q 106 1181 135 1165 q 50 1197 78 1197 q -10 1174 14 1197 q -42 1111 -35 1150 q -78 1083 -49 1082 z "},"J":{"ha":450,"x_min":-17,"x_max":329,"o":"m 39 -8 q -2 6 13 -10 q -17 43 -17 21 q -6 73 -17 60 q 26 89 4 86 l 69 92 q 178 141 140 97 q 215 261 215 185 l 215 931 q 272 989 215 989 q 329 931 329 989 l 329 260 q 267 72 329 139 q 85 -4 204 4 l 39 -8 z "},"Ĵ":{"ha":450,"x_min":-17,"x_max":479,"o":"m 39 -8 q -2 6 13 -10 q -17 43 -17 21 q -6 73 -17 60 q 26 89 4 86 l 69 92 q 178 141 140 97 q 215 261 215 185 l 215 931 q 272 989 215 989 q 329 931 329 989 l 329 260 q 267 72 329 139 q 85 -4 204 4 l 39 -8 m 139 1067 q 103 1051 122 1049 q 74 1069 83 1054 q 79 1104 65 1085 l 201 1275 q 272 1314 228 1314 q 344 1275 317 1314 l 465 1104 q 470 1069 479 1085 q 442 1051 461 1054 q 407 1067 422 1049 l 272 1228 l 139 1067 z "},"K":{"ha":868,"x_min":121,"x_max":840,"o":"m 178 -10 q 121 50 121 -10 l 121 931 q 178 989 121 989 q 235 931 235 989 l 235 535 l 238 535 l 690 957 q 760 989 724 989 q 805 962 797 989 q 788 911 813 935 l 347 504 l 810 76 q 829 19 840 47 q 781 -10 818 -10 q 745 -1 760 -10 q 713 26 731 8 l 238 461 l 235 461 l 235 50 q 178 -10 235 -10 z "},"Ķ":{"ha":868,"x_min":121,"x_max":840,"o":"m 178 -10 q 121 50 121 -10 l 121 931 q 178 989 121 989 q 235 931 235 989 l 235 535 l 238 535 l 690 957 q 760 989 724 989 q 805 962 797 989 q 788 911 813 935 l 347 504 l 810 76 q 829 19 840 47 q 781 -10 818 -10 q 745 -1 760 -10 q 713 26 731 8 l 238 461 l 235 461 l 235 50 q 178 -10 235 -10 m 458 -347 q 424 -365 442 -367 q 400 -347 407 -362 q 408 -308 393 -332 q 426 -273 419 -292 q 436 -237 433 -254 q 385 -218 404 -236 q 367 -171 367 -200 q 385 -122 367 -140 q 438 -104 404 -104 q 510 -185 510 -104 q 497 -269 510 -225 q 458 -347 485 -314 z "},"L":{"ha":754,"x_min":121,"x_max":743,"o":"m 179 0 q 121 60 121 0 l 121 926 q 178 986 121 986 q 235 926 235 986 l 235 100 l 690 100 q 743 50 743 100 q 690 0 743 0 l 179 0 z "},"Ǉ":{"ha":1260,"x_min":121,"x_max":1139,"o":"m 179 0 q 121 60 121 0 l 121 926 q 178 986 121 986 q 235 926 235 986 l 235 100 l 690 100 q 743 50 743 100 q 690 0 743 0 l 179 0 m 849 -8 q 808 6 822 -10 q 793 43 793 21 q 803 73 793 60 q 836 89 814 86 l 879 92 q 988 141 950 97 q 1025 261 1025 185 l 1025 931 q 1082 989 1025 989 q 1139 931 1139 989 l 1139 260 q 1076 72 1139 139 q 894 -4 1014 4 l 849 -8 z "},"Ĺ":{"ha":754,"x_min":121,"x_max":743,"o":"m 179 0 q 121 60 121 0 l 121 926 q 178 986 121 986 q 235 926 235 986 l 235 100 l 690 100 q 743 50 743 100 q 690 0 743 0 l 179 0 m 226 1068 q 192 1055 211 1051 q 164 1074 174 1058 q 167 1110 154 1090 l 290 1289 q 326 1313 306 1311 q 362 1304 346 1315 q 383 1275 378 1293 q 371 1239 388 1257 l 226 1068 z "},"Ľ":{"ha":754,"x_min":121,"x_max":743,"o":"m 179 0 q 121 60 121 0 l 121 926 q 178 986 121 986 q 235 926 235 986 l 235 100 l 690 100 q 743 50 743 100 q 690 0 743 0 l 179 0 m 429 660 q 394 697 394 660 l 394 939 q 444 989 394 989 q 490 936 494 989 l 468 694 q 429 660 464 660 z "},"Ļ":{"ha":754,"x_min":121,"x_max":743,"o":"m 179 0 q 121 60 121 0 l 121 926 q 178 986 121 986 q 235 926 235 986 l 235 100 l 690 100 q 743 50 743 100 q 690 0 743 0 l 179 0 m 446 -347 q 412 -365 429 -367 q 388 -347 394 -362 q 396 -308 381 -332 q 414 -273 407 -292 q 424 -237 421 -254 q 373 -218 392 -236 q 354 -171 354 -200 q 373 -122 354 -140 q 425 -104 392 -104 q 497 -185 497 -104 q 485 -269 497 -225 q 446 -347 472 -314 z "},"Ŀ":{"ha":754,"x_min":121,"x_max":743,"o":"m 179 0 q 121 60 121 0 l 121 926 q 178 986 121 986 q 235 926 235 986 l 235 100 l 690 100 q 743 50 743 100 q 690 0 743 0 l 179 0 m 560 465 q 504 487 525 465 q 483 542 483 508 q 504 596 483 575 q 560 617 525 617 q 615 596 594 617 q 636 542 636 575 q 615 487 636 508 q 560 465 594 465 z "},"Ḷ":{"ha":754,"x_min":121,"x_max":743,"o":"m 179 0 q 121 60 121 0 l 121 926 q 178 986 121 986 q 235 926 235 986 l 235 100 l 690 100 q 743 50 743 100 q 690 0 743 0 l 179 0 m 426 -265 q 358 -199 358 -265 q 426 -133 358 -133 q 496 -199 496 -133 q 426 -265 496 -265 z "},"ǈ":{"ha":1082,"x_min":121,"x_max":994,"o":"m 179 0 q 121 60 121 0 l 121 926 q 178 986 121 986 q 235 926 235 986 l 235 100 l 690 100 q 743 50 743 100 q 690 0 743 0 l 179 0 m 919 838 q 846 907 846 838 q 919 975 846 975 q 994 907 994 975 q 919 838 994 838 m 731 -265 q 683 -246 696 -267 q 678 -202 669 -225 q 714 -178 686 -179 q 827 -137 790 -174 q 864 -21 864 -100 l 864 628 q 921 685 864 685 q 976 628 976 685 l 976 -12 q 913 -200 976 -140 q 731 -265 850 -260 z "},"Ḻ":{"ha":754,"x_min":121,"x_max":743,"o":"m 179 0 q 121 60 121 0 l 121 926 q 178 986 121 986 q 235 926 235 986 l 235 100 l 690 100 q 743 50 743 100 q 690 0 743 0 l 179 0 m 258 -217 q 218 -179 218 -217 q 258 -140 218 -140 l 594 -140 q 636 -179 636 -140 q 594 -217 636 -217 l 258 -217 z "},"Ł":{"ha":754,"x_min":-32,"x_max":743,"o":"m 179 0 q 121 60 121 0 l 121 926 q 178 986 121 986 q 235 926 235 986 l 235 100 l 690 100 q 743 50 743 100 q 690 0 743 0 l 179 0 m 44 372 q 4 365 22 360 q -23 386 -14 371 q -27 420 -32 401 q 0 453 -22 439 l 436 703 q 476 710 458 717 q 503 688 494 704 q 508 654 513 672 q 481 622 504 636 l 44 372 z "},"M":{"ha":1188,"x_min":124,"x_max":1065,"o":"m 176 -10 q 124 46 124 -10 l 124 933 q 176 989 124 989 q 212 980 199 989 q 236 950 225 971 l 596 272 l 954 950 q 978 980 965 971 q 1014 989 990 989 q 1065 933 1065 989 l 1065 46 q 1013 -10 1065 -10 q 960 46 960 -10 l 960 765 l 646 175 q 626 149 636 157 q 596 142 615 142 q 565 150 576 142 q 546 175 554 158 l 228 764 l 228 46 q 176 -10 228 -10 z "},"Ṃ":{"ha":1188,"x_min":124,"x_max":1065,"o":"m 176 -10 q 124 46 124 -10 l 124 933 q 176 989 124 989 q 212 980 199 989 q 236 950 225 971 l 596 272 l 954 950 q 978 980 965 971 q 1014 989 990 989 q 1065 933 1065 989 l 1065 46 q 1013 -10 1065 -10 q 960 46 960 -10 l 960 765 l 646 175 q 626 149 636 157 q 596 142 615 142 q 565 150 576 142 q 546 175 554 158 l 228 764 l 228 46 q 176 -10 228 -10 m 594 -265 q 526 -199 526 -265 q 594 -133 526 -133 q 664 -199 664 -133 q 594 -265 664 -265 z "},"N":{"ha":1028,"x_min":121,"x_max":906,"o":"m 175 -10 q 121 47 121 -10 l 121 931 q 171 989 121 989 q 203 981 192 989 q 228 954 214 974 l 800 192 l 800 933 q 854 989 800 989 q 906 933 906 989 l 906 46 q 860 -10 906 -10 q 826 -1 839 -10 q 800 25 814 7 l 228 790 l 228 47 q 175 -10 228 -10 z "},"Ǌ":{"ha":1476,"x_min":121,"x_max":1357,"o":"m 175 -10 q 121 47 121 -10 l 121 931 q 171 989 121 989 q 203 981 192 989 q 228 954 214 974 l 800 192 l 800 933 q 854 989 800 989 q 906 933 906 989 l 906 46 q 860 -10 906 -10 q 826 -1 839 -10 q 800 25 814 7 l 228 790 l 228 47 q 175 -10 228 -10 m 1067 -8 q 1026 6 1040 -10 q 1011 43 1011 21 q 1022 73 1011 60 q 1054 89 1032 86 l 1097 92 q 1206 141 1168 97 q 1243 261 1243 185 l 1243 931 q 1300 989 1243 989 q 1357 931 1357 989 l 1357 260 q 1294 72 1357 139 q 1113 -4 1232 4 l 1067 -8 z "},"Ń":{"ha":1028,"x_min":121,"x_max":906,"o":"m 175 -10 q 121 47 121 -10 l 121 931 q 171 989 121 989 q 203 981 192 989 q 228 954 214 974 l 800 192 l 800 933 q 854 989 800 989 q 906 933 906 989 l 906 46 q 860 -10 906 -10 q 826 -1 839 -10 q 800 25 814 7 l 228 790 l 228 47 q 175 -10 228 -10 m 563 1068 q 528 1055 547 1051 q 500 1074 510 1058 q 503 1110 490 1090 l 626 1289 q 662 1313 642 1311 q 698 1304 682 1315 q 719 1275 714 1293 q 707 1239 724 1257 l 563 1068 z "},"Ň":{"ha":1028,"x_min":121,"x_max":906,"o":"m 175 -10 q 121 47 121 -10 l 121 931 q 171 989 121 989 q 203 981 192 989 q 228 954 214 974 l 800 192 l 800 933 q 854 989 800 989 q 906 933 906 989 l 906 46 q 860 -10 906 -10 q 826 -1 839 -10 q 800 25 814 7 l 228 790 l 228 47 q 175 -10 228 -10 m 514 1050 q 443 1088 469 1050 l 321 1260 q 316 1294 307 1279 q 344 1312 325 1310 q 381 1296 364 1314 l 514 1136 l 649 1296 q 683 1312 664 1314 q 712 1294 703 1310 q 707 1260 721 1279 l 586 1088 q 514 1050 560 1050 z "},"Ņ":{"ha":1028,"x_min":121,"x_max":906,"o":"m 175 -10 q 121 47 121 -10 l 121 931 q 171 989 121 989 q 203 981 192 989 q 228 954 214 974 l 800 192 l 800 933 q 854 989 800 989 q 906 933 906 989 l 906 46 q 860 -10 906 -10 q 826 -1 839 -10 q 800 25 814 7 l 228 790 l 228 47 q 175 -10 228 -10 m 533 -347 q 499 -365 517 -367 q 475 -347 482 -362 q 483 -308 468 -332 q 501 -273 494 -292 q 511 -237 508 -254 q 460 -218 479 -236 q 442 -171 442 -200 q 460 -122 442 -140 q 513 -104 479 -104 q 585 -185 585 -104 q 572 -269 585 -225 q 533 -347 560 -314 z "},"Ṅ":{"ha":1028,"x_min":121,"x_max":906,"o":"m 175 -10 q 121 47 121 -10 l 121 931 q 171 989 121 989 q 203 981 192 989 q 228 954 214 974 l 800 192 l 800 933 q 854 989 800 989 q 906 933 906 989 l 906 46 q 860 -10 906 -10 q 826 -1 839 -10 q 800 25 814 7 l 228 790 l 228 47 q 175 -10 228 -10 m 514 1115 q 446 1182 446 1115 q 514 1247 446 1247 q 582 1182 582 1247 q 514 1115 582 1115 z "},"Ṇ":{"ha":1028,"x_min":121,"x_max":906,"o":"m 175 -10 q 121 47 121 -10 l 121 931 q 171 989 121 989 q 203 981 192 989 q 228 954 214 974 l 800 192 l 800 933 q 854 989 800 989 q 906 933 906 989 l 906 46 q 860 -10 906 -10 q 826 -1 839 -10 q 800 25 814 7 l 228 790 l 228 47 q 175 -10 228 -10 m 514 -265 q 446 -199 446 -265 q 514 -133 446 -133 q 583 -199 583 -133 q 514 -265 583 -265 z "},"Ŋ":{"ha":1028,"x_min":121,"x_max":906,"o":"m 660 -265 q 611 -245 624 -267 q 608 -201 599 -224 q 644 -178 617 -179 q 760 -137 721 -172 q 800 -21 800 -101 l 800 26 l 228 790 l 228 47 q 175 -10 228 -10 q 121 47 121 -10 l 121 931 q 171 989 121 989 q 203 981 192 989 q 228 954 214 974 l 800 192 l 800 933 q 854 989 800 989 q 906 933 906 989 l 906 -10 q 842 -201 906 -142 q 660 -265 778 -260 z "},"ǋ":{"ha":1354,"x_min":121,"x_max":1268,"o":"m 175 -10 q 121 47 121 -10 l 121 931 q 171 989 121 989 q 203 981 192 989 q 228 954 214 974 l 800 192 l 800 933 q 854 989 800 989 q 906 933 906 989 l 906 46 q 860 -10 906 -10 q 826 -1 839 -10 q 800 25 814 7 l 228 790 l 228 47 q 175 -10 228 -10 m 1193 838 q 1119 907 1119 838 q 1193 975 1119 975 q 1268 907 1268 975 q 1193 838 1268 838 m 1004 -265 q 956 -246 969 -267 q 951 -202 943 -225 q 988 -178 960 -179 q 1101 -137 1064 -174 q 1138 -21 1138 -100 l 1138 628 q 1194 685 1138 685 q 1250 628 1250 685 l 1250 -12 q 1187 -200 1250 -140 q 1004 -265 1124 -260 z "},"Ṉ":{"ha":1028,"x_min":121,"x_max":906,"o":"m 175 -10 q 121 47 121 -10 l 121 931 q 171 989 121 989 q 203 981 192 989 q 228 954 214 974 l 800 192 l 800 933 q 854 989 800 989 q 906 933 906 989 l 906 46 q 860 -10 906 -10 q 826 -1 839 -10 q 800 25 814 7 l 228 790 l 228 47 q 175 -10 228 -10 m 346 -217 q 306 -179 306 -217 q 346 -140 306 -140 l 682 -140 q 724 -179 724 -140 q 682 -217 724 -217 l 346 -217 z "},"Ñ":{"ha":1028,"x_min":121,"x_max":906,"o":"m 175 -10 q 121 47 121 -10 l 121 931 q 171 989 121 989 q 203 981 192 989 q 228 954 214 974 l 800 192 l 800 933 q 854 989 800 989 q 906 933 906 989 l 906 46 q 860 -10 906 -10 q 826 -1 839 -10 q 800 25 814 7 l 228 790 l 228 47 q 175 -10 228 -10 m 258 1083 q 234 1094 243 1083 q 228 1122 225 1104 q 285 1236 242 1196 q 390 1276 328 1276 q 462 1260 428 1276 q 526 1224 496 1244 q 585 1187 557 1203 q 642 1171 614 1171 q 702 1194 678 1171 q 733 1257 726 1218 q 769 1285 740 1286 q 794 1274 785 1285 q 800 1246 803 1264 q 743 1132 786 1172 q 639 1092 700 1092 q 567 1108 601 1092 q 502 1144 533 1124 q 442 1181 471 1165 q 386 1197 414 1197 q 326 1174 350 1197 q 294 1111 301 1150 q 258 1083 288 1082 z "},"O":{"ha":1065,"x_min":85,"x_max":982,"o":"m 532 -12 q 295 49 396 -12 q 140 224 194 111 q 85 490 85 336 q 139 757 85 644 q 294 931 193 869 q 532 992 394 992 q 772 931 671 992 q 927 758 872 869 q 982 492 982 646 q 926 224 982 338 q 770 49 871 111 q 532 -12 669 -12 m 532 89 q 775 194 689 89 q 861 490 861 300 q 775 785 861 681 q 532 890 689 890 q 292 785 378 890 q 206 490 206 681 q 292 195 206 301 q 532 89 378 89 z "},"Ó":{"ha":1065,"x_min":85,"x_max":982,"o":"m 532 -12 q 295 49 396 -12 q 140 224 194 111 q 85 490 85 336 q 139 757 85 644 q 294 931 193 869 q 532 992 394 992 q 772 931 671 992 q 927 758 872 869 q 982 492 982 646 q 926 224 982 338 q 770 49 871 111 q 532 -12 669 -12 m 532 89 q 775 194 689 89 q 861 490 861 300 q 775 785 861 681 q 532 890 689 890 q 292 785 378 890 q 206 490 206 681 q 292 195 206 301 q 532 89 378 89 m 581 1068 q 547 1055 565 1051 q 518 1074 528 1058 q 521 1110 508 1090 l 644 1289 q 680 1313 660 1311 q 716 1304 700 1315 q 737 1275 732 1293 q 725 1239 742 1257 l 581 1068 z "},"Ŏ":{"ha":1065,"x_min":85,"x_max":982,"o":"m 532 -12 q 295 49 396 -12 q 140 224 194 111 q 85 490 85 336 q 139 757 85 644 q 294 931 193 869 q 532 992 394 992 q 772 931 671 992 q 927 758 872 869 q 982 492 982 646 q 926 224 982 338 q 770 49 871 111 q 532 -12 669 -12 m 532 89 q 775 194 689 89 q 861 490 861 300 q 775 785 861 681 q 532 890 689 890 q 292 785 378 890 q 206 490 206 681 q 292 195 206 301 q 532 89 378 89 m 532 1056 q 386 1104 450 1056 q 301 1256 322 1153 q 307 1288 297 1275 q 332 1300 317 1300 q 359 1292 349 1301 q 372 1269 369 1283 q 433 1162 388 1193 q 532 1131 479 1131 q 631 1162 585 1131 q 692 1269 676 1193 q 705 1292 694 1283 q 732 1300 715 1301 q 757 1288 747 1300 q 763 1256 767 1275 q 678 1104 742 1153 q 532 1056 614 1056 z "},"Ô":{"ha":1065,"x_min":85,"x_max":982,"o":"m 532 -12 q 295 49 396 -12 q 140 224 194 111 q 85 490 85 336 q 139 757 85 644 q 294 931 193 869 q 532 992 394 992 q 772 931 671 992 q 927 758 872 869 q 982 492 982 646 q 926 224 982 338 q 770 49 871 111 q 532 -12 669 -12 m 532 89 q 775 194 689 89 q 861 490 861 300 q 775 785 861 681 q 532 890 689 890 q 292 785 378 890 q 206 490 206 681 q 292 195 206 301 q 532 89 378 89 m 399 1067 q 363 1051 382 1049 q 334 1069 343 1054 q 339 1104 325 1085 l 461 1275 q 532 1314 488 1314 q 604 1275 576 1314 l 725 1104 q 730 1069 739 1085 q 701 1051 721 1054 q 667 1067 682 1049 l 532 1228 l 399 1067 z "},"Ố":{"ha":1065,"x_min":85,"x_max":982,"o":"m 532 -12 q 295 49 396 -12 q 140 224 194 111 q 85 490 85 336 q 139 757 85 644 q 294 931 193 869 q 532 992 394 992 q 772 931 671 992 q 927 758 872 869 q 982 492 982 646 q 926 224 982 338 q 770 49 871 111 q 532 -12 669 -12 m 532 89 q 775 194 689 89 q 861 490 861 300 q 775 785 861 681 q 532 890 689 890 q 292 785 378 890 q 206 490 206 681 q 292 195 206 301 q 532 89 378 89 m 731 1200 q 702 1187 718 1185 q 678 1203 686 1189 q 681 1238 669 1217 l 776 1403 q 807 1428 789 1425 q 840 1422 825 1432 q 859 1396 854 1413 q 849 1361 864 1379 l 731 1200 m 408 1067 q 375 1051 393 1049 q 349 1068 357 1053 q 354 1103 340 1083 l 463 1263 q 494 1293 476 1285 q 532 1301 511 1301 q 570 1293 553 1301 q 601 1263 588 1285 l 710 1103 q 715 1068 724 1083 q 690 1051 707 1053 q 656 1067 672 1049 l 532 1215 l 408 1067 z "},"Ộ":{"ha":1065,"x_min":85,"x_max":982,"o":"m 532 -12 q 295 49 396 -12 q 140 224 194 111 q 85 490 85 336 q 139 757 85 644 q 294 931 193 869 q 532 992 394 992 q 772 931 671 992 q 927 758 872 869 q 982 492 982 646 q 926 224 982 338 q 770 49 871 111 q 532 -12 669 -12 m 532 89 q 775 194 689 89 q 861 490 861 300 q 775 785 861 681 q 532 890 689 890 q 292 785 378 890 q 206 490 206 681 q 292 195 206 301 q 532 89 378 89 m 532 -265 q 464 -199 464 -265 q 532 -133 464 -133 q 601 -199 601 -133 q 532 -265 601 -265 m 399 1067 q 363 1051 382 1049 q 334 1069 343 1054 q 339 1104 325 1085 l 461 1275 q 532 1314 488 1314 q 604 1275 576 1314 l 725 1104 q 730 1069 739 1085 q 701 1051 721 1054 q 667 1067 682 1049 l 532 1228 l 399 1067 z "},"Ồ":{"ha":1065,"x_min":85,"x_max":982,"o":"m 532 -12 q 295 49 396 -12 q 140 224 194 111 q 85 490 85 336 q 139 757 85 644 q 294 931 193 869 q 532 992 394 992 q 772 931 671 992 q 927 758 872 869 q 982 492 982 646 q 926 224 982 338 q 770 49 871 111 q 532 -12 669 -12 m 532 89 q 775 194 689 89 q 861 490 861 300 q 775 785 861 681 q 532 890 689 890 q 292 785 378 890 q 206 490 206 681 q 292 195 206 301 q 532 89 378 89 m 724 1200 l 604 1361 q 595 1396 590 1379 q 615 1422 600 1413 q 647 1428 629 1432 q 678 1403 665 1425 l 774 1238 q 776 1203 785 1217 q 751 1187 768 1189 q 724 1200 735 1185 m 408 1067 q 375 1051 393 1049 q 349 1068 357 1053 q 354 1103 340 1083 l 463 1263 q 494 1293 476 1285 q 532 1301 511 1301 q 570 1293 553 1301 q 601 1263 588 1285 l 710 1103 q 715 1068 724 1083 q 690 1051 707 1053 q 656 1067 672 1049 l 532 1215 l 408 1067 z "},"Ổ":{"ha":1065,"x_min":85,"x_max":982,"o":"m 532 -12 q 295 49 396 -12 q 140 224 194 111 q 85 490 85 336 q 139 757 85 644 q 294 931 193 869 q 532 992 394 992 q 772 931 671 992 q 927 758 872 869 q 982 492 982 646 q 926 224 982 338 q 770 49 871 111 q 532 -12 669 -12 m 532 89 q 775 194 689 89 q 861 490 861 300 q 775 785 861 681 q 532 890 689 890 q 292 785 378 890 q 206 490 206 681 q 292 195 206 301 q 532 89 378 89 m 725 1201 q 694 1199 708 1193 q 678 1216 681 1204 q 692 1240 675 1228 q 739 1279 722 1260 q 756 1321 756 1299 q 693 1360 756 1360 q 639 1353 668 1360 q 596 1369 604 1344 q 621 1407 588 1397 q 665 1417 642 1414 q 714 1419 689 1419 q 805 1400 772 1419 q 838 1338 838 1381 q 801 1258 838 1293 q 725 1201 765 1224 m 408 1067 q 375 1051 393 1049 q 349 1068 357 1053 q 354 1103 340 1083 l 463 1263 q 494 1293 476 1285 q 532 1301 511 1301 q 570 1293 553 1301 q 601 1263 588 1285 l 710 1103 q 715 1068 724 1083 q 690 1051 707 1053 q 656 1067 672 1049 l 532 1215 l 408 1067 z "},"Ỗ":{"ha":1065,"x_min":85,"x_max":982,"o":"m 532 -12 q 295 49 396 -12 q 140 224 194 111 q 85 490 85 336 q 139 757 85 644 q 294 931 193 869 q 532 992 394 992 q 772 931 671 992 q 927 758 872 869 q 982 492 982 646 q 926 224 982 338 q 770 49 871 111 q 532 -12 669 -12 m 532 89 q 775 194 689 89 q 861 490 861 300 q 775 785 861 681 q 532 890 689 890 q 292 785 378 890 q 206 490 206 681 q 292 195 206 301 q 532 89 378 89 m 344 1278 q 322 1290 331 1279 q 319 1321 314 1301 q 363 1397 331 1371 q 443 1422 396 1422 q 510 1404 481 1422 q 565 1368 539 1386 q 619 1350 592 1350 q 682 1396 669 1350 q 721 1425 692 1426 q 742 1413 735 1424 q 746 1383 750 1403 q 701 1306 733 1332 q 622 1281 668 1281 q 555 1299 585 1281 q 499 1335 525 1317 q 444 1353 472 1353 q 382 1307 396 1353 q 344 1278 374 1276 m 401 1063 q 369 1052 385 1049 q 349 1069 354 1056 q 357 1099 343 1083 l 458 1221 q 493 1248 475 1240 q 532 1256 511 1256 q 571 1248 553 1256 q 606 1221 589 1240 l 707 1099 q 715 1069 721 1083 q 694 1051 710 1056 q 663 1063 679 1047 l 532 1181 l 401 1063 z "},"Ȍ":{"ha":1065,"x_min":85,"x_max":982,"o":"m 532 -12 q 295 49 396 -12 q 140 224 194 111 q 85 490 85 336 q 139 757 85 644 q 294 931 193 869 q 532 992 394 992 q 772 931 671 992 q 927 758 872 869 q 982 492 982 646 q 926 224 982 338 q 770 49 871 111 q 532 -12 669 -12 m 532 89 q 775 194 689 89 q 861 490 861 300 q 775 785 861 681 q 532 890 689 890 q 292 785 378 890 q 206 490 206 681 q 292 195 206 301 q 532 89 378 89 m 408 1067 l 285 1243 q 275 1281 269 1264 q 297 1308 281 1299 q 331 1313 313 1317 q 361 1285 350 1308 l 458 1097 q 460 1066 468 1079 q 436 1051 451 1053 q 408 1067 421 1050 m 582 1068 l 464 1243 q 454 1281 449 1264 q 476 1308 460 1299 q 512 1312 493 1317 q 542 1285 531 1307 l 638 1096 q 637 1065 646 1078 q 611 1052 628 1053 q 582 1068 594 1051 z "},"Ö":{"ha":1065,"x_min":85,"x_max":982,"o":"m 532 -12 q 295 49 396 -12 q 140 224 194 111 q 85 490 85 336 q 139 757 85 644 q 294 931 193 869 q 532 992 394 992 q 772 931 671 992 q 927 758 872 869 q 982 492 982 646 q 926 224 982 338 q 770 49 871 111 q 532 -12 669 -12 m 532 89 q 775 194 689 89 q 861 490 861 300 q 775 785 861 681 q 532 890 689 890 q 292 785 378 890 q 206 490 206 681 q 292 195 206 301 q 532 89 378 89 m 654 1114 q 588 1179 588 1114 q 654 1243 588 1243 q 718 1179 718 1243 q 654 1114 718 1114 m 411 1114 q 346 1179 346 1114 q 411 1243 346 1243 q 476 1179 476 1243 q 411 1114 476 1114 z "},"Ȫ":{"ha":1065,"x_min":85,"x_max":982,"o":"m 532 -12 q 295 49 396 -12 q 140 224 194 111 q 85 490 85 336 q 139 757 85 644 q 294 931 193 869 q 532 992 394 992 q 772 931 671 992 q 927 758 872 869 q 982 492 982 646 q 926 224 982 338 q 770 49 871 111 q 532 -12 669 -12 m 532 89 q 775 194 689 89 q 861 490 861 300 q 775 785 861 681 q 532 890 689 890 q 292 785 378 890 q 206 490 206 681 q 292 195 206 301 q 532 89 378 89 m 364 1286 q 321 1324 321 1286 q 364 1363 321 1363 l 700 1363 q 743 1324 743 1363 q 700 1286 743 1286 l 364 1286 m 411 1103 q 346 1158 346 1103 q 411 1214 346 1214 q 476 1158 476 1214 q 411 1103 476 1103 m 654 1103 q 588 1158 588 1103 q 654 1214 588 1214 q 718 1158 718 1214 q 654 1103 718 1103 z "},"Ȱ":{"ha":1065,"x_min":85,"x_max":982,"o":"m 532 -12 q 295 49 396 -12 q 140 224 194 111 q 85 490 85 336 q 139 757 85 644 q 294 931 193 869 q 532 992 394 992 q 772 931 671 992 q 927 758 872 869 q 982 492 982 646 q 926 224 982 338 q 770 49 871 111 q 532 -12 669 -12 m 532 89 q 775 194 689 89 q 861 490 861 300 q 775 785 861 681 q 532 890 689 890 q 292 785 378 890 q 206 490 206 681 q 292 195 206 301 q 532 89 378 89 m 364 1286 q 321 1324 321 1286 q 364 1363 321 1363 l 700 1363 q 743 1324 743 1363 q 700 1286 743 1286 l 364 1286 m 533 1103 q 468 1158 468 1103 q 533 1214 468 1214 q 599 1158 599 1214 q 533 1103 599 1103 z "},"Ọ":{"ha":1065,"x_min":85,"x_max":982,"o":"m 532 -12 q 295 49 396 -12 q 140 224 194 111 q 85 490 85 336 q 139 757 85 644 q 294 931 193 869 q 532 992 394 992 q 772 931 671 992 q 927 758 872 869 q 982 492 982 646 q 926 224 982 338 q 770 49 871 111 q 532 -12 669 -12 m 532 89 q 775 194 689 89 q 861 490 861 300 q 775 785 861 681 q 532 890 689 890 q 292 785 378 890 q 206 490 206 681 q 292 195 206 301 q 532 89 378 89 m 532 -265 q 464 -199 464 -265 q 532 -133 464 -133 q 601 -199 601 -133 q 532 -265 601 -265 z "},"Ò":{"ha":1065,"x_min":85,"x_max":982,"o":"m 532 -12 q 295 49 396 -12 q 140 224 194 111 q 85 490 85 336 q 139 757 85 644 q 294 931 193 869 q 532 992 394 992 q 772 931 671 992 q 927 758 872 869 q 982 492 982 646 q 926 224 982 338 q 770 49 871 111 q 532 -12 669 -12 m 532 89 q 775 194 689 89 q 861 490 861 300 q 775 785 861 681 q 532 890 689 890 q 292 785 378 890 q 206 490 206 681 q 292 195 206 301 q 532 89 378 89 m 483 1068 l 339 1239 q 328 1275 324 1257 q 348 1304 332 1293 q 384 1313 364 1315 q 419 1289 404 1311 l 543 1110 q 547 1074 557 1090 q 519 1055 538 1058 q 483 1068 500 1051 z "},"Ỏ":{"ha":1065,"x_min":85,"x_max":982,"o":"m 532 -12 q 295 49 396 -12 q 140 224 194 111 q 85 490 85 336 q 139 757 85 644 q 294 931 193 869 q 532 992 394 992 q 772 931 671 992 q 927 758 872 869 q 982 492 982 646 q 926 224 982 338 q 770 49 871 111 q 532 -12 669 -12 m 532 89 q 775 194 689 89 q 861 490 861 300 q 775 785 861 681 q 532 890 689 890 q 292 785 378 890 q 206 490 206 681 q 292 195 206 301 q 532 89 378 89 m 532 1053 q 493 1085 493 1053 q 506 1130 493 1113 q 537 1160 519 1147 q 567 1183 554 1172 q 581 1211 581 1194 q 517 1243 581 1243 q 489 1241 504 1243 q 460 1235 474 1239 q 411 1250 419 1224 q 435 1293 400 1281 q 539 1310 479 1310 q 637 1286 601 1310 q 672 1224 672 1263 q 657 1177 672 1194 q 622 1147 642 1160 q 586 1119 601 1135 q 571 1078 571 1104 q 532 1053 571 1053 z "},"Ơ":{"ha":1065,"x_min":85,"x_max":982,"o":"m 532 -12 q 295 49 396 -12 q 140 224 194 111 q 85 490 85 336 q 139 757 85 644 q 294 931 193 869 q 532 992 394 992 q 772 931 671 992 q 927 758 872 869 q 982 492 982 646 q 926 224 982 338 q 770 49 871 111 q 532 -12 669 -12 m 532 89 q 775 194 689 89 q 861 490 861 300 q 775 785 861 681 q 532 890 689 890 q 292 785 378 890 q 206 490 206 681 q 292 195 206 301 q 532 89 378 89 m 678 910 l 610 985 q 673 981 646 982 q 726 979 700 979 q 846 1016 814 979 q 878 1121 878 1053 q 928 1169 878 1169 q 978 1118 978 1169 q 924 968 978 1026 q 779 910 871 910 l 678 910 z "},"Ớ":{"ha":1065,"x_min":85,"x_max":982,"o":"m 532 -12 q 295 49 396 -12 q 140 224 194 111 q 85 490 85 336 q 139 757 85 644 q 294 931 193 869 q 532 992 394 992 q 772 931 671 992 q 927 758 872 869 q 982 492 982 646 q 926 224 982 338 q 770 49 871 111 q 532 -12 669 -12 m 532 89 q 775 194 689 89 q 861 490 861 300 q 775 785 861 681 q 532 890 689 890 q 292 785 378 890 q 206 490 206 681 q 292 195 206 301 q 532 89 378 89 m 678 910 l 610 985 q 673 981 646 982 q 726 979 700 979 q 846 1016 814 979 q 878 1121 878 1053 q 928 1169 878 1169 q 978 1118 978 1169 q 924 968 978 1026 q 779 910 871 910 l 678 910 m 579 1068 q 545 1055 564 1051 q 517 1074 526 1058 q 519 1110 507 1090 l 643 1289 q 678 1313 658 1311 q 715 1304 699 1315 q 735 1275 731 1293 q 724 1239 740 1257 l 579 1068 z "},"Ợ":{"ha":1065,"x_min":85,"x_max":982,"o":"m 532 -12 q 295 49 396 -12 q 140 224 194 111 q 85 490 85 336 q 139 757 85 644 q 294 931 193 869 q 532 992 394 992 q 772 931 671 992 q 927 758 872 869 q 982 492 982 646 q 926 224 982 338 q 770 49 871 111 q 532 -12 669 -12 m 532 89 q 775 194 689 89 q 861 490 861 300 q 775 785 861 681 q 532 890 689 890 q 292 785 378 890 q 206 490 206 681 q 292 195 206 301 q 532 89 378 89 m 678 910 l 610 985 q 673 981 646 982 q 726 979 700 979 q 846 1016 814 979 q 878 1121 878 1053 q 928 1169 878 1169 q 978 1118 978 1169 q 924 968 978 1026 q 779 910 871 910 l 678 910 m 532 -265 q 464 -199 464 -265 q 532 -133 464 -133 q 601 -199 601 -133 q 532 -265 601 -265 z "},"Ờ":{"ha":1065,"x_min":85,"x_max":982,"o":"m 532 -12 q 295 49 396 -12 q 140 224 194 111 q 85 490 85 336 q 139 757 85 644 q 294 931 193 869 q 532 992 394 992 q 772 931 671 992 q 927 758 872 869 q 982 492 982 646 q 926 224 982 338 q 770 49 871 111 q 532 -12 669 -12 m 532 89 q 775 194 689 89 q 861 490 861 300 q 775 785 861 681 q 532 890 689 890 q 292 785 378 890 q 206 490 206 681 q 292 195 206 301 q 532 89 378 89 m 678 910 l 610 985 q 673 981 646 982 q 726 979 700 979 q 846 1016 814 979 q 878 1121 878 1053 q 928 1169 878 1169 q 978 1118 978 1169 q 924 968 978 1026 q 779 910 871 910 l 678 910 m 482 1068 l 338 1239 q 326 1275 322 1257 q 347 1304 331 1293 q 383 1313 363 1315 q 418 1289 403 1311 l 542 1110 q 546 1074 556 1090 q 517 1055 536 1058 q 482 1068 499 1051 z "},"Ở":{"ha":1065,"x_min":85,"x_max":982,"o":"m 532 -12 q 295 49 396 -12 q 140 224 194 111 q 85 490 85 336 q 139 757 85 644 q 294 931 193 869 q 532 992 394 992 q 772 931 671 992 q 927 758 872 869 q 982 492 982 646 q 926 224 982 338 q 770 49 871 111 q 532 -12 669 -12 m 532 89 q 775 194 689 89 q 861 490 861 300 q 775 785 861 681 q 532 890 689 890 q 292 785 378 890 q 206 490 206 681 q 292 195 206 301 q 532 89 378 89 m 678 910 l 610 985 q 673 981 646 982 q 726 979 700 979 q 846 1016 814 979 q 878 1121 878 1053 q 928 1169 878 1169 q 978 1118 978 1169 q 924 968 978 1026 q 779 910 871 910 l 678 910 m 531 1053 q 492 1085 492 1053 q 505 1130 492 1113 q 535 1160 518 1147 q 566 1183 553 1172 q 579 1211 579 1194 q 515 1243 579 1243 q 488 1241 503 1243 q 458 1235 472 1239 q 410 1250 418 1224 q 433 1293 399 1281 q 538 1310 478 1310 q 635 1286 600 1310 q 671 1224 671 1263 q 656 1177 671 1194 q 620 1147 640 1160 q 585 1119 600 1135 q 569 1078 569 1104 q 531 1053 569 1053 z "},"Ỡ":{"ha":1065,"x_min":85,"x_max":982,"o":"m 532 -12 q 295 49 396 -12 q 140 224 194 111 q 85 490 85 336 q 139 757 85 644 q 294 931 193 869 q 532 992 394 992 q 772 931 671 992 q 927 758 872 869 q 982 492 982 646 q 926 224 982 338 q 770 49 871 111 q 532 -12 669 -12 m 532 89 q 775 194 689 89 q 861 490 861 300 q 775 785 861 681 q 532 890 689 890 q 292 785 378 890 q 206 490 206 681 q 292 195 206 301 q 532 89 378 89 m 678 910 l 610 985 q 673 981 646 982 q 726 979 700 979 q 846 1016 814 979 q 878 1121 878 1053 q 928 1169 878 1169 q 978 1118 978 1169 q 924 968 978 1026 q 779 910 871 910 l 678 910 m 288 1083 q 265 1093 274 1083 q 258 1122 256 1103 q 313 1235 271 1194 q 415 1276 356 1276 q 480 1260 451 1276 q 534 1224 508 1244 q 584 1187 560 1203 q 635 1171 608 1171 q 693 1194 669 1171 q 725 1257 717 1218 q 761 1285 733 1286 q 784 1274 775 1285 q 790 1246 793 1264 q 735 1133 778 1174 q 633 1092 693 1092 q 569 1108 599 1092 q 515 1144 540 1124 q 465 1181 489 1165 q 414 1197 440 1197 q 356 1174 379 1197 q 324 1111 332 1150 q 288 1083 315 1082 z "},"Ő":{"ha":1065,"x_min":85,"x_max":982,"o":"m 532 -12 q 295 49 396 -12 q 140 224 194 111 q 85 490 85 336 q 139 757 85 644 q 294 931 193 869 q 532 992 394 992 q 772 931 671 992 q 927 758 872 869 q 982 492 982 646 q 926 224 982 338 q 770 49 871 111 q 532 -12 669 -12 m 532 89 q 775 194 689 89 q 861 490 861 300 q 775 785 861 681 q 532 890 689 890 q 292 785 378 890 q 206 490 206 681 q 292 195 206 301 q 532 89 378 89 m 656 1067 q 627 1051 643 1050 q 603 1066 611 1053 q 606 1097 594 1079 l 703 1285 q 734 1312 715 1308 q 769 1307 753 1315 q 790 1281 785 1299 q 779 1243 794 1264 l 656 1067 m 482 1068 q 453 1052 469 1051 q 427 1065 436 1053 q 428 1096 418 1078 l 522 1285 q 552 1312 533 1307 q 588 1308 571 1317 q 610 1281 604 1299 q 600 1243 615 1264 l 482 1068 z "},"Ȏ":{"ha":1065,"x_min":85,"x_max":982,"o":"m 532 -12 q 295 49 396 -12 q 140 224 194 111 q 85 490 85 336 q 139 757 85 644 q 294 931 193 869 q 532 992 394 992 q 772 931 671 992 q 927 758 872 869 q 982 492 982 646 q 926 224 982 338 q 770 49 871 111 q 532 -12 669 -12 m 532 89 q 775 194 689 89 q 861 490 861 300 q 775 785 861 681 q 532 890 689 890 q 292 785 378 890 q 206 490 206 681 q 292 195 206 301 q 532 89 378 89 m 332 1054 q 307 1067 317 1056 q 301 1100 297 1079 q 386 1250 322 1201 q 532 1299 450 1299 q 678 1250 614 1299 q 763 1100 742 1201 q 757 1067 767 1079 q 732 1054 747 1056 q 705 1063 715 1053 q 692 1086 694 1072 q 630 1192 675 1161 q 532 1224 585 1224 q 434 1192 479 1224 q 372 1086 389 1161 q 359 1063 369 1072 q 332 1054 349 1053 z "},"Ō":{"ha":1065,"x_min":85,"x_max":982,"o":"m 532 -12 q 295 49 396 -12 q 140 224 194 111 q 85 490 85 336 q 139 757 85 644 q 294 931 193 869 q 532 992 394 992 q 772 931 671 992 q 927 758 872 869 q 982 492 982 646 q 926 224 982 338 q 770 49 871 111 q 532 -12 669 -12 m 532 89 q 775 194 689 89 q 861 490 861 300 q 775 785 861 681 q 532 890 689 890 q 292 785 378 890 q 206 490 206 681 q 292 195 206 301 q 532 89 378 89 m 343 1131 q 303 1169 303 1131 q 343 1207 303 1207 l 721 1207 q 763 1169 763 1207 q 721 1131 763 1131 l 343 1131 z "},"Ṓ":{"ha":1065,"x_min":85,"x_max":982,"o":"m 532 -12 q 295 49 396 -12 q 140 224 194 111 q 85 490 85 336 q 139 757 85 644 q 294 931 193 869 q 532 992 394 992 q 772 931 671 992 q 927 758 872 869 q 982 492 982 646 q 926 224 982 338 q 770 49 871 111 q 532 -12 669 -12 m 532 89 q 775 194 689 89 q 861 490 861 300 q 775 785 861 681 q 532 890 689 890 q 292 785 378 890 q 206 490 206 681 q 292 195 206 301 q 532 89 378 89 m 569 1222 q 538 1208 556 1206 q 512 1226 521 1211 q 514 1261 503 1240 l 607 1413 q 640 1439 621 1435 q 676 1433 660 1443 q 698 1406 693 1424 q 688 1369 703 1389 l 569 1222 m 364 1097 q 321 1135 321 1097 q 364 1174 321 1174 l 700 1174 q 743 1135 743 1174 q 700 1097 743 1097 l 364 1097 z "},"Ṑ":{"ha":1065,"x_min":85,"x_max":982,"o":"m 532 -12 q 295 49 396 -12 q 140 224 194 111 q 85 490 85 336 q 139 757 85 644 q 294 931 193 869 q 532 992 394 992 q 772 931 671 992 q 927 758 872 869 q 982 492 982 646 q 926 224 982 338 q 770 49 871 111 q 532 -12 669 -12 m 532 89 q 775 194 689 89 q 861 490 861 300 q 775 785 861 681 q 532 890 689 890 q 292 785 378 890 q 206 490 206 681 q 292 195 206 301 q 532 89 378 89 m 494 1222 l 376 1369 q 366 1406 361 1389 q 388 1433 371 1424 q 424 1439 404 1443 q 457 1413 443 1435 l 550 1261 q 552 1226 561 1240 q 526 1208 543 1211 q 494 1222 508 1206 m 364 1097 q 321 1135 321 1097 q 364 1174 321 1174 l 700 1174 q 743 1135 743 1174 q 700 1097 743 1097 l 364 1097 z "},"Ǫ":{"ha":1065,"x_min":85,"x_max":982,"o":"m 532 -12 q 295 49 396 -12 q 140 224 194 111 q 85 490 85 336 q 139 757 85 644 q 294 931 193 869 q 532 992 394 992 q 772 931 671 992 q 927 758 872 869 q 982 492 982 646 q 926 224 982 338 q 770 49 871 111 q 532 -12 669 -12 m 532 89 q 775 194 689 89 q 861 490 861 300 q 775 785 861 681 q 532 890 689 890 q 292 785 378 890 q 206 490 206 681 q 292 195 206 301 q 532 89 378 89 m 585 -267 q 478 -231 518 -267 q 439 -132 439 -194 q 474 -28 439 -76 q 571 50 510 21 l 611 0 q 549 -45 578 -14 q 519 -119 519 -76 q 542 -178 519 -160 q 600 -197 565 -197 q 649 -189 622 -197 q 684 -196 674 -182 q 690 -228 694 -210 q 667 -254 686 -247 q 625 -265 646 -262 q 585 -267 604 -267 z "},"Ø":{"ha":1065,"x_min":85,"x_max":982,"o":"m 532 -12 q 295 49 396 -12 q 140 224 194 111 q 85 490 85 336 q 139 757 85 644 q 294 931 193 869 q 532 992 394 992 q 772 931 671 992 q 927 758 872 869 q 982 492 982 646 q 926 224 982 338 q 770 49 871 111 q 532 -12 669 -12 m 532 89 q 775 194 689 89 q 861 490 861 300 q 775 785 861 681 q 532 890 689 890 q 292 785 378 890 q 206 490 206 681 q 292 195 206 301 q 532 89 378 89 m 279 -36 q 250 -59 268 -56 q 216 -53 232 -62 q 194 -26 200 -44 q 201 13 189 -8 l 258 110 l 292 165 l 703 868 l 729 917 l 786 1015 q 816 1038 799 1035 q 849 1031 833 1040 q 871 1006 865 1022 q 864 967 876 989 l 807 869 l 774 814 l 364 111 l 338 64 l 279 -36 z "},"Ǿ":{"ha":1065,"x_min":85,"x_max":982,"o":"m 532 -12 q 295 49 396 -12 q 140 224 194 111 q 85 490 85 336 q 139 757 85 644 q 294 931 193 869 q 532 992 394 992 q 772 931 671 992 q 927 758 872 869 q 982 492 982 646 q 926 224 982 338 q 770 49 871 111 q 532 -12 669 -12 m 532 89 q 775 194 689 89 q 861 490 861 300 q 775 785 861 681 q 532 890 689 890 q 292 785 378 890 q 206 490 206 681 q 292 195 206 301 q 532 89 378 89 m 279 -36 q 250 -59 268 -56 q 216 -53 232 -62 q 194 -26 200 -44 q 201 13 189 -8 l 258 110 l 292 165 l 703 868 l 729 917 l 786 1015 q 816 1038 799 1035 q 849 1031 833 1040 q 871 1006 865 1022 q 864 967 876 989 l 807 869 l 774 814 l 364 111 l 338 64 l 279 -36 m 581 1068 q 547 1055 565 1051 q 518 1074 528 1058 q 521 1110 508 1090 l 644 1289 q 680 1313 660 1311 q 716 1304 700 1315 q 737 1275 732 1293 q 725 1239 742 1257 l 581 1068 z "},"Õ":{"ha":1065,"x_min":85,"x_max":982,"o":"m 532 -12 q 295 49 396 -12 q 140 224 194 111 q 85 490 85 336 q 139 757 85 644 q 294 931 193 869 q 532 992 394 992 q 772 931 671 992 q 927 758 872 869 q 982 492 982 646 q 926 224 982 338 q 770 49 871 111 q 532 -12 669 -12 m 532 89 q 775 194 689 89 q 861 490 861 300 q 775 785 861 681 q 532 890 689 890 q 292 785 378 890 q 206 490 206 681 q 292 195 206 301 q 532 89 378 89 m 276 1083 q 252 1094 261 1083 q 246 1122 243 1104 q 303 1236 260 1196 q 408 1276 346 1276 q 480 1260 446 1276 q 544 1224 514 1244 q 603 1187 575 1203 q 660 1171 632 1171 q 720 1194 696 1171 q 751 1257 744 1218 q 788 1285 758 1286 q 812 1274 803 1285 q 818 1246 821 1264 q 761 1132 804 1172 q 657 1092 718 1092 q 585 1108 619 1092 q 520 1144 551 1124 q 460 1181 489 1165 q 404 1197 432 1197 q 344 1174 368 1197 q 313 1111 319 1150 q 276 1083 306 1082 z "},"Ṍ":{"ha":1065,"x_min":85,"x_max":982,"o":"m 532 -12 q 295 49 396 -12 q 140 224 194 111 q 85 490 85 336 q 139 757 85 644 q 294 931 193 869 q 532 992 394 992 q 772 931 671 992 q 927 758 872 869 q 982 492 982 646 q 926 224 982 338 q 770 49 871 111 q 532 -12 669 -12 m 532 89 q 775 194 689 89 q 861 490 861 300 q 775 785 861 681 q 532 890 689 890 q 292 785 378 890 q 206 490 206 681 q 292 195 206 301 q 532 89 378 89 m 569 1222 q 538 1209 556 1207 q 512 1226 521 1211 q 514 1261 503 1240 l 607 1413 q 640 1438 621 1435 q 676 1432 660 1442 q 697 1404 693 1422 q 686 1367 701 1386 l 569 1222 m 344 1064 q 322 1076 331 1065 q 319 1106 314 1086 q 363 1183 331 1157 q 443 1208 396 1208 q 510 1190 481 1208 q 565 1154 539 1172 q 619 1136 592 1136 q 682 1182 669 1136 q 721 1211 692 1213 q 742 1199 735 1210 q 746 1168 750 1188 q 701 1092 733 1118 q 622 1067 668 1067 q 555 1085 585 1067 q 499 1121 525 1103 q 444 1139 472 1139 q 382 1093 396 1139 q 344 1064 374 1063 z "},"Ṏ":{"ha":1065,"x_min":85,"x_max":982,"o":"m 532 -12 q 295 49 396 -12 q 140 224 194 111 q 85 490 85 336 q 139 757 85 644 q 294 931 193 869 q 532 992 394 992 q 772 931 671 992 q 927 758 872 869 q 982 492 982 646 q 926 224 982 338 q 770 49 871 111 q 532 -12 669 -12 m 532 89 q 775 194 689 89 q 861 490 861 300 q 775 785 861 681 q 532 890 689 890 q 292 785 378 890 q 206 490 206 681 q 292 195 206 301 q 532 89 378 89 m 411 1261 q 346 1317 346 1261 q 411 1372 346 1372 q 476 1317 476 1372 q 411 1261 476 1261 m 654 1261 q 588 1317 588 1261 q 654 1372 588 1372 q 718 1317 718 1372 q 654 1261 718 1261 m 344 1064 q 322 1076 331 1065 q 319 1106 314 1086 q 363 1183 331 1157 q 443 1208 396 1208 q 510 1190 481 1208 q 565 1154 539 1172 q 619 1136 592 1136 q 682 1182 669 1136 q 721 1211 692 1213 q 742 1199 735 1210 q 746 1168 750 1188 q 701 1092 733 1118 q 622 1067 668 1067 q 555 1085 585 1067 q 499 1121 525 1103 q 444 1139 472 1139 q 382 1093 396 1139 q 344 1064 374 1063 z "},"Ȭ":{"ha":1065,"x_min":85,"x_max":982,"o":"m 532 -12 q 295 49 396 -12 q 140 224 194 111 q 85 490 85 336 q 139 757 85 644 q 294 931 193 869 q 532 992 394 992 q 772 931 671 992 q 927 758 872 869 q 982 492 982 646 q 926 224 982 338 q 770 49 871 111 q 532 -12 669 -12 m 532 89 q 775 194 689 89 q 861 490 861 300 q 775 785 861 681 q 532 890 689 890 q 292 785 378 890 q 206 490 206 681 q 292 195 206 301 q 532 89 378 89 m 364 1286 q 321 1324 321 1286 q 364 1363 321 1363 l 700 1363 q 743 1324 743 1363 q 700 1286 743 1286 l 364 1286 m 344 1064 q 322 1076 331 1065 q 319 1106 314 1086 q 363 1183 331 1157 q 443 1208 396 1208 q 510 1190 481 1208 q 565 1154 539 1172 q 619 1136 592 1136 q 682 1182 669 1136 q 721 1211 692 1213 q 742 1199 735 1210 q 746 1168 750 1188 q 701 1092 733 1118 q 622 1067 668 1067 q 555 1085 585 1067 q 499 1121 525 1103 q 444 1139 472 1139 q 382 1093 396 1139 q 344 1064 374 1063 z "},"Œ":{"ha":1453,"x_min":85,"x_max":1393,"o":"m 581 0 q 214 126 343 0 q 85 490 85 253 q 214 853 85 728 q 581 979 343 979 l 1343 979 q 1393 932 1393 979 q 1343 883 1393 883 l 876 883 l 876 544 l 1314 544 q 1364 497 1364 544 q 1314 449 1364 449 l 876 449 l 876 96 l 1343 96 q 1393 49 1393 96 q 1343 0 1393 0 l 581 0 m 589 97 l 765 97 l 765 882 l 589 882 q 206 490 206 882 q 589 97 206 97 z "},"P":{"ha":879,"x_min":121,"x_max":835,"o":"m 178 -10 q 121 50 121 -10 l 121 921 q 179 979 121 979 l 508 979 q 751 903 667 979 q 835 685 835 826 q 751 467 835 544 q 508 390 667 390 l 235 390 l 235 50 q 178 -10 235 -10 m 235 486 l 494 486 q 722 685 722 486 q 494 885 722 885 l 235 885 l 235 486 z "},"Þ":{"ha":881,"x_min":121,"x_max":836,"o":"m 178 -7 q 121 53 121 -7 l 121 926 q 179 986 121 986 q 235 932 235 986 l 235 801 l 510 801 q 751 725 667 801 q 836 508 836 649 q 751 291 836 368 q 510 214 667 214 l 235 214 l 235 53 q 178 -7 235 -7 m 235 308 l 496 308 q 722 508 722 308 q 496 707 722 707 l 235 707 l 235 308 z "},"Q":{"ha":1065,"x_min":85,"x_max":982,"o":"m 871 -185 q 881 -231 888 -210 q 856 -261 875 -251 q 815 -266 838 -271 q 776 -235 792 -261 l 686 -92 q 532 -12 639 -12 l 532 -12 q 295 49 396 -12 q 140 224 194 111 q 85 490 85 336 q 139 757 85 644 q 294 931 193 869 q 532 992 394 992 q 772 931 671 992 q 927 758 872 869 q 982 492 982 646 q 908 190 982 313 q 704 17 833 67 q 757 -16 733 7 q 806 -79 781 -39 l 871 -185 m 532 89 q 775 194 689 89 q 861 490 861 300 q 775 785 861 681 q 532 890 689 890 q 292 785 378 890 q 206 490 206 681 q 292 195 206 301 q 532 89 378 89 z "},"R":{"ha":929,"x_min":121,"x_max":867,"o":"m 178 -10 q 121 50 121 -10 l 121 921 q 179 979 121 979 l 508 979 q 751 906 667 979 q 835 696 835 832 q 776 518 835 588 q 608 428 717 449 q 718 319 672 406 l 851 71 q 857 16 867 42 q 813 -10 847 -10 q 774 1 789 -10 q 747 33 758 11 l 596 314 q 522 394 564 374 q 413 414 481 414 l 235 414 l 235 50 q 178 -10 235 -10 m 235 504 l 492 504 q 722 696 722 504 q 492 885 722 885 l 235 885 l 235 504 z "},"Ŕ":{"ha":929,"x_min":121,"x_max":867,"o":"m 178 -10 q 121 50 121 -10 l 121 921 q 179 979 121 979 l 508 979 q 751 906 667 979 q 835 696 835 832 q 776 518 835 588 q 608 428 717 449 q 718 319 672 406 l 851 71 q 857 16 867 42 q 813 -10 847 -10 q 774 1 789 -10 q 747 33 758 11 l 596 314 q 522 394 564 374 q 413 414 481 414 l 235 414 l 235 50 q 178 -10 235 -10 m 235 504 l 492 504 q 722 696 722 504 q 492 885 722 885 l 235 885 l 235 504 m 522 1068 q 488 1055 507 1051 q 460 1074 469 1058 q 463 1110 450 1090 l 586 1289 q 622 1313 601 1311 q 658 1304 642 1315 q 678 1275 674 1293 q 667 1239 683 1257 l 522 1068 z "},"Ř":{"ha":929,"x_min":121,"x_max":867,"o":"m 178 -10 q 121 50 121 -10 l 121 921 q 179 979 121 979 l 508 979 q 751 906 667 979 q 835 696 835 832 q 776 518 835 588 q 608 428 717 449 q 718 319 672 406 l 851 71 q 857 16 867 42 q 813 -10 847 -10 q 774 1 789 -10 q 747 33 758 11 l 596 314 q 522 394 564 374 q 413 414 481 414 l 235 414 l 235 50 q 178 -10 235 -10 m 235 504 l 492 504 q 722 696 722 504 q 492 885 722 885 l 235 885 l 235 504 m 474 1050 q 403 1088 429 1050 l 281 1260 q 276 1294 267 1279 q 304 1312 285 1310 q 340 1296 324 1314 l 474 1136 l 608 1296 q 643 1312 624 1314 q 672 1294 663 1310 q 667 1260 681 1279 l 546 1088 q 474 1050 519 1050 z "},"Ŗ":{"ha":929,"x_min":121,"x_max":867,"o":"m 178 -10 q 121 50 121 -10 l 121 921 q 179 979 121 979 l 508 979 q 751 906 667 979 q 835 696 835 832 q 776 518 835 588 q 608 428 717 449 q 718 319 672 406 l 851 71 q 857 16 867 42 q 813 -10 847 -10 q 774 1 789 -10 q 747 33 758 11 l 596 314 q 522 394 564 374 q 413 414 481 414 l 235 414 l 235 50 q 178 -10 235 -10 m 235 504 l 492 504 q 722 696 722 504 q 492 885 722 885 l 235 885 l 235 504 m 493 -347 q 459 -365 476 -367 q 435 -347 442 -362 q 443 -308 428 -332 q 461 -273 454 -292 q 471 -237 468 -254 q 420 -218 439 -236 q 401 -171 401 -200 q 420 -122 401 -140 q 472 -104 439 -104 q 544 -185 544 -104 q 532 -269 544 -225 q 493 -347 519 -314 z "},"Ȑ":{"ha":929,"x_min":121,"x_max":867,"o":"m 178 -10 q 121 50 121 -10 l 121 921 q 179 979 121 979 l 508 979 q 751 906 667 979 q 835 696 835 832 q 776 518 835 588 q 608 428 717 449 q 718 319 672 406 l 851 71 q 857 16 867 42 q 813 -10 847 -10 q 774 1 789 -10 q 747 33 758 11 l 596 314 q 522 394 564 374 q 413 414 481 414 l 235 414 l 235 50 q 178 -10 235 -10 m 235 504 l 492 504 q 722 696 722 504 q 492 885 722 885 l 235 885 l 235 504 m 350 1067 l 226 1243 q 217 1281 211 1264 q 238 1308 222 1299 q 273 1313 254 1317 q 303 1285 292 1308 l 400 1097 q 401 1066 410 1079 q 378 1051 393 1053 q 350 1067 363 1050 m 524 1068 l 406 1243 q 396 1281 390 1264 q 418 1308 401 1299 q 453 1312 435 1317 q 483 1285 472 1307 l 579 1096 q 578 1065 588 1078 q 553 1052 569 1053 q 524 1068 536 1051 z "},"Ṛ":{"ha":929,"x_min":121,"x_max":867,"o":"m 178 -10 q 121 50 121 -10 l 121 921 q 179 979 121 979 l 508 979 q 751 906 667 979 q 835 696 835 832 q 776 518 835 588 q 608 428 717 449 q 718 319 672 406 l 851 71 q 857 16 867 42 q 813 -10 847 -10 q 774 1 789 -10 q 747 33 758 11 l 596 314 q 522 394 564 374 q 413 414 481 414 l 235 414 l 235 50 q 178 -10 235 -10 m 235 504 l 492 504 q 722 696 722 504 q 492 885 722 885 l 235 885 l 235 504 m 474 -265 q 406 -199 406 -265 q 474 -133 406 -133 q 543 -199 543 -133 q 474 -265 543 -265 z "},"Ȓ":{"ha":929,"x_min":121,"x_max":867,"o":"m 178 -10 q 121 50 121 -10 l 121 921 q 179 979 121 979 l 508 979 q 751 906 667 979 q 835 696 835 832 q 776 518 835 588 q 608 428 717 449 q 718 319 672 406 l 851 71 q 857 16 867 42 q 813 -10 847 -10 q 774 1 789 -10 q 747 33 758 11 l 596 314 q 522 394 564 374 q 413 414 481 414 l 235 414 l 235 50 q 178 -10 235 -10 m 235 504 l 492 504 q 722 696 722 504 q 492 885 722 885 l 235 885 l 235 504 m 274 1054 q 249 1067 258 1056 q 243 1100 239 1079 q 328 1250 264 1201 q 474 1299 392 1299 q 619 1250 556 1299 q 704 1100 683 1201 q 699 1067 708 1079 q 674 1054 689 1056 q 647 1063 657 1053 q 633 1086 636 1072 q 572 1192 617 1161 q 474 1224 526 1224 q 376 1192 421 1224 q 314 1086 331 1161 q 301 1063 311 1072 q 274 1054 290 1053 z "},"Ṟ":{"ha":929,"x_min":121,"x_max":867,"o":"m 178 -10 q 121 50 121 -10 l 121 921 q 179 979 121 979 l 508 979 q 751 906 667 979 q 835 696 835 832 q 776 518 835 588 q 608 428 717 449 q 718 319 672 406 l 851 71 q 857 16 867 42 q 813 -10 847 -10 q 774 1 789 -10 q 747 33 758 11 l 596 314 q 522 394 564 374 q 413 414 481 414 l 235 414 l 235 50 q 178 -10 235 -10 m 235 504 l 492 504 q 722 696 722 504 q 492 885 722 885 l 235 885 l 235 504 m 306 -217 q 265 -179 265 -217 q 306 -140 265 -140 l 642 -140 q 683 -179 683 -140 q 642 -217 683 -217 l 306 -217 z "},"S":{"ha":854,"x_min":67,"x_max":799,"o":"m 438 -12 q 249 12 338 -12 q 97 83 161 36 q 71 119 75 99 q 76 158 67 140 q 103 183 85 176 q 144 174 121 189 q 278 108 207 128 q 438 89 349 89 q 623 135 563 89 q 683 258 683 182 q 640 356 683 319 q 493 413 596 392 l 349 442 q 153 533 218 469 q 89 701 89 596 q 134 854 89 789 q 260 956 179 919 q 446 992 340 992 q 609 967 533 992 q 746 894 685 943 q 769 859 765 879 q 763 822 772 839 q 735 801 753 806 q 692 811 717 796 q 576 872 636 854 q 444 890 515 890 q 269 840 335 890 q 204 706 204 789 q 245 600 204 639 q 379 543 286 561 l 524 513 q 731 424 664 483 q 799 264 799 365 q 755 119 799 182 q 630 22 711 57 q 438 -12 549 -12 z "},"Ś":{"ha":854,"x_min":67,"x_max":799,"o":"m 438 -12 q 249 12 338 -12 q 97 83 161 36 q 71 119 75 99 q 76 158 67 140 q 103 183 85 176 q 144 174 121 189 q 278 108 207 128 q 438 89 349 89 q 623 135 563 89 q 683 258 683 182 q 640 356 683 319 q 493 413 596 392 l 349 442 q 153 533 218 469 q 89 701 89 596 q 134 854 89 789 q 260 956 179 919 q 446 992 340 992 q 609 967 533 992 q 746 894 685 943 q 769 859 765 879 q 763 822 772 839 q 735 801 753 806 q 692 811 717 796 q 576 872 636 854 q 444 890 515 890 q 269 840 335 890 q 204 706 204 789 q 245 600 204 639 q 379 543 286 561 l 524 513 q 731 424 664 483 q 799 264 799 365 q 755 119 799 182 q 630 22 711 57 q 438 -12 549 -12 m 485 1068 q 451 1055 469 1051 q 422 1074 432 1058 q 425 1110 413 1090 l 549 1289 q 584 1313 564 1311 q 620 1304 604 1315 q 641 1275 636 1293 q 629 1239 646 1257 l 485 1068 z "},"Ṥ":{"ha":854,"x_min":67,"x_max":799,"o":"m 438 -12 q 249 12 338 -12 q 97 83 161 36 q 71 119 75 99 q 76 158 67 140 q 103 183 85 176 q 144 174 121 189 q 278 108 207 128 q 438 89 349 89 q 623 135 563 89 q 683 258 683 182 q 640 356 683 319 q 493 413 596 392 l 349 442 q 153 533 218 469 q 89 701 89 596 q 134 854 89 789 q 260 956 179 919 q 446 992 340 992 q 609 967 533 992 q 746 894 685 943 q 769 859 765 879 q 763 822 772 839 q 735 801 753 806 q 692 811 717 796 q 576 872 636 854 q 444 890 515 890 q 269 840 335 890 q 204 706 204 789 q 245 600 204 639 q 379 543 286 561 l 524 513 q 731 424 664 483 q 799 264 799 365 q 755 119 799 182 q 630 22 711 57 q 438 -12 549 -12 m 378 1300 q 311 1357 311 1300 q 378 1413 311 1413 q 442 1357 442 1413 q 378 1300 442 1300 m 483 1067 q 449 1052 468 1049 q 420 1072 429 1056 q 425 1110 411 1089 l 550 1290 q 587 1318 567 1315 q 623 1310 607 1321 q 643 1279 639 1299 q 629 1240 647 1260 l 483 1067 z "},"Š":{"ha":854,"x_min":67,"x_max":799,"o":"m 438 -12 q 249 12 338 -12 q 97 83 161 36 q 71 119 75 99 q 76 158 67 140 q 103 183 85 176 q 144 174 121 189 q 278 108 207 128 q 438 89 349 89 q 623 135 563 89 q 683 258 683 182 q 640 356 683 319 q 493 413 596 392 l 349 442 q 153 533 218 469 q 89 701 89 596 q 134 854 89 789 q 260 956 179 919 q 446 992 340 992 q 609 967 533 992 q 746 894 685 943 q 769 859 765 879 q 763 822 772 839 q 735 801 753 806 q 692 811 717 796 q 576 872 636 854 q 444 890 515 890 q 269 840 335 890 q 204 706 204 789 q 245 600 204 639 q 379 543 286 561 l 524 513 q 731 424 664 483 q 799 264 799 365 q 755 119 799 182 q 630 22 711 57 q 438 -12 549 -12 m 436 1050 q 365 1088 392 1050 l 243 1260 q 238 1294 229 1279 q 267 1312 247 1310 q 303 1296 286 1314 l 436 1136 l 571 1296 q 606 1312 586 1314 q 634 1294 625 1310 q 629 1260 643 1279 l 508 1088 q 436 1050 482 1050 z "},"Ṧ":{"ha":854,"x_min":67,"x_max":799,"o":"m 438 -12 q 249 12 338 -12 q 97 83 161 36 q 71 119 75 99 q 76 158 67 140 q 103 183 85 176 q 144 174 121 189 q 278 108 207 128 q 438 89 349 89 q 623 135 563 89 q 683 258 683 182 q 640 356 683 319 q 493 413 596 392 l 349 442 q 153 533 218 469 q 89 701 89 596 q 134 854 89 789 q 260 956 179 919 q 446 992 340 992 q 609 967 533 992 q 746 894 685 943 q 769 859 765 879 q 763 822 772 839 q 735 801 753 806 q 692 811 717 796 q 576 872 636 854 q 444 890 515 890 q 269 840 335 890 q 204 706 204 789 q 245 600 204 639 q 379 543 286 561 l 524 513 q 731 424 664 483 q 799 264 799 365 q 755 119 799 182 q 630 22 711 57 q 438 -12 549 -12 m 438 1342 q 372 1397 372 1342 q 438 1454 372 1454 q 503 1397 503 1454 q 438 1342 503 1342 m 436 1053 q 397 1060 414 1053 q 365 1089 379 1068 l 246 1261 q 243 1292 236 1278 q 266 1309 250 1306 q 296 1297 282 1313 l 436 1136 l 576 1297 q 607 1309 592 1313 q 629 1292 622 1306 q 626 1261 636 1278 l 508 1089 q 476 1060 493 1068 q 436 1053 458 1053 z "},"Ş":{"ha":854,"x_min":67,"x_max":799,"o":"m 438 -12 q 249 12 338 -12 q 97 83 161 36 q 71 119 75 99 q 76 158 67 140 q 103 183 85 176 q 144 174 121 189 q 278 108 207 128 q 438 89 349 89 q 623 135 563 89 q 683 258 683 182 q 640 356 683 319 q 493 413 596 392 l 349 442 q 153 533 218 469 q 89 701 89 596 q 134 854 89 789 q 260 956 179 919 q 446 992 340 992 q 609 967 533 992 q 746 894 685 943 q 769 859 765 879 q 763 822 772 839 q 735 801 753 806 q 692 811 717 796 q 576 872 636 854 q 444 890 515 890 q 269 840 335 890 q 204 706 204 789 q 245 600 204 639 q 379 543 286 561 l 524 513 q 731 424 664 483 q 799 264 799 365 q 755 119 799 182 q 630 22 711 57 q 438 -12 549 -12 m 443 -267 q 391 -263 418 -267 q 342 -250 364 -260 q 319 -224 321 -242 q 328 -193 317 -206 q 363 -189 340 -181 q 440 -201 393 -201 q 499 -188 476 -201 q 521 -150 521 -175 q 468 -111 521 -111 q 447 -112 457 -111 q 422 -117 436 -114 q 389 -117 400 -124 q 383 -82 379 -108 l 400 28 l 471 28 l 456 -60 q 482 -58 469 -58 q 566 -83 533 -58 q 599 -153 599 -108 q 556 -235 599 -204 q 443 -267 513 -267 z "},"Ŝ":{"ha":854,"x_min":67,"x_max":799,"o":"m 438 -12 q 249 12 338 -12 q 97 83 161 36 q 71 119 75 99 q 76 158 67 140 q 103 183 85 176 q 144 174 121 189 q 278 108 207 128 q 438 89 349 89 q 623 135 563 89 q 683 258 683 182 q 640 356 683 319 q 493 413 596 392 l 349 442 q 153 533 218 469 q 89 701 89 596 q 134 854 89 789 q 260 956 179 919 q 446 992 340 992 q 609 967 533 992 q 746 894 685 943 q 769 859 765 879 q 763 822 772 839 q 735 801 753 806 q 692 811 717 796 q 576 872 636 854 q 444 890 515 890 q 269 840 335 890 q 204 706 204 789 q 245 600 204 639 q 379 543 286 561 l 524 513 q 731 424 664 483 q 799 264 799 365 q 755 119 799 182 q 630 22 711 57 q 438 -12 549 -12 m 303 1067 q 267 1051 286 1049 q 238 1069 247 1054 q 243 1104 229 1085 l 365 1275 q 436 1314 392 1314 q 508 1275 481 1314 l 629 1104 q 634 1069 643 1085 q 606 1051 625 1054 q 571 1067 586 1049 l 436 1228 l 303 1067 z "},"Ș":{"ha":854,"x_min":67,"x_max":799,"o":"m 438 -12 q 249 12 338 -12 q 97 83 161 36 q 71 119 75 99 q 76 158 67 140 q 103 183 85 176 q 144 174 121 189 q 278 108 207 128 q 438 89 349 89 q 623 135 563 89 q 683 258 683 182 q 640 356 683 319 q 493 413 596 392 l 349 442 q 153 533 218 469 q 89 701 89 596 q 134 854 89 789 q 260 956 179 919 q 446 992 340 992 q 609 967 533 992 q 746 894 685 943 q 769 859 765 879 q 763 822 772 839 q 735 801 753 806 q 692 811 717 796 q 576 872 636 854 q 444 890 515 890 q 269 840 335 890 q 204 706 204 789 q 245 600 204 639 q 379 543 286 561 l 524 513 q 731 424 664 483 q 799 264 799 365 q 755 119 799 182 q 630 22 711 57 q 438 -12 549 -12 m 458 -347 q 424 -365 442 -367 q 400 -347 407 -362 q 408 -308 393 -332 q 426 -273 419 -292 q 436 -237 433 -254 q 385 -218 404 -236 q 367 -171 367 -200 q 385 -122 367 -140 q 438 -104 404 -104 q 510 -185 510 -104 q 497 -269 510 -225 q 458 -347 485 -314 z "},"Ṡ":{"ha":854,"x_min":67,"x_max":799,"o":"m 438 -12 q 249 12 338 -12 q 97 83 161 36 q 71 119 75 99 q 76 158 67 140 q 103 183 85 176 q 144 174 121 189 q 278 108 207 128 q 438 89 349 89 q 623 135 563 89 q 683 258 683 182 q 640 356 683 319 q 493 413 596 392 l 349 442 q 153 533 218 469 q 89 701 89 596 q 134 854 89 789 q 260 956 179 919 q 446 992 340 992 q 609 967 533 992 q 746 894 685 943 q 769 859 765 879 q 763 822 772 839 q 735 801 753 806 q 692 811 717 796 q 576 872 636 854 q 444 890 515 890 q 269 840 335 890 q 204 706 204 789 q 245 600 204 639 q 379 543 286 561 l 524 513 q 731 424 664 483 q 799 264 799 365 q 755 119 799 182 q 630 22 711 57 q 438 -12 549 -12 m 436 1115 q 368 1182 368 1115 q 436 1247 368 1247 q 504 1182 504 1247 q 436 1115 504 1115 z "},"Ṣ":{"ha":854,"x_min":67,"x_max":799,"o":"m 438 -12 q 249 12 338 -12 q 97 83 161 36 q 71 119 75 99 q 76 158 67 140 q 103 183 85 176 q 144 174 121 189 q 278 108 207 128 q 438 89 349 89 q 623 135 563 89 q 683 258 683 182 q 640 356 683 319 q 493 413 596 392 l 349 442 q 153 533 218 469 q 89 701 89 596 q 134 854 89 789 q 260 956 179 919 q 446 992 340 992 q 609 967 533 992 q 746 894 685 943 q 769 859 765 879 q 763 822 772 839 q 735 801 753 806 q 692 811 717 796 q 576 872 636 854 q 444 890 515 890 q 269 840 335 890 q 204 706 204 789 q 245 600 204 639 q 379 543 286 561 l 524 513 q 731 424 664 483 q 799 264 799 365 q 755 119 799 182 q 630 22 711 57 q 438 -12 549 -12 m 439 -265 q 371 -199 371 -265 q 439 -133 371 -133 q 508 -199 508 -133 q 439 -265 508 -265 z "},"Ṩ":{"ha":854,"x_min":67,"x_max":799,"o":"m 438 -12 q 249 12 338 -12 q 97 83 161 36 q 71 119 75 99 q 76 158 67 140 q 103 183 85 176 q 144 174 121 189 q 278 108 207 128 q 438 89 349 89 q 623 135 563 89 q 683 258 683 182 q 640 356 683 319 q 493 413 596 392 l 349 442 q 153 533 218 469 q 89 701 89 596 q 134 854 89 789 q 260 956 179 919 q 446 992 340 992 q 609 967 533 992 q 746 894 685 943 q 769 859 765 879 q 763 822 772 839 q 735 801 753 806 q 692 811 717 796 q 576 872 636 854 q 444 890 515 890 q 269 840 335 890 q 204 706 204 789 q 245 600 204 639 q 379 543 286 561 l 524 513 q 731 424 664 483 q 799 264 799 365 q 755 119 799 182 q 630 22 711 57 q 438 -12 549 -12 m 439 -265 q 371 -199 371 -265 q 439 -133 371 -133 q 508 -199 508 -133 q 439 -265 508 -265 m 436 1115 q 368 1182 368 1115 q 436 1247 368 1247 q 504 1182 504 1247 q 436 1115 504 1115 z "},"ẞ":{"ha":990,"x_min":121,"x_max":903,"o":"m 599 -12 q 463 5 526 -12 q 353 57 399 22 q 331 90 333 71 q 336 125 328 108 q 361 148 344 142 q 397 142 378 154 q 490 97 443 110 q 590 85 536 85 q 739 133 688 85 q 790 267 790 182 q 735 399 790 353 q 568 444 681 444 l 425 444 q 389 457 403 444 q 375 493 375 469 q 421 539 375 539 l 536 539 q 683 585 628 539 q 738 717 738 631 q 679 849 738 804 q 511 894 621 894 q 235 638 235 894 l 235 50 q 178 -10 235 -10 q 121 50 121 -10 l 121 640 q 224 903 121 814 q 514 992 328 992 q 760 922 669 992 q 851 732 851 853 q 815 594 851 654 q 713 506 778 533 q 852 421 801 483 q 903 261 903 358 q 823 59 903 131 q 599 -12 743 -12 z "},"Ə":{"ha":1065,"x_min":85,"x_max":982,"o":"m 540 -12 q 288 51 389 -12 q 135 227 186 114 q 85 492 85 340 q 128 542 85 542 l 858 542 q 751 800 846 710 q 492 890 657 890 q 335 869 404 890 q 204 804 267 849 q 162 795 181 789 q 133 818 143 801 q 128 855 124 835 q 153 890 132 875 q 309 966 219 940 q 503 992 399 992 q 756 931 649 992 q 923 758 864 871 q 982 490 982 646 q 927 222 982 335 q 773 49 872 110 q 540 -12 674 -12 m 536 88 q 764 180 679 88 q 860 446 849 272 l 204 446 q 296 178 213 269 q 536 88 379 88 z "},"T":{"ha":836,"x_min":-4,"x_max":842,"o":"m 418 -10 q 361 50 361 -10 l 361 881 l 49 881 q -4 931 -4 881 q 49 979 -4 979 l 789 979 q 842 931 842 979 q 789 881 842 881 l 476 881 l 476 50 q 418 -10 476 -10 z "},"Ŧ":{"ha":836,"x_min":-4,"x_max":842,"o":"m 418 -10 q 361 50 361 -10 l 361 881 l 49 881 q -4 931 -4 881 q 49 979 -4 979 l 789 979 q 842 931 842 979 q 789 881 842 881 l 476 881 l 476 50 q 418 -10 476 -10 m 199 453 q 153 497 153 453 q 199 542 153 542 l 636 542 q 682 497 682 542 q 636 453 682 453 l 199 453 z "},"Ť":{"ha":836,"x_min":-4,"x_max":842,"o":"m 418 -10 q 361 50 361 -10 l 361 881 l 49 881 q -4 931 -4 881 q 49 979 -4 979 l 789 979 q 842 931 842 979 q 789 881 842 881 l 476 881 l 476 50 q 418 -10 476 -10 m 418 1050 q 347 1088 374 1050 l 225 1260 q 220 1294 211 1279 q 249 1312 229 1310 q 285 1296 268 1314 l 418 1136 l 553 1296 q 588 1312 568 1314 q 616 1294 607 1310 q 611 1260 625 1279 l 490 1088 q 418 1050 464 1050 z "},"Ţ":{"ha":836,"x_min":-4,"x_max":842,"o":"m 418 -10 q 361 50 361 -10 l 361 881 l 49 881 q -4 931 -4 881 q 49 979 -4 979 l 789 979 q 842 931 842 979 q 789 881 842 881 l 476 881 l 476 50 q 418 -10 476 -10 m 422 -267 q 370 -263 397 -267 q 321 -250 343 -260 q 298 -224 300 -242 q 308 -193 296 -206 q 342 -189 319 -181 q 419 -201 372 -201 q 478 -188 456 -201 q 500 -150 500 -175 q 447 -111 500 -111 q 426 -112 436 -111 q 401 -117 415 -114 q 368 -117 379 -124 q 363 -82 358 -108 l 379 28 l 450 28 l 435 -60 q 461 -58 449 -58 q 545 -83 513 -58 q 578 -153 578 -108 q 535 -235 578 -204 q 422 -267 492 -267 z "},"Ț":{"ha":836,"x_min":-4,"x_max":842,"o":"m 418 -10 q 361 50 361 -10 l 361 881 l 49 881 q -4 931 -4 881 q 49 979 -4 979 l 789 979 q 842 931 842 979 q 789 881 842 881 l 476 881 l 476 50 q 418 -10 476 -10 m 438 -347 q 403 -365 421 -367 q 379 -347 386 -362 q 388 -308 372 -332 q 406 -273 399 -292 q 415 -237 413 -254 q 365 -218 383 -236 q 346 -171 346 -200 q 365 -122 346 -140 q 417 -104 383 -104 q 489 -185 489 -104 q 476 -269 489 -225 q 438 -347 464 -314 z "},"Ṭ":{"ha":836,"x_min":-4,"x_max":842,"o":"m 418 -10 q 361 50 361 -10 l 361 881 l 49 881 q -4 931 -4 881 q 49 979 -4 979 l 789 979 q 842 931 842 979 q 789 881 842 881 l 476 881 l 476 50 q 418 -10 476 -10 m 418 -265 q 350 -199 350 -265 q 418 -133 350 -133 q 488 -199 488 -133 q 418 -265 488 -265 z "},"Ṯ":{"ha":836,"x_min":-4,"x_max":842,"o":"m 418 -10 q 361 50 361 -10 l 361 881 l 49 881 q -4 931 -4 881 q 49 979 -4 979 l 789 979 q 842 931 842 979 q 789 881 842 881 l 476 881 l 476 50 q 418 -10 476 -10 m 250 -217 q 210 -179 210 -217 q 250 -140 210 -140 l 586 -140 q 628 -179 628 -140 q 586 -217 628 -217 l 250 -217 z "},"U":{"ha":1011,"x_min":114,"x_max":897,"o":"m 507 -12 q 214 90 314 -12 q 114 388 114 192 l 114 931 q 171 989 114 989 q 228 931 228 989 l 228 393 q 507 89 228 89 q 783 393 783 89 l 783 931 q 842 989 783 989 q 897 931 897 989 l 897 388 q 798 90 897 192 q 507 -12 699 -12 z "},"Ú":{"ha":1011,"x_min":114,"x_max":897,"o":"m 507 -12 q 214 90 314 -12 q 114 388 114 192 l 114 931 q 171 989 114 989 q 228 931 228 989 l 228 393 q 507 89 228 89 q 783 393 783 89 l 783 931 q 842 989 783 989 q 897 931 897 989 l 897 388 q 798 90 897 192 q 507 -12 699 -12 m 556 1068 q 522 1055 540 1051 q 493 1074 503 1058 q 496 1110 483 1090 l 619 1289 q 655 1313 635 1311 q 691 1304 675 1315 q 712 1275 707 1293 q 700 1239 717 1257 l 556 1068 z "},"Ŭ":{"ha":1011,"x_min":114,"x_max":897,"o":"m 507 -12 q 214 90 314 -12 q 114 388 114 192 l 114 931 q 171 989 114 989 q 228 931 228 989 l 228 393 q 507 89 228 89 q 783 393 783 89 l 783 931 q 842 989 783 989 q 897 931 897 989 l 897 388 q 798 90 897 192 q 507 -12 699 -12 m 507 1056 q 361 1104 425 1056 q 276 1256 297 1153 q 282 1288 272 1275 q 307 1300 292 1300 q 334 1292 324 1301 q 347 1269 344 1283 q 408 1162 363 1193 q 507 1131 454 1131 q 606 1162 560 1131 q 667 1269 651 1193 q 680 1292 669 1283 q 707 1300 690 1301 q 732 1288 722 1300 q 738 1256 742 1275 q 653 1104 717 1153 q 507 1056 589 1056 z "},"Û":{"ha":1011,"x_min":114,"x_max":897,"o":"m 507 -12 q 214 90 314 -12 q 114 388 114 192 l 114 931 q 171 989 114 989 q 228 931 228 989 l 228 393 q 507 89 228 89 q 783 393 783 89 l 783 931 q 842 989 783 989 q 897 931 897 989 l 897 388 q 798 90 897 192 q 507 -12 699 -12 m 374 1067 q 338 1051 357 1049 q 309 1069 318 1054 q 314 1104 300 1085 l 436 1275 q 507 1314 463 1314 q 579 1275 551 1314 l 700 1104 q 705 1069 714 1085 q 676 1051 696 1054 q 642 1067 657 1049 l 507 1228 l 374 1067 z "},"Ȕ":{"ha":1011,"x_min":114,"x_max":897,"o":"m 507 -12 q 214 90 314 -12 q 114 388 114 192 l 114 931 q 171 989 114 989 q 228 931 228 989 l 228 393 q 507 89 228 89 q 783 393 783 89 l 783 931 q 842 989 783 989 q 897 931 897 989 l 897 388 q 798 90 897 192 q 507 -12 699 -12 m 383 1067 l 260 1243 q 250 1281 244 1264 q 272 1308 256 1299 q 306 1313 288 1317 q 336 1285 325 1308 l 433 1097 q 435 1066 443 1079 q 411 1051 426 1053 q 383 1067 396 1050 m 557 1068 l 439 1243 q 429 1281 424 1264 q 451 1308 435 1299 q 487 1312 468 1317 q 517 1285 506 1307 l 613 1096 q 612 1065 621 1078 q 586 1052 603 1053 q 557 1068 569 1051 z "},"Ü":{"ha":1011,"x_min":114,"x_max":897,"o":"m 507 -12 q 214 90 314 -12 q 114 388 114 192 l 114 931 q 171 989 114 989 q 228 931 228 989 l 228 393 q 507 89 228 89 q 783 393 783 89 l 783 931 q 842 989 783 989 q 897 931 897 989 l 897 388 q 798 90 897 192 q 507 -12 699 -12 m 629 1114 q 563 1179 563 1114 q 629 1243 563 1243 q 693 1179 693 1243 q 629 1114 693 1114 m 386 1114 q 321 1179 321 1114 q 386 1243 321 1243 q 451 1179 451 1243 q 386 1114 451 1114 z "},"Ụ":{"ha":1011,"x_min":114,"x_max":897,"o":"m 507 -12 q 214 90 314 -12 q 114 388 114 192 l 114 931 q 171 989 114 989 q 228 931 228 989 l 228 393 q 507 89 228 89 q 783 393 783 89 l 783 931 q 842 989 783 989 q 897 931 897 989 l 897 388 q 798 90 897 192 q 507 -12 699 -12 m 507 -265 q 439 -199 439 -265 q 507 -133 439 -133 q 576 -199 576 -133 q 507 -265 576 -265 z "},"Ù":{"ha":1011,"x_min":114,"x_max":897,"o":"m 507 -12 q 214 90 314 -12 q 114 388 114 192 l 114 931 q 171 989 114 989 q 228 931 228 989 l 228 393 q 507 89 228 89 q 783 393 783 89 l 783 931 q 842 989 783 989 q 897 931 897 989 l 897 388 q 798 90 897 192 q 507 -12 699 -12 m 458 1068 l 314 1239 q 303 1275 299 1257 q 323 1304 307 1293 q 359 1313 339 1315 q 394 1289 379 1311 l 518 1110 q 522 1074 532 1090 q 494 1055 513 1058 q 458 1068 475 1051 z "},"Ủ":{"ha":1011,"x_min":114,"x_max":897,"o":"m 507 -12 q 214 90 314 -12 q 114 388 114 192 l 114 931 q 171 989 114 989 q 228 931 228 989 l 228 393 q 507 89 228 89 q 783 393 783 89 l 783 931 q 842 989 783 989 q 897 931 897 989 l 897 388 q 798 90 897 192 q 507 -12 699 -12 m 507 1053 q 468 1085 468 1053 q 481 1130 468 1113 q 512 1160 494 1147 q 542 1183 529 1172 q 556 1211 556 1194 q 492 1243 556 1243 q 464 1241 479 1243 q 435 1235 449 1239 q 386 1250 394 1224 q 410 1293 375 1281 q 514 1310 454 1310 q 612 1286 576 1310 q 647 1224 647 1263 q 632 1177 647 1194 q 597 1147 617 1160 q 561 1119 576 1135 q 546 1078 546 1104 q 507 1053 546 1053 z "},"Ư":{"ha":1011,"x_min":114,"x_max":1060,"o":"m 507 -12 q 214 90 314 -12 q 114 388 114 192 l 114 931 q 171 989 114 989 q 228 931 228 989 l 228 393 q 507 89 228 89 q 783 393 783 89 l 783 931 q 842 989 783 989 q 897 931 897 989 l 897 388 q 798 90 897 192 q 507 -12 699 -12 m 864 910 l 807 949 l 807 979 q 926 1015 894 979 q 958 1125 958 1051 q 1010 1169 958 1169 q 1060 1125 1060 1169 q 1008 972 1060 1028 q 864 910 957 915 z "},"Ứ":{"ha":1011,"x_min":114,"x_max":1060,"o":"m 507 -12 q 214 90 314 -12 q 114 388 114 192 l 114 931 q 171 989 114 989 q 228 931 228 989 l 228 393 q 507 89 228 89 q 783 393 783 89 l 783 931 q 842 989 783 989 q 897 931 897 989 l 897 388 q 798 90 897 192 q 507 -12 699 -12 m 864 910 l 807 949 l 807 979 q 926 1015 894 979 q 958 1125 958 1051 q 1010 1169 958 1169 q 1060 1125 1060 1169 q 1008 972 1060 1028 q 864 910 957 915 m 556 1068 q 522 1055 540 1051 q 493 1074 503 1058 q 496 1110 483 1090 l 619 1289 q 655 1313 635 1311 q 691 1304 675 1315 q 712 1275 707 1293 q 700 1239 717 1257 l 556 1068 z "},"Ự":{"ha":1011,"x_min":114,"x_max":1060,"o":"m 507 -12 q 214 90 314 -12 q 114 388 114 192 l 114 931 q 171 989 114 989 q 228 931 228 989 l 228 393 q 507 89 228 89 q 783 393 783 89 l 783 931 q 842 989 783 989 q 897 931 897 989 l 897 388 q 798 90 897 192 q 507 -12 699 -12 m 864 910 l 807 949 l 807 979 q 926 1015 894 979 q 958 1125 958 1051 q 1010 1169 958 1169 q 1060 1125 1060 1169 q 1008 972 1060 1028 q 864 910 957 915 m 507 -265 q 439 -199 439 -265 q 507 -133 439 -133 q 576 -199 576 -133 q 507 -265 576 -265 z "},"Ừ":{"ha":1011,"x_min":114,"x_max":1060,"o":"m 507 -12 q 214 90 314 -12 q 114 388 114 192 l 114 931 q 171 989 114 989 q 228 931 228 989 l 228 393 q 507 89 228 89 q 783 393 783 89 l 783 931 q 842 989 783 989 q 897 931 897 989 l 897 388 q 798 90 897 192 q 507 -12 699 -12 m 864 910 l 807 949 l 807 979 q 926 1015 894 979 q 958 1125 958 1051 q 1010 1169 958 1169 q 1060 1125 1060 1169 q 1008 972 1060 1028 q 864 910 957 915 m 458 1068 l 314 1239 q 303 1275 299 1257 q 323 1304 307 1293 q 359 1313 339 1315 q 394 1289 379 1311 l 518 1110 q 522 1074 532 1090 q 494 1055 513 1058 q 458 1068 475 1051 z "},"Ử":{"ha":1011,"x_min":114,"x_max":1060,"o":"m 507 -12 q 214 90 314 -12 q 114 388 114 192 l 114 931 q 171 989 114 989 q 228 931 228 989 l 228 393 q 507 89 228 89 q 783 393 783 89 l 783 931 q 842 989 783 989 q 897 931 897 989 l 897 388 q 798 90 897 192 q 507 -12 699 -12 m 864 910 l 807 949 l 807 979 q 926 1015 894 979 q 958 1125 958 1051 q 1010 1169 958 1169 q 1060 1125 1060 1169 q 1008 972 1060 1028 q 864 910 957 915 m 507 1053 q 468 1085 468 1053 q 481 1130 468 1113 q 512 1160 494 1147 q 542 1183 529 1172 q 556 1211 556 1194 q 492 1243 556 1243 q 464 1241 479 1243 q 435 1235 449 1239 q 386 1250 394 1224 q 410 1293 375 1281 q 514 1310 454 1310 q 612 1286 576 1310 q 647 1224 647 1263 q 632 1177 647 1194 q 597 1147 617 1160 q 561 1119 576 1135 q 546 1078 546 1104 q 507 1053 546 1053 z "},"Ữ":{"ha":1011,"x_min":114,"x_max":1060,"o":"m 507 -12 q 214 90 314 -12 q 114 388 114 192 l 114 931 q 171 989 114 989 q 228 931 228 989 l 228 393 q 507 89 228 89 q 783 393 783 89 l 783 931 q 842 989 783 989 q 897 931 897 989 l 897 388 q 798 90 897 192 q 507 -12 699 -12 m 864 910 l 807 949 l 807 979 q 926 1015 894 979 q 958 1125 958 1051 q 1010 1169 958 1169 q 1060 1125 1060 1169 q 1008 972 1060 1028 q 864 910 957 915 m 264 1083 q 241 1093 250 1083 q 235 1122 232 1103 q 290 1235 247 1194 q 392 1276 332 1276 q 456 1260 428 1276 q 510 1224 485 1244 q 560 1187 536 1203 q 611 1171 585 1171 q 669 1194 646 1171 q 701 1257 693 1218 q 738 1285 710 1286 q 760 1274 751 1285 q 767 1246 769 1264 q 712 1133 754 1174 q 610 1092 669 1092 q 546 1108 575 1092 q 491 1144 517 1124 q 441 1181 465 1165 q 390 1197 417 1197 q 332 1174 356 1197 q 300 1111 308 1150 q 264 1083 292 1082 z "},"Ű":{"ha":1011,"x_min":114,"x_max":897,"o":"m 507 -12 q 214 90 314 -12 q 114 388 114 192 l 114 931 q 171 989 114 989 q 228 931 228 989 l 228 393 q 507 89 228 89 q 783 393 783 89 l 783 931 q 842 989 783 989 q 897 931 897 989 l 897 388 q 798 90 897 192 q 507 -12 699 -12 m 631 1067 q 602 1051 618 1050 q 578 1066 586 1053 q 581 1097 569 1079 l 678 1285 q 709 1312 690 1308 q 744 1307 728 1315 q 765 1281 760 1299 q 754 1243 769 1264 l 631 1067 m 457 1068 q 428 1052 444 1051 q 402 1065 411 1053 q 403 1096 393 1078 l 497 1285 q 527 1312 508 1307 q 563 1308 546 1317 q 585 1281 579 1299 q 575 1243 590 1264 l 457 1068 z "},"Ȗ":{"ha":1011,"x_min":114,"x_max":897,"o":"m 507 -12 q 214 90 314 -12 q 114 388 114 192 l 114 931 q 171 989 114 989 q 228 931 228 989 l 228 393 q 507 89 228 89 q 783 393 783 89 l 783 931 q 842 989 783 989 q 897 931 897 989 l 897 388 q 798 90 897 192 q 507 -12 699 -12 m 307 1054 q 282 1067 292 1056 q 276 1100 272 1079 q 361 1250 297 1201 q 507 1299 425 1299 q 653 1250 589 1299 q 738 1100 717 1201 q 732 1067 742 1079 q 707 1054 722 1056 q 680 1063 690 1053 q 667 1086 669 1072 q 605 1192 650 1161 q 507 1224 560 1224 q 409 1192 454 1224 q 347 1086 364 1161 q 334 1063 344 1072 q 307 1054 324 1053 z "},"Ū":{"ha":1011,"x_min":114,"x_max":897,"o":"m 507 -12 q 214 90 314 -12 q 114 388 114 192 l 114 931 q 171 989 114 989 q 228 931 228 989 l 228 393 q 507 89 228 89 q 783 393 783 89 l 783 931 q 842 989 783 989 q 897 931 897 989 l 897 388 q 798 90 897 192 q 507 -12 699 -12 m 318 1131 q 278 1169 278 1131 q 318 1207 278 1207 l 696 1207 q 738 1169 738 1207 q 696 1131 738 1131 l 318 1131 z "},"Ṻ":{"ha":1011,"x_min":114,"x_max":897,"o":"m 507 -12 q 214 90 314 -12 q 114 388 114 192 l 114 931 q 171 989 114 989 q 228 931 228 989 l 228 393 q 507 89 228 89 q 783 393 783 89 l 783 931 q 842 989 783 989 q 897 931 897 989 l 897 388 q 798 90 897 192 q 507 -12 699 -12 m 386 1256 q 321 1311 321 1256 q 386 1367 321 1367 q 451 1311 451 1367 q 386 1256 451 1256 m 629 1256 q 563 1311 563 1256 q 629 1367 563 1367 q 693 1311 693 1367 q 629 1256 693 1256 m 339 1108 q 296 1146 296 1108 q 339 1183 296 1183 l 675 1183 q 718 1146 718 1183 q 675 1108 718 1108 l 339 1108 z "},"Ų":{"ha":1011,"x_min":114,"x_max":897,"o":"m 507 -12 q 214 90 314 -12 q 114 388 114 192 l 114 931 q 171 989 114 989 q 228 931 228 989 l 228 393 q 507 89 228 89 q 783 393 783 89 l 783 931 q 842 989 783 989 q 897 931 897 989 l 897 388 q 798 90 897 192 q 507 -12 699 -12 m 560 -267 q 453 -231 493 -267 q 414 -132 414 -194 q 449 -28 414 -76 q 546 50 485 21 l 586 0 q 524 -45 553 -14 q 494 -119 494 -76 q 517 -178 494 -160 q 575 -197 540 -197 q 624 -189 597 -197 q 659 -196 649 -182 q 665 -228 669 -210 q 642 -254 661 -247 q 600 -265 621 -262 q 560 -267 579 -267 z "},"Ů":{"ha":1011,"x_min":114,"x_max":897,"o":"m 507 -12 q 214 90 314 -12 q 114 388 114 192 l 114 931 q 171 989 114 989 q 228 931 228 989 l 228 393 q 507 89 228 89 q 783 393 783 89 l 783 931 q 842 989 783 989 q 897 931 897 989 l 897 388 q 798 90 897 192 q 507 -12 699 -12 m 507 1053 q 390 1099 438 1053 q 342 1214 342 1146 q 390 1327 342 1281 q 507 1374 438 1374 q 624 1327 576 1374 q 672 1214 672 1281 q 624 1099 672 1146 q 507 1053 576 1053 m 507 1113 q 579 1142 551 1113 q 607 1214 607 1171 q 579 1285 607 1256 q 507 1314 551 1314 q 435 1285 464 1314 q 407 1214 407 1256 q 435 1142 407 1171 q 507 1113 464 1113 z "},"Ũ":{"ha":1011,"x_min":114,"x_max":897,"o":"m 507 -12 q 214 90 314 -12 q 114 388 114 192 l 114 931 q 171 989 114 989 q 228 931 228 989 l 228 393 q 507 89 228 89 q 783 393 783 89 l 783 931 q 842 989 783 989 q 897 931 897 989 l 897 388 q 798 90 897 192 q 507 -12 699 -12 m 251 1083 q 227 1094 236 1083 q 221 1122 218 1104 q 278 1236 235 1196 q 383 1276 321 1276 q 455 1260 421 1276 q 519 1224 489 1244 q 578 1187 550 1203 q 635 1171 607 1171 q 695 1194 671 1171 q 726 1257 719 1218 q 763 1285 733 1286 q 787 1274 778 1285 q 793 1246 796 1264 q 736 1132 779 1172 q 632 1092 693 1092 q 560 1108 594 1092 q 495 1144 526 1124 q 435 1181 464 1165 q 379 1197 407 1197 q 319 1174 343 1197 q 288 1111 294 1150 q 251 1083 281 1082 z "},"Ṹ":{"ha":1011,"x_min":114,"x_max":897,"o":"m 507 -12 q 214 90 314 -12 q 114 388 114 192 l 114 931 q 171 989 114 989 q 228 931 228 989 l 228 393 q 507 89 228 89 q 783 393 783 89 l 783 931 q 842 989 783 989 q 897 931 897 989 l 897 388 q 798 90 897 192 q 507 -12 699 -12 m 544 1222 q 513 1209 531 1207 q 487 1226 496 1211 q 489 1261 478 1240 l 582 1413 q 615 1438 596 1435 q 651 1432 635 1442 q 672 1404 668 1422 q 661 1367 676 1386 l 544 1222 m 319 1064 q 297 1076 306 1065 q 294 1106 289 1086 q 338 1183 306 1157 q 418 1208 371 1208 q 485 1190 456 1208 q 540 1154 514 1172 q 594 1136 567 1136 q 657 1182 644 1136 q 696 1211 667 1213 q 717 1199 710 1210 q 721 1168 725 1188 q 676 1092 708 1118 q 597 1067 643 1067 q 530 1085 560 1067 q 474 1121 500 1103 q 419 1139 447 1139 q 357 1093 371 1139 q 319 1064 349 1063 z "},"V":{"ha":957,"x_min":13,"x_max":943,"o":"m 479 -10 q 410 40 431 -10 l 28 914 q 29 969 13 949 q 75 989 46 989 q 113 977 100 989 q 136 943 126 965 l 481 144 l 824 944 q 847 978 833 967 q 886 989 861 989 q 929 967 915 989 q 929 914 943 946 l 547 40 q 521 3 536 15 q 479 -10 506 -10 z "},"W":{"ha":1529,"x_min":53,"x_max":1478,"o":"m 435 -10 q 369 43 389 -10 l 63 919 q 67 969 53 950 q 114 989 81 989 q 175 940 158 989 l 438 167 l 707 936 q 768 989 725 989 q 803 976 790 989 q 826 936 817 963 l 1093 160 l 1363 940 q 1422 989 1378 989 q 1465 969 1451 989 q 1468 919 1478 950 l 1160 43 q 1135 3 1150 17 q 1094 -10 1121 -10 q 1054 3 1069 -10 q 1029 43 1039 17 l 765 806 l 499 43 q 475 3 489 17 q 435 -10 461 -10 z "},"Ẃ":{"ha":1529,"x_min":53,"x_max":1478,"o":"m 435 -10 q 369 43 389 -10 l 63 919 q 67 969 53 950 q 114 989 81 989 q 175 940 158 989 l 438 167 l 707 936 q 768 989 725 989 q 803 976 790 989 q 826 936 817 963 l 1093 160 l 1363 940 q 1422 989 1378 989 q 1465 969 1451 989 q 1468 919 1478 950 l 1160 43 q 1135 3 1150 17 q 1094 -10 1121 -10 q 1054 3 1069 -10 q 1029 43 1039 17 l 765 806 l 499 43 q 475 3 489 17 q 435 -10 461 -10 m 814 1068 q 780 1055 799 1051 q 751 1074 761 1058 q 754 1110 742 1090 l 878 1289 q 913 1313 893 1311 q 949 1304 933 1315 q 970 1275 965 1293 q 958 1239 975 1257 l 814 1068 z "},"Ŵ":{"ha":1529,"x_min":53,"x_max":1478,"o":"m 435 -10 q 369 43 389 -10 l 63 919 q 67 969 53 950 q 114 989 81 989 q 175 940 158 989 l 438 167 l 707 936 q 768 989 725 989 q 803 976 790 989 q 826 936 817 963 l 1093 160 l 1363 940 q 1422 989 1378 989 q 1465 969 1451 989 q 1468 919 1478 950 l 1160 43 q 1135 3 1150 17 q 1094 -10 1121 -10 q 1054 3 1069 -10 q 1029 43 1039 17 l 765 806 l 499 43 q 475 3 489 17 q 435 -10 461 -10 m 632 1067 q 596 1051 615 1049 q 567 1069 576 1054 q 572 1104 558 1085 l 694 1275 q 765 1314 721 1314 q 838 1275 810 1314 l 958 1104 q 963 1069 972 1085 q 935 1051 954 1054 q 900 1067 915 1049 l 765 1228 l 632 1067 z "},"Ẅ":{"ha":1529,"x_min":53,"x_max":1478,"o":"m 435 -10 q 369 43 389 -10 l 63 919 q 67 969 53 950 q 114 989 81 989 q 175 940 158 989 l 438 167 l 707 936 q 768 989 725 989 q 803 976 790 989 q 826 936 817 963 l 1093 160 l 1363 940 q 1422 989 1378 989 q 1465 969 1451 989 q 1468 919 1478 950 l 1160 43 q 1135 3 1150 17 q 1094 -10 1121 -10 q 1054 3 1069 -10 q 1029 43 1039 17 l 765 806 l 499 43 q 475 3 489 17 q 435 -10 461 -10 m 888 1114 q 821 1179 821 1114 q 888 1243 821 1243 q 951 1179 951 1243 q 888 1114 951 1114 m 644 1114 q 579 1179 579 1114 q 644 1243 579 1243 q 710 1179 710 1243 q 644 1114 710 1114 z "},"Ẁ":{"ha":1529,"x_min":53,"x_max":1478,"o":"m 435 -10 q 369 43 389 -10 l 63 919 q 67 969 53 950 q 114 989 81 989 q 175 940 158 989 l 438 167 l 707 936 q 768 989 725 989 q 803 976 790 989 q 826 936 817 963 l 1093 160 l 1363 940 q 1422 989 1378 989 q 1465 969 1451 989 q 1468 919 1478 950 l 1160 43 q 1135 3 1150 17 q 1094 -10 1121 -10 q 1054 3 1069 -10 q 1029 43 1039 17 l 765 806 l 499 43 q 475 3 489 17 q 435 -10 461 -10 m 717 1068 l 572 1239 q 561 1275 557 1257 q 581 1304 565 1293 q 617 1313 597 1315 q 653 1289 638 1311 l 776 1110 q 781 1074 790 1090 q 752 1055 771 1058 q 717 1068 733 1051 z "},"X":{"ha":903,"x_min":44,"x_max":858,"o":"m 108 -10 q 59 16 74 -10 q 67 69 44 42 l 386 500 l 86 907 q 77 963 63 938 q 124 989 92 989 q 186 951 158 989 l 453 586 l 718 951 q 779 989 744 989 q 827 963 813 989 q 818 907 842 938 l 517 500 l 838 69 q 844 16 858 42 q 796 -10 831 -10 q 733 28 761 -10 l 451 414 l 169 28 q 108 -10 143 -10 z "},"Y":{"ha":828,"x_min":14,"x_max":815,"o":"m 414 -10 q 357 51 357 -10 l 357 464 l 33 908 q 26 962 14 935 q 72 989 38 989 q 135 951 108 989 l 417 564 l 697 951 q 760 989 725 989 q 804 963 793 989 q 794 907 815 938 l 471 461 l 471 51 q 414 -10 471 -10 z "},"Ý":{"ha":828,"x_min":14,"x_max":815,"o":"m 414 -10 q 357 51 357 -10 l 357 464 l 33 908 q 26 962 14 935 q 72 989 38 989 q 135 951 108 989 l 417 564 l 697 951 q 760 989 725 989 q 804 963 793 989 q 794 907 815 938 l 471 461 l 471 51 q 414 -10 471 -10 m 463 1068 q 428 1055 447 1051 q 400 1074 410 1058 q 403 1110 390 1090 l 526 1289 q 562 1313 542 1311 q 598 1304 582 1315 q 619 1275 614 1293 q 607 1239 624 1257 l 463 1068 z "},"Ŷ":{"ha":828,"x_min":14,"x_max":815,"o":"m 414 -10 q 357 51 357 -10 l 357 464 l 33 908 q 26 962 14 935 q 72 989 38 989 q 135 951 108 989 l 417 564 l 697 951 q 760 989 725 989 q 804 963 793 989 q 794 907 815 938 l 471 461 l 471 51 q 414 -10 471 -10 m 281 1067 q 244 1051 264 1049 q 216 1069 225 1054 q 221 1104 207 1085 l 343 1275 q 414 1314 369 1314 q 486 1275 458 1314 l 607 1104 q 612 1069 621 1085 q 583 1051 603 1054 q 549 1067 564 1049 l 414 1228 l 281 1067 z "},"Ÿ":{"ha":828,"x_min":14,"x_max":815,"o":"m 414 -10 q 357 51 357 -10 l 357 464 l 33 908 q 26 962 14 935 q 72 989 38 989 q 135 951 108 989 l 417 564 l 697 951 q 760 989 725 989 q 804 963 793 989 q 794 907 815 938 l 471 461 l 471 51 q 414 -10 471 -10 m 536 1114 q 469 1179 469 1114 q 536 1243 469 1243 q 600 1179 600 1243 q 536 1114 600 1114 m 293 1114 q 228 1179 228 1114 q 293 1243 228 1243 q 358 1179 358 1243 q 293 1114 358 1114 z "},"Ẏ":{"ha":828,"x_min":14,"x_max":815,"o":"m 414 -10 q 357 51 357 -10 l 357 464 l 33 908 q 26 962 14 935 q 72 989 38 989 q 135 951 108 989 l 417 564 l 697 951 q 760 989 725 989 q 804 963 793 989 q 794 907 815 938 l 471 461 l 471 51 q 414 -10 471 -10 m 414 1115 q 346 1182 346 1115 q 414 1247 346 1247 q 482 1182 482 1247 q 414 1115 482 1115 z "},"Ỵ":{"ha":828,"x_min":14,"x_max":815,"o":"m 414 -10 q 357 51 357 -10 l 357 464 l 33 908 q 26 962 14 935 q 72 989 38 989 q 135 951 108 989 l 417 564 l 697 951 q 760 989 725 989 q 804 963 793 989 q 794 907 815 938 l 471 461 l 471 51 q 414 -10 471 -10 m 414 -265 q 346 -199 346 -265 q 414 -133 346 -133 q 483 -199 483 -133 q 414 -265 483 -265 z "},"Ỳ":{"ha":828,"x_min":14,"x_max":815,"o":"m 414 -10 q 357 51 357 -10 l 357 464 l 33 908 q 26 962 14 935 q 72 989 38 989 q 135 951 108 989 l 417 564 l 697 951 q 760 989 725 989 q 804 963 793 989 q 794 907 815 938 l 471 461 l 471 51 q 414 -10 471 -10 m 365 1068 l 221 1239 q 210 1275 206 1257 q 230 1304 214 1293 q 266 1313 246 1315 q 301 1289 286 1311 l 425 1110 q 429 1074 439 1090 q 401 1055 419 1058 q 365 1068 382 1051 z "},"Ƴ":{"ha":851,"x_min":14,"x_max":933,"o":"m 414 -10 q 357 53 357 -10 l 357 464 l 33 908 q 26 962 14 935 q 72 989 39 989 q 108 980 96 989 q 139 947 121 971 l 417 564 l 638 879 q 728 963 676 936 q 842 990 779 990 q 909 981 885 990 q 933 939 933 971 q 896 900 933 899 q 877 901 889 900 q 858 903 865 903 q 792 887 825 903 q 731 833 758 871 l 471 463 l 471 53 q 414 -10 471 -10 z "},"Ỷ":{"ha":828,"x_min":14,"x_max":815,"o":"m 414 -10 q 357 51 357 -10 l 357 464 l 33 908 q 26 962 14 935 q 72 989 38 989 q 135 951 108 989 l 417 564 l 697 951 q 760 989 725 989 q 804 963 793 989 q 794 907 815 938 l 471 461 l 471 51 q 414 -10 471 -10 m 414 1053 q 375 1085 375 1053 q 388 1130 375 1113 q 419 1160 401 1147 q 449 1183 436 1172 q 463 1211 463 1194 q 399 1243 463 1243 q 371 1241 386 1243 q 342 1235 356 1239 q 293 1250 301 1224 q 317 1293 282 1281 q 421 1310 361 1310 q 519 1286 483 1310 q 554 1224 554 1263 q 539 1177 554 1194 q 503 1147 524 1160 q 468 1119 483 1135 q 453 1078 453 1104 q 414 1053 453 1053 z "},"Ȳ":{"ha":828,"x_min":14,"x_max":815,"o":"m 414 -10 q 357 51 357 -10 l 357 464 l 33 908 q 26 962 14 935 q 72 989 38 989 q 135 951 108 989 l 417 564 l 697 951 q 760 989 725 989 q 804 963 793 989 q 794 907 815 938 l 471 461 l 471 51 q 414 -10 471 -10 m 225 1131 q 185 1169 185 1131 q 225 1207 185 1207 l 603 1207 q 644 1169 644 1207 q 603 1131 644 1131 l 225 1131 z "},"Ỹ":{"ha":828,"x_min":14,"x_max":815,"o":"m 414 -10 q 357 51 357 -10 l 357 464 l 33 908 q 26 962 14 935 q 72 989 38 989 q 135 951 108 989 l 417 564 l 697 951 q 760 989 725 989 q 804 963 793 989 q 794 907 815 938 l 471 461 l 471 51 q 414 -10 471 -10 m 158 1083 q 134 1094 143 1083 q 128 1122 125 1104 q 185 1236 142 1196 q 290 1276 228 1276 q 362 1260 328 1276 q 426 1224 396 1244 q 485 1187 457 1203 q 542 1171 514 1171 q 602 1194 578 1171 q 633 1257 626 1218 q 669 1285 640 1286 q 694 1274 685 1285 q 700 1246 703 1264 q 643 1132 686 1172 q 539 1092 600 1092 q 467 1108 501 1092 q 402 1144 433 1124 q 342 1181 371 1165 q 286 1197 314 1197 q 226 1174 250 1197 q 194 1111 201 1150 q 158 1083 188 1082 z "},"Z":{"ha":818,"x_min":53,"x_max":797,"o":"m 119 0 q 65 34 76 0 q 85 111 53 68 l 632 881 l 111 881 q 57 931 57 881 q 111 979 57 979 l 714 979 q 770 946 758 979 q 750 868 782 913 l 203 99 l 743 99 q 797 50 797 99 q 743 0 797 0 l 119 0 z "},"Ź":{"ha":818,"x_min":53,"x_max":797,"o":"m 119 0 q 65 34 76 0 q 85 111 53 68 l 632 881 l 111 881 q 57 931 57 881 q 111 979 57 979 l 714 979 q 770 946 758 979 q 750 868 782 913 l 203 99 l 743 99 q 797 50 797 99 q 743 0 797 0 l 119 0 m 474 1068 q 440 1055 458 1051 q 411 1074 421 1058 q 414 1110 401 1090 l 538 1289 q 573 1313 553 1311 q 609 1304 593 1315 q 630 1275 625 1293 q 618 1239 635 1257 l 474 1068 z "},"Ž":{"ha":818,"x_min":53,"x_max":797,"o":"m 119 0 q 65 34 76 0 q 85 111 53 68 l 632 881 l 111 881 q 57 931 57 881 q 111 979 57 979 l 714 979 q 770 946 758 979 q 750 868 782 913 l 203 99 l 743 99 q 797 50 797 99 q 743 0 797 0 l 119 0 m 425 1050 q 354 1088 381 1050 l 232 1260 q 227 1294 218 1279 q 256 1312 236 1310 q 292 1296 275 1314 l 425 1136 l 560 1296 q 594 1312 575 1314 q 623 1294 614 1310 q 618 1260 632 1279 l 497 1088 q 425 1050 471 1050 z "},"Ż":{"ha":818,"x_min":53,"x_max":797,"o":"m 119 0 q 65 34 76 0 q 85 111 53 68 l 632 881 l 111 881 q 57 931 57 881 q 111 979 57 979 l 714 979 q 770 946 758 979 q 750 868 782 913 l 203 99 l 743 99 q 797 50 797 99 q 743 0 797 0 l 119 0 m 425 1115 q 357 1182 357 1115 q 425 1247 357 1247 q 493 1182 493 1247 q 425 1115 493 1115 z "},"Ẓ":{"ha":818,"x_min":53,"x_max":797,"o":"m 119 0 q 65 34 76 0 q 85 111 53 68 l 632 881 l 111 881 q 57 931 57 881 q 111 979 57 979 l 714 979 q 770 946 758 979 q 750 868 782 913 l 203 99 l 743 99 q 797 50 797 99 q 743 0 797 0 l 119 0 m 426 -265 q 358 -199 358 -265 q 426 -133 358 -133 q 496 -199 496 -133 q 426 -265 496 -265 z "},"a":{"ha":736,"x_min":75,"x_max":633,"o":"m 318 -12 q 194 15 249 -12 q 107 89 139 42 q 75 194 75 136 q 113 311 75 268 q 240 373 151 354 q 481 392 328 392 l 525 392 l 525 435 q 490 559 525 521 q 376 597 454 597 q 278 585 328 597 q 176 544 229 572 q 137 540 153 532 q 115 565 121 547 q 115 601 108 582 q 142 629 121 619 q 262 674 201 660 q 376 688 322 688 q 570 624 507 688 q 633 425 633 560 l 633 49 q 582 -10 633 -10 q 528 49 528 -10 l 528 117 q 447 22 501 57 q 318 -12 392 -12 m 336 72 q 472 130 419 72 q 525 276 525 188 l 525 318 l 482 318 q 305 308 369 318 q 215 272 240 297 q 189 201 189 246 q 228 108 189 144 q 336 72 268 72 z "},"á":{"ha":736,"x_min":75,"x_max":633,"o":"m 318 -12 q 194 15 249 -12 q 107 89 139 42 q 75 194 75 136 q 113 311 75 268 q 240 373 151 354 q 481 392 328 392 l 525 392 l 525 435 q 490 559 525 521 q 376 597 454 597 q 278 585 328 597 q 176 544 229 572 q 137 540 153 532 q 115 565 121 547 q 115 601 108 582 q 142 629 121 619 q 262 674 201 660 q 376 688 322 688 q 570 624 507 688 q 633 425 633 560 l 633 49 q 582 -10 633 -10 q 528 49 528 -10 l 528 117 q 447 22 501 57 q 318 -12 392 -12 m 336 72 q 472 130 419 72 q 525 276 525 188 l 525 318 l 482 318 q 305 308 369 318 q 215 272 240 297 q 189 201 189 246 q 228 108 189 144 q 336 72 268 72 m 424 772 q 392 755 411 753 q 360 772 372 757 q 358 808 349 786 l 475 1035 q 508 1063 488 1058 q 545 1057 528 1067 q 569 1028 563 1047 q 563 989 576 1010 l 424 772 z "},"ă":{"ha":736,"x_min":75,"x_max":633,"o":"m 318 -12 q 194 15 249 -12 q 107 89 139 42 q 75 194 75 136 q 113 311 75 268 q 240 373 151 354 q 481 392 328 392 l 525 392 l 525 435 q 490 559 525 521 q 376 597 454 597 q 278 585 328 597 q 176 544 229 572 q 137 540 153 532 q 115 565 121 547 q 115 601 108 582 q 142 629 121 619 q 262 674 201 660 q 376 688 322 688 q 570 624 507 688 q 633 425 633 560 l 633 49 q 582 -10 633 -10 q 528 49 528 -10 l 528 117 q 447 22 501 57 q 318 -12 392 -12 m 336 72 q 472 130 419 72 q 525 276 525 188 l 525 318 l 482 318 q 305 308 369 318 q 215 272 240 297 q 189 201 189 246 q 228 108 189 144 q 336 72 268 72 m 378 763 q 234 824 289 763 q 167 992 179 886 q 174 1024 164 1011 q 200 1036 183 1036 q 238 1000 233 1038 q 285 879 249 919 q 378 839 322 839 q 471 879 433 839 q 518 1000 508 919 q 556 1036 522 1038 q 582 1024 572 1036 q 589 992 592 1011 q 522 824 578 886 q 378 763 467 763 z "},"ắ":{"ha":736,"x_min":75,"x_max":633,"o":"m 318 -12 q 194 15 249 -12 q 107 89 139 42 q 75 194 75 136 q 113 311 75 268 q 240 373 151 354 q 481 392 328 392 l 525 392 l 525 435 q 490 559 525 521 q 376 597 454 597 q 278 585 328 597 q 176 544 229 572 q 137 540 153 532 q 115 565 121 547 q 115 601 108 582 q 142 629 121 619 q 262 674 201 660 q 376 688 322 688 q 570 624 507 688 q 633 425 633 560 l 633 49 q 582 -10 633 -10 q 528 49 528 -10 l 528 117 q 447 22 501 57 q 318 -12 392 -12 m 336 72 q 472 130 419 72 q 525 276 525 188 l 525 318 l 482 318 q 305 308 369 318 q 215 272 240 297 q 189 201 189 246 q 228 108 189 144 q 336 72 268 72 m 407 919 q 376 906 393 903 q 349 922 358 908 q 351 957 339 936 l 446 1110 q 478 1136 458 1133 q 514 1128 497 1139 q 535 1100 531 1118 q 524 1064 539 1082 l 407 919 m 378 763 q 237 810 293 763 q 165 938 181 857 q 169 970 161 958 q 192 983 176 982 q 229 951 221 986 q 278 866 240 897 q 378 835 317 835 q 477 866 439 835 q 526 951 515 897 q 565 983 535 986 q 590 936 599 979 q 519 809 575 856 q 378 763 463 763 z "},"ặ":{"ha":736,"x_min":75,"x_max":633,"o":"m 318 -12 q 194 15 249 -12 q 107 89 139 42 q 75 194 75 136 q 113 311 75 268 q 240 373 151 354 q 481 392 328 392 l 525 392 l 525 435 q 490 559 525 521 q 376 597 454 597 q 278 585 328 597 q 176 544 229 572 q 137 540 153 532 q 115 565 121 547 q 115 601 108 582 q 142 629 121 619 q 262 674 201 660 q 376 688 322 688 q 570 624 507 688 q 633 425 633 560 l 633 49 q 582 -10 633 -10 q 528 49 528 -10 l 528 117 q 447 22 501 57 q 318 -12 392 -12 m 336 72 q 472 130 419 72 q 525 276 525 188 l 525 318 l 482 318 q 305 308 369 318 q 215 272 240 297 q 189 201 189 246 q 228 108 189 144 q 336 72 268 72 m 372 -265 q 304 -199 304 -265 q 372 -133 304 -133 q 442 -199 442 -133 q 372 -265 442 -265 m 378 763 q 234 824 289 763 q 167 992 179 886 q 174 1024 164 1011 q 200 1036 183 1036 q 238 1000 233 1038 q 285 879 249 919 q 378 839 322 839 q 471 879 433 839 q 518 1000 508 919 q 556 1036 522 1038 q 582 1024 572 1036 q 589 992 592 1011 q 522 824 578 886 q 378 763 467 763 z "},"ằ":{"ha":736,"x_min":75,"x_max":633,"o":"m 318 -12 q 194 15 249 -12 q 107 89 139 42 q 75 194 75 136 q 113 311 75 268 q 240 373 151 354 q 481 392 328 392 l 525 392 l 525 435 q 490 559 525 521 q 376 597 454 597 q 278 585 328 597 q 176 544 229 572 q 137 540 153 532 q 115 565 121 547 q 115 601 108 582 q 142 629 121 619 q 262 674 201 660 q 376 688 322 688 q 570 624 507 688 q 633 425 633 560 l 633 49 q 582 -10 633 -10 q 528 49 528 -10 l 528 117 q 447 22 501 57 q 318 -12 392 -12 m 336 72 q 472 130 419 72 q 525 276 525 188 l 525 318 l 482 318 q 305 308 369 318 q 215 272 240 297 q 189 201 189 246 q 228 108 189 144 q 336 72 268 72 m 349 919 l 232 1064 q 221 1100 217 1082 q 242 1128 225 1118 q 278 1136 258 1139 q 310 1110 297 1133 l 404 957 q 407 922 417 936 q 380 906 397 908 q 349 919 363 903 m 378 763 q 237 809 293 763 q 165 936 181 856 q 190 983 157 979 q 229 951 221 986 q 278 866 240 897 q 378 835 317 835 q 477 866 439 835 q 526 951 515 897 q 564 983 535 986 q 587 970 579 982 q 590 938 594 958 q 519 810 575 857 q 378 763 463 763 z "},"ẳ":{"ha":736,"x_min":75,"x_max":633,"o":"m 318 -12 q 194 15 249 -12 q 107 89 139 42 q 75 194 75 136 q 113 311 75 268 q 240 373 151 354 q 481 392 328 392 l 525 392 l 525 435 q 490 559 525 521 q 376 597 454 597 q 278 585 328 597 q 176 544 229 572 q 137 540 153 532 q 115 565 121 547 q 115 601 108 582 q 142 629 121 619 q 262 674 201 660 q 376 688 322 688 q 570 624 507 688 q 633 425 633 560 l 633 49 q 582 -10 633 -10 q 528 49 528 -10 l 528 117 q 447 22 501 57 q 318 -12 392 -12 m 336 72 q 472 130 419 72 q 525 276 525 188 l 525 318 l 482 318 q 305 308 369 318 q 215 272 240 297 q 189 201 189 246 q 228 108 189 144 q 336 72 268 72 m 401 915 q 369 912 383 907 q 351 928 354 917 q 364 951 347 940 q 410 990 394 971 q 425 1031 425 1008 q 364 1069 425 1069 q 308 1063 338 1069 q 267 1078 275 1054 q 290 1115 258 1104 q 336 1126 313 1124 q 383 1129 360 1129 q 476 1109 443 1129 q 508 1049 508 1089 q 475 972 508 1006 q 401 915 442 939 m 378 763 q 237 809 293 763 q 165 936 181 856 q 190 983 157 979 q 229 951 221 986 q 278 866 240 897 q 378 835 317 835 q 477 866 439 835 q 526 951 515 897 q 564 983 535 986 q 587 970 579 982 q 590 938 594 958 q 519 810 576 857 q 378 763 463 763 z "},"ẵ":{"ha":736,"x_min":75,"x_max":633,"o":"m 318 -12 q 194 15 249 -12 q 107 89 139 42 q 75 194 75 136 q 113 311 75 268 q 240 373 151 354 q 481 392 328 392 l 525 392 l 525 435 q 490 559 525 521 q 376 597 454 597 q 278 585 328 597 q 176 544 229 572 q 137 540 153 532 q 115 565 121 547 q 115 601 108 582 q 142 629 121 619 q 262 674 201 660 q 376 688 322 688 q 570 624 507 688 q 633 425 633 560 l 633 49 q 582 -10 633 -10 q 528 49 528 -10 l 528 117 q 447 22 501 57 q 318 -12 392 -12 m 336 72 q 472 130 419 72 q 525 276 525 188 l 525 318 l 482 318 q 305 308 369 318 q 215 272 240 297 q 189 201 189 246 q 228 108 189 144 q 336 72 268 72 m 190 983 q 168 995 176 985 q 165 1025 160 1006 q 209 1102 176 1076 q 289 1128 242 1128 q 356 1110 326 1128 q 411 1073 385 1092 q 465 1054 438 1054 q 528 1100 515 1054 q 567 1129 538 1132 q 588 1118 581 1129 q 592 1088 596 1107 q 547 1011 579 1038 q 468 985 514 985 q 401 1003 431 985 q 344 1040 371 1022 q 290 1058 318 1058 q 228 1013 242 1058 q 190 983 219 981 m 378 763 q 249 795 303 763 q 174 881 196 828 q 170 911 164 899 q 190 926 176 924 q 235 906 219 933 q 290 853 253 872 q 378 835 326 835 q 467 853 431 835 q 521 906 503 872 q 565 926 536 933 q 585 911 579 924 q 582 881 592 899 q 506 795 560 828 q 378 763 453 763 z "},"ǎ":{"ha":736,"x_min":75,"x_max":633,"o":"m 318 -12 q 194 15 249 -12 q 107 89 139 42 q 75 194 75 136 q 113 311 75 268 q 240 373 151 354 q 481 392 328 392 l 525 392 l 525 435 q 490 559 525 521 q 376 597 454 597 q 278 585 328 597 q 176 544 229 572 q 137 540 153 532 q 115 565 121 547 q 115 601 108 582 q 142 629 121 619 q 262 674 201 660 q 376 688 322 688 q 570 624 507 688 q 633 425 633 560 l 633 49 q 582 -10 633 -10 q 528 49 528 -10 l 528 117 q 447 22 501 57 q 318 -12 392 -12 m 336 72 q 472 130 419 72 q 525 276 525 188 l 525 318 l 482 318 q 305 308 369 318 q 215 272 240 297 q 189 201 189 246 q 228 108 189 144 q 336 72 268 72 m 378 747 q 310 793 335 747 l 194 1003 q 194 1040 183 1025 q 224 1056 206 1054 q 254 1039 243 1058 l 378 840 l 501 1039 q 531 1056 513 1058 q 561 1040 550 1054 q 561 1003 572 1025 l 446 793 q 378 747 422 747 z "},"â":{"ha":736,"x_min":75,"x_max":633,"o":"m 318 -12 q 194 15 249 -12 q 107 89 139 42 q 75 194 75 136 q 113 311 75 268 q 240 373 151 354 q 481 392 328 392 l 525 392 l 525 435 q 490 559 525 521 q 376 597 454 597 q 278 585 328 597 q 176 544 229 572 q 137 540 153 532 q 115 565 121 547 q 115 601 108 582 q 142 629 121 619 q 262 674 201 660 q 376 688 322 688 q 570 624 507 688 q 633 425 633 560 l 633 49 q 582 -10 633 -10 q 528 49 528 -10 l 528 117 q 447 22 501 57 q 318 -12 392 -12 m 336 72 q 472 130 419 72 q 525 276 525 188 l 525 318 l 482 318 q 305 308 369 318 q 215 272 240 297 q 189 201 189 246 q 228 108 189 144 q 336 72 268 72 m 561 808 q 561 772 572 786 q 531 755 550 757 q 501 772 513 753 l 378 971 l 254 772 q 224 755 243 753 q 194 772 206 757 q 194 808 183 786 l 310 1019 q 378 1064 333 1064 q 446 1019 422 1064 l 561 808 z "},"ấ":{"ha":736,"x_min":75,"x_max":710,"o":"m 318 -12 q 194 15 249 -12 q 107 89 139 42 q 75 194 75 136 q 113 311 75 268 q 240 373 151 354 q 481 392 328 392 l 525 392 l 525 435 q 490 559 525 521 q 376 597 454 597 q 278 585 328 597 q 176 544 229 572 q 137 540 153 532 q 115 565 121 547 q 115 601 108 582 q 142 629 121 619 q 262 674 201 660 q 376 688 322 688 q 570 624 507 688 q 633 425 633 560 l 633 49 q 582 -10 633 -10 q 528 49 528 -10 l 528 117 q 447 22 501 57 q 318 -12 392 -12 m 336 72 q 472 130 419 72 q 525 276 525 188 l 525 318 l 482 318 q 305 308 369 318 q 215 272 240 297 q 189 201 189 246 q 228 108 189 144 q 336 72 268 72 m 576 903 q 548 890 564 888 q 524 906 532 892 q 526 940 515 921 l 622 1106 q 653 1131 635 1128 q 685 1126 671 1135 q 705 1099 700 1117 q 694 1064 710 1082 l 576 903 m 254 771 q 221 755 239 753 q 194 772 203 757 q 200 807 186 786 l 308 967 q 340 996 322 988 q 378 1004 357 1004 q 416 996 399 1004 q 447 967 433 988 l 556 807 q 561 772 569 786 q 535 755 553 757 q 501 771 518 753 l 378 918 l 254 771 z "},"ậ":{"ha":736,"x_min":75,"x_max":633,"o":"m 318 -12 q 194 15 249 -12 q 107 89 139 42 q 75 194 75 136 q 113 311 75 268 q 240 373 151 354 q 481 392 328 392 l 525 392 l 525 435 q 490 559 525 521 q 376 597 454 597 q 278 585 328 597 q 176 544 229 572 q 137 540 153 532 q 115 565 121 547 q 115 601 108 582 q 142 629 121 619 q 262 674 201 660 q 376 688 322 688 q 570 624 507 688 q 633 425 633 560 l 633 49 q 582 -10 633 -10 q 528 49 528 -10 l 528 117 q 447 22 501 57 q 318 -12 392 -12 m 336 72 q 472 130 419 72 q 525 276 525 188 l 525 318 l 482 318 q 305 308 369 318 q 215 272 240 297 q 189 201 189 246 q 228 108 189 144 q 336 72 268 72 m 372 -265 q 304 -199 304 -265 q 372 -133 304 -133 q 442 -199 442 -133 q 372 -265 442 -265 m 561 808 q 561 772 572 786 q 531 755 550 757 q 501 772 513 753 l 378 971 l 254 772 q 224 755 243 753 q 194 772 206 757 q 194 808 183 786 l 310 1019 q 378 1064 333 1064 q 446 1019 422 1064 l 561 808 z "},"ầ":{"ha":736,"x_min":75,"x_max":633,"o":"m 318 -12 q 194 15 249 -12 q 107 89 139 42 q 75 194 75 136 q 113 311 75 268 q 240 373 151 354 q 481 392 328 392 l 525 392 l 525 435 q 490 559 525 521 q 376 597 454 597 q 278 585 328 597 q 176 544 229 572 q 137 540 153 532 q 115 565 121 547 q 115 601 108 582 q 142 629 121 619 q 262 674 201 660 q 376 688 322 688 q 570 624 507 688 q 633 425 633 560 l 633 49 q 582 -10 633 -10 q 528 49 528 -10 l 528 117 q 447 22 501 57 q 318 -12 392 -12 m 336 72 q 472 130 419 72 q 525 276 525 188 l 525 318 l 482 318 q 305 308 369 318 q 215 272 240 297 q 189 201 189 246 q 228 108 189 144 q 336 72 268 72 m 569 903 l 450 1064 q 441 1099 436 1082 q 460 1126 446 1117 q 493 1131 475 1135 q 524 1106 511 1128 l 619 940 q 622 906 631 921 q 597 890 614 892 q 569 903 581 888 m 254 771 q 221 755 239 753 q 194 772 203 757 q 200 807 186 786 l 308 967 q 340 996 322 988 q 378 1004 357 1004 q 416 996 399 1004 q 447 967 433 988 l 556 807 q 561 772 569 786 q 535 755 553 757 q 501 771 518 753 l 378 918 l 254 771 z "},"ẩ":{"ha":736,"x_min":75,"x_max":683,"o":"m 318 -12 q 194 15 249 -12 q 107 89 139 42 q 75 194 75 136 q 113 311 75 268 q 240 373 151 354 q 481 392 328 392 l 525 392 l 525 435 q 490 559 525 521 q 376 597 454 597 q 278 585 328 597 q 176 544 229 572 q 137 540 153 532 q 115 565 121 547 q 115 601 108 582 q 142 629 121 619 q 262 674 201 660 q 376 688 322 688 q 570 624 507 688 q 633 425 633 560 l 633 49 q 582 -10 633 -10 q 528 49 528 -10 l 528 117 q 447 22 501 57 q 318 -12 392 -12 m 336 72 q 472 130 419 72 q 525 276 525 188 l 525 318 l 482 318 q 305 308 369 318 q 215 272 240 297 q 189 201 189 246 q 228 108 189 144 q 336 72 268 72 m 571 904 q 540 901 554 896 q 524 919 526 907 q 538 943 521 932 q 585 983 568 964 q 601 1025 601 1001 q 539 1064 601 1064 q 485 1057 514 1064 q 442 1072 450 1049 q 467 1111 433 1100 q 511 1121 488 1118 q 560 1124 535 1124 q 651 1103 618 1124 q 683 1042 683 1083 q 647 962 683 997 q 571 904 611 926 m 254 771 q 221 755 239 753 q 194 772 203 757 q 200 807 186 786 l 308 967 q 340 996 322 988 q 378 1004 357 1004 q 416 996 399 1004 q 447 967 433 988 l 556 807 q 561 772 569 786 q 535 755 553 757 q 501 771 518 753 l 378 918 l 254 771 z "},"ẫ":{"ha":736,"x_min":75,"x_max":633,"o":"m 318 -12 q 194 15 249 -12 q 107 89 139 42 q 75 194 75 136 q 113 311 75 268 q 240 373 151 354 q 481 392 328 392 l 525 392 l 525 435 q 490 559 525 521 q 376 597 454 597 q 278 585 328 597 q 176 544 229 572 q 137 540 153 532 q 115 565 121 547 q 115 601 108 582 q 142 629 121 619 q 262 674 201 660 q 376 688 322 688 q 570 624 507 688 q 633 425 633 560 l 633 49 q 582 -10 633 -10 q 528 49 528 -10 l 528 117 q 447 22 501 57 q 318 -12 392 -12 m 336 72 q 472 130 419 72 q 525 276 525 188 l 525 318 l 482 318 q 305 308 369 318 q 215 272 240 297 q 189 201 189 246 q 228 108 189 144 q 336 72 268 72 m 190 983 q 168 995 176 985 q 165 1025 160 1006 q 209 1102 176 1076 q 289 1128 242 1128 q 356 1110 326 1128 q 411 1073 385 1092 q 465 1054 438 1054 q 528 1100 515 1054 q 567 1129 538 1132 q 588 1118 581 1129 q 592 1088 596 1107 q 547 1011 579 1038 q 468 985 514 985 q 401 1003 431 985 q 344 1040 371 1022 q 290 1058 318 1058 q 228 1013 242 1058 q 190 983 219 981 m 247 765 q 215 755 231 751 q 194 772 200 758 q 203 801 189 786 l 304 924 q 339 951 321 943 q 378 958 357 958 q 417 951 399 958 q 451 924 435 943 l 553 801 q 561 772 567 786 q 540 755 556 758 q 508 765 525 751 l 378 883 l 247 765 z "},"ȁ":{"ha":736,"x_min":75,"x_max":633,"o":"m 318 -12 q 194 15 249 -12 q 107 89 139 42 q 75 194 75 136 q 113 311 75 268 q 240 373 151 354 q 481 392 328 392 l 525 392 l 525 435 q 490 559 525 521 q 376 597 454 597 q 278 585 328 597 q 176 544 229 572 q 137 540 153 532 q 115 565 121 547 q 115 601 108 582 q 142 629 121 619 q 262 674 201 660 q 376 688 322 688 q 570 624 507 688 q 633 425 633 560 l 633 49 q 582 -10 633 -10 q 528 49 528 -10 l 528 117 q 447 22 501 57 q 318 -12 392 -12 m 336 72 q 472 130 419 72 q 525 276 525 188 l 525 318 l 482 318 q 305 308 369 318 q 215 272 240 297 q 189 201 189 246 q 228 108 189 144 q 336 72 268 72 m 432 775 l 339 1001 q 339 1041 329 1025 q 367 1062 349 1057 q 405 1058 386 1067 q 431 1022 424 1049 l 492 793 q 485 763 497 774 q 456 755 472 753 q 432 775 439 757 m 256 775 l 163 1001 q 161 1041 151 1025 q 190 1062 171 1057 q 228 1058 210 1067 q 253 1022 246 1049 l 315 793 q 308 763 321 774 q 279 755 296 753 q 256 775 263 757 z "},"ä":{"ha":736,"x_min":75,"x_max":633,"o":"m 318 -12 q 194 15 249 -12 q 107 89 139 42 q 75 194 75 136 q 113 311 75 268 q 240 373 151 354 q 481 392 328 392 l 525 392 l 525 435 q 490 559 525 521 q 376 597 454 597 q 278 585 328 597 q 176 544 229 572 q 137 540 153 532 q 115 565 121 547 q 115 601 108 582 q 142 629 121 619 q 262 674 201 660 q 376 688 322 688 q 570 624 507 688 q 633 425 633 560 l 633 49 q 582 -10 633 -10 q 528 49 528 -10 l 528 117 q 447 22 501 57 q 318 -12 392 -12 m 336 72 q 472 130 419 72 q 525 276 525 188 l 525 318 l 482 318 q 305 308 369 318 q 215 272 240 297 q 189 201 189 246 q 228 108 189 144 q 336 72 268 72 m 500 842 q 433 906 433 842 q 500 971 433 971 q 564 906 564 971 q 500 842 564 842 m 257 842 q 192 906 192 842 q 257 971 192 971 q 322 906 322 971 q 257 842 322 842 z "},"ȧ":{"ha":736,"x_min":75,"x_max":633,"o":"m 318 -12 q 194 15 249 -12 q 107 89 139 42 q 75 194 75 136 q 113 311 75 268 q 240 373 151 354 q 481 392 328 392 l 525 392 l 525 435 q 490 559 525 521 q 376 597 454 597 q 278 585 328 597 q 176 544 229 572 q 137 540 153 532 q 115 565 121 547 q 115 601 108 582 q 142 629 121 619 q 262 674 201 660 q 376 688 322 688 q 570 624 507 688 q 633 425 633 560 l 633 49 q 582 -10 633 -10 q 528 49 528 -10 l 528 117 q 447 22 501 57 q 318 -12 392 -12 m 336 72 q 472 130 419 72 q 525 276 525 188 l 525 318 l 482 318 q 305 308 369 318 q 215 272 240 297 q 189 201 189 246 q 228 108 189 144 q 336 72 268 72 m 378 840 q 310 907 310 840 q 378 974 310 974 q 447 907 447 974 q 378 840 447 840 z "},"ạ":{"ha":736,"x_min":75,"x_max":633,"o":"m 318 -12 q 194 15 249 -12 q 107 89 139 42 q 75 194 75 136 q 113 311 75 268 q 240 373 151 354 q 481 392 328 392 l 525 392 l 525 435 q 490 559 525 521 q 376 597 454 597 q 278 585 328 597 q 176 544 229 572 q 137 540 153 532 q 115 565 121 547 q 115 601 108 582 q 142 629 121 619 q 262 674 201 660 q 376 688 322 688 q 570 624 507 688 q 633 425 633 560 l 633 49 q 582 -10 633 -10 q 528 49 528 -10 l 528 117 q 447 22 501 57 q 318 -12 392 -12 m 336 72 q 472 130 419 72 q 525 276 525 188 l 525 318 l 482 318 q 305 308 369 318 q 215 272 240 297 q 189 201 189 246 q 228 108 189 144 q 336 72 268 72 m 372 -265 q 304 -199 304 -265 q 372 -133 304 -133 q 442 -199 442 -133 q 372 -265 442 -265 z "},"à":{"ha":736,"x_min":75,"x_max":633,"o":"m 318 -12 q 194 15 249 -12 q 107 89 139 42 q 75 194 75 136 q 113 311 75 268 q 240 373 151 354 q 481 392 328 392 l 525 392 l 525 435 q 490 559 525 521 q 376 597 454 597 q 278 585 328 597 q 176 544 229 572 q 137 540 153 532 q 115 565 121 547 q 115 601 108 582 q 142 629 121 619 q 262 674 201 660 q 376 688 322 688 q 570 624 507 688 q 633 425 633 560 l 633 49 q 582 -10 633 -10 q 528 49 528 -10 l 528 117 q 447 22 501 57 q 318 -12 392 -12 m 336 72 q 472 130 419 72 q 525 276 525 188 l 525 318 l 482 318 q 305 308 369 318 q 215 272 240 297 q 189 201 189 246 q 228 108 189 144 q 336 72 268 72 m 333 772 l 193 989 q 186 1028 179 1010 q 211 1057 193 1047 q 249 1063 229 1067 q 281 1035 268 1058 l 397 808 q 397 772 408 786 q 365 756 385 757 q 333 772 346 754 z "},"ả":{"ha":736,"x_min":75,"x_max":633,"o":"m 318 -12 q 194 15 249 -12 q 107 89 139 42 q 75 194 75 136 q 113 311 75 268 q 240 373 151 354 q 481 392 328 392 l 525 392 l 525 435 q 490 559 525 521 q 376 597 454 597 q 278 585 328 597 q 176 544 229 572 q 137 540 153 532 q 115 565 121 547 q 115 601 108 582 q 142 629 121 619 q 262 674 201 660 q 376 688 322 688 q 570 624 507 688 q 633 425 633 560 l 633 49 q 582 -10 633 -10 q 528 49 528 -10 l 528 117 q 447 22 501 57 q 318 -12 392 -12 m 336 72 q 472 130 419 72 q 525 276 525 188 l 525 318 l 482 318 q 305 308 369 318 q 215 272 240 297 q 189 201 189 246 q 228 108 189 144 q 336 72 268 72 m 378 756 q 340 788 340 756 q 353 844 340 822 q 383 883 365 867 q 413 913 400 899 q 426 947 426 928 q 363 986 426 986 q 333 984 349 986 q 301 976 317 982 q 256 990 265 964 q 279 1036 244 1021 q 328 1050 301 1046 q 383 1054 354 1054 q 483 1029 447 1054 q 518 960 518 1004 q 503 904 518 925 q 467 867 488 883 q 431 833 447 851 q 415 786 415 815 q 378 756 415 756 z "},"ȃ":{"ha":736,"x_min":75,"x_max":633,"o":"m 318 -12 q 194 15 249 -12 q 107 89 139 42 q 75 194 75 136 q 113 311 75 268 q 240 373 151 354 q 481 392 328 392 l 525 392 l 525 435 q 490 559 525 521 q 376 597 454 597 q 278 585 328 597 q 176 544 229 572 q 137 540 153 532 q 115 565 121 547 q 115 601 108 582 q 142 629 121 619 q 262 674 201 660 q 376 688 322 688 q 570 624 507 688 q 633 425 633 560 l 633 49 q 582 -10 633 -10 q 528 49 528 -10 l 528 117 q 447 22 501 57 q 318 -12 392 -12 m 336 72 q 472 130 419 72 q 525 276 525 188 l 525 318 l 482 318 q 305 308 369 318 q 215 272 240 297 q 189 201 189 246 q 228 108 189 144 q 336 72 268 72 m 200 760 q 174 772 183 760 q 167 804 164 785 q 233 972 178 910 q 378 1033 289 1033 q 522 972 467 1033 q 589 804 578 910 q 582 772 592 785 q 556 760 572 760 q 518 796 522 758 q 471 917 508 876 q 378 957 433 957 q 285 917 322 957 q 238 796 247 876 q 200 760 233 758 z "},"ā":{"ha":736,"x_min":75,"x_max":633,"o":"m 318 -12 q 194 15 249 -12 q 107 89 139 42 q 75 194 75 136 q 113 311 75 268 q 240 373 151 354 q 481 392 328 392 l 525 392 l 525 435 q 490 559 525 521 q 376 597 454 597 q 278 585 328 597 q 176 544 229 572 q 137 540 153 532 q 115 565 121 547 q 115 601 108 582 q 142 629 121 619 q 262 674 201 660 q 376 688 322 688 q 570 624 507 688 q 633 425 633 560 l 633 49 q 582 -10 633 -10 q 528 49 528 -10 l 528 117 q 447 22 501 57 q 318 -12 392 -12 m 336 72 q 472 130 419 72 q 525 276 525 188 l 525 318 l 482 318 q 305 308 369 318 q 215 272 240 297 q 189 201 189 246 q 228 108 189 144 q 336 72 268 72 m 210 868 q 169 906 169 868 q 210 944 169 944 l 546 944 q 588 906 588 944 q 546 868 588 868 l 210 868 z "},"ą":{"ha":736,"x_min":75,"x_max":694,"o":"m 585 -267 q 478 -231 518 -267 q 439 -132 439 -194 q 463 -46 439 -87 q 531 26 488 -4 q 528 50 528 36 l 528 117 q 447 22 501 57 q 318 -12 392 -12 q 194 15 249 -12 q 107 89 139 42 q 75 194 75 136 q 113 311 75 268 q 240 373 151 354 q 481 392 328 392 l 525 392 l 525 435 q 490 559 525 521 q 376 597 454 597 q 278 585 328 597 q 176 544 229 572 q 137 540 153 532 q 115 565 121 547 q 115 601 108 582 q 142 629 121 619 q 262 674 201 660 q 376 688 322 688 q 570 624 507 688 q 633 425 633 560 l 633 49 q 624 12 633 25 q 599 -8 615 -1 q 544 -53 568 -25 q 519 -119 519 -81 q 542 -178 519 -160 q 600 -197 565 -197 q 647 -189 622 -197 q 684 -196 674 -182 q 690 -228 694 -210 q 667 -254 686 -247 q 625 -265 646 -262 q 585 -267 604 -267 m 336 72 q 472 130 419 72 q 525 276 525 188 l 525 318 l 482 318 q 305 308 369 318 q 215 272 240 297 q 189 201 189 246 q 228 108 189 144 q 336 72 268 72 z "},"å":{"ha":736,"x_min":75,"x_max":633,"o":"m 318 -12 q 194 15 249 -12 q 107 89 139 42 q 75 194 75 136 q 113 311 75 268 q 240 373 151 354 q 481 392 328 392 l 525 392 l 525 435 q 490 559 525 521 q 376 597 454 597 q 278 585 328 597 q 176 544 229 572 q 137 540 153 532 q 115 565 121 547 q 115 601 108 582 q 142 629 121 619 q 262 674 201 660 q 376 688 322 688 q 570 624 507 688 q 633 425 633 560 l 633 49 q 582 -10 633 -10 q 528 49 528 -10 l 528 117 q 447 22 501 57 q 318 -12 392 -12 m 336 72 q 472 130 419 72 q 525 276 525 188 l 525 318 l 482 318 q 305 308 369 318 q 215 272 240 297 q 189 201 189 246 q 228 108 189 144 q 336 72 268 72 m 378 760 q 260 806 308 760 q 213 921 213 853 q 260 1034 213 988 q 378 1081 308 1081 q 495 1034 447 1081 q 543 921 543 988 q 495 806 543 853 q 378 760 447 760 m 378 819 q 450 849 422 819 q 478 921 478 878 q 450 992 478 963 q 378 1021 422 1021 q 306 992 335 1021 q 278 921 278 963 q 306 849 278 878 q 378 819 335 819 z "},"ǻ":{"ha":736,"x_min":75,"x_max":642,"o":"m 318 -12 q 194 15 249 -12 q 107 89 139 42 q 75 194 75 136 q 113 311 75 268 q 240 373 151 354 q 481 392 328 392 l 525 392 l 525 435 q 490 559 525 521 q 376 597 454 597 q 278 585 328 597 q 176 544 229 572 q 137 540 153 532 q 115 565 121 547 q 115 601 108 582 q 142 629 121 619 q 262 674 201 660 q 376 688 322 688 q 570 624 507 688 q 633 425 633 560 l 633 49 q 582 -10 633 -10 q 528 49 528 -10 l 528 117 q 447 22 501 57 q 318 -12 392 -12 m 336 72 q 472 130 419 72 q 525 276 525 188 l 525 318 l 482 318 q 305 308 369 318 q 215 272 240 297 q 189 201 189 246 q 228 108 189 144 q 336 72 268 72 m 378 756 q 263 801 310 756 q 217 913 217 847 q 263 1025 217 979 q 378 1071 310 1071 q 469 1043 428 1071 l 572 1139 q 610 1149 592 1157 q 635 1123 629 1142 q 624 1088 642 1104 l 515 997 q 539 913 539 960 q 492 801 539 847 q 378 756 446 756 m 378 814 q 450 842 422 814 q 478 913 478 871 q 450 984 478 956 q 378 1013 422 1013 q 306 984 335 1013 q 278 913 278 956 q 306 842 278 871 q 378 814 335 814 z "},"ã":{"ha":736,"x_min":75,"x_max":633,"o":"m 318 -12 q 194 15 249 -12 q 107 89 139 42 q 75 194 75 136 q 113 311 75 268 q 240 373 151 354 q 481 392 328 392 l 525 392 l 525 435 q 490 559 525 521 q 376 597 454 597 q 278 585 328 597 q 176 544 229 572 q 137 540 153 532 q 115 565 121 547 q 115 601 108 582 q 142 629 121 619 q 262 674 201 660 q 376 688 322 688 q 570 624 507 688 q 633 425 633 560 l 633 49 q 582 -10 633 -10 q 528 49 528 -10 l 528 117 q 447 22 501 57 q 318 -12 392 -12 m 336 72 q 472 130 419 72 q 525 276 525 188 l 525 318 l 482 318 q 305 308 369 318 q 215 272 240 297 q 189 201 189 246 q 228 108 189 144 q 336 72 268 72 m 160 815 q 137 825 146 815 q 132 854 128 835 q 178 964 143 919 q 276 1008 214 1008 q 336 992 310 1008 q 385 956 363 976 q 431 919 408 935 q 478 903 453 903 q 531 926 510 903 q 560 992 551 950 q 596 1017 565 1018 q 619 1007 610 1017 q 624 978 628 997 q 577 869 613 914 q 479 824 542 824 q 419 840 446 824 q 370 876 393 856 q 325 913 347 897 q 278 929 303 929 q 225 906 246 929 q 196 840 204 882 q 160 815 190 814 z "},"æ":{"ha":1196,"x_min":75,"x_max":1138,"o":"m 325 -12 q 196 15 253 -12 q 107 89 139 42 q 75 194 75 136 q 113 311 75 268 q 241 373 151 354 q 482 392 331 392 l 529 392 l 529 433 q 492 558 529 519 q 378 597 456 597 q 279 585 328 597 q 176 544 231 572 q 137 540 153 532 q 115 565 121 547 q 115 601 108 582 q 143 629 121 619 q 263 674 203 660 q 379 688 324 688 q 606 560 553 688 q 709 655 644 622 q 851 689 774 688 q 1060 601 983 689 q 1138 358 1138 513 l 1138 354 q 1090 317 1138 317 l 639 317 q 703 139 646 200 q 869 78 761 78 q 960 90 911 78 q 1053 132 1008 103 q 1106 140 1085 153 q 1128 102 1126 128 q 1100 57 1129 76 q 992 6 1053 24 q 871 -12 931 -12 q 690 31 767 -12 q 576 157 614 74 q 483 33 549 78 q 325 -12 418 -12 m 850 604 q 706 547 761 604 q 640 392 650 490 l 1042 392 q 989 548 1038 492 q 850 604 940 604 m 339 72 q 476 132 424 72 q 529 283 529 192 l 529 317 l 482 317 q 305 307 369 317 q 215 272 240 297 q 189 201 189 246 q 228 108 189 144 q 339 72 268 72 z "},"ǽ":{"ha":1196,"x_min":75,"x_max":1138,"o":"m 325 -12 q 196 15 253 -12 q 107 89 139 42 q 75 194 75 136 q 113 311 75 268 q 241 373 151 354 q 482 392 331 392 l 529 392 l 529 433 q 492 558 529 519 q 378 597 456 597 q 279 585 328 597 q 176 544 231 572 q 137 540 153 532 q 115 565 121 547 q 115 601 108 582 q 143 629 121 619 q 263 674 203 660 q 379 688 324 688 q 606 560 553 688 q 709 655 644 622 q 851 689 774 688 q 1060 601 983 689 q 1138 358 1138 513 l 1138 354 q 1090 317 1138 317 l 639 317 q 703 139 646 200 q 869 78 761 78 q 960 90 911 78 q 1053 132 1008 103 q 1106 140 1085 153 q 1128 102 1126 128 q 1100 57 1129 76 q 992 6 1053 24 q 871 -12 931 -12 q 690 31 767 -12 q 576 157 614 74 q 483 33 549 78 q 325 -12 418 -12 m 850 604 q 706 547 761 604 q 640 392 650 490 l 1042 392 q 989 548 1038 492 q 850 604 940 604 m 339 72 q 476 132 424 72 q 529 283 529 192 l 529 317 l 482 317 q 305 307 369 317 q 215 272 240 297 q 189 201 189 246 q 228 108 189 144 q 339 72 268 72 m 624 772 q 592 755 611 753 q 560 772 572 757 q 558 808 549 786 l 675 1035 q 708 1063 688 1058 q 745 1057 728 1067 q 769 1028 763 1047 q 763 989 776 1010 l 624 772 z "},"b":{"ha":810,"x_min":106,"x_max":746,"o":"m 447 -12 q 307 23 368 -12 q 217 121 246 58 l 217 49 q 161 -10 217 -10 q 106 49 106 -10 l 106 932 q 161 989 106 989 q 218 932 218 989 l 218 558 q 308 653 247 618 q 447 688 369 688 q 605 645 538 688 q 709 524 672 603 q 746 338 746 446 q 709 152 746 231 q 605 31 672 74 q 447 -12 538 -12 m 424 78 q 575 145 518 78 q 632 338 632 213 q 575 531 632 464 q 424 597 518 597 q 272 531 329 597 q 215 338 215 464 q 272 145 215 213 q 424 78 329 78 z "},"ɓ":{"ha":810,"x_min":106,"x_max":746,"o":"m 447 -12 q 307 23 368 -12 q 217 121 246 58 l 217 49 q 161 -10 217 -10 q 106 49 106 -10 l 106 754 q 164 928 106 867 q 335 990 222 990 q 401 978 381 990 q 421 942 421 967 q 411 908 421 921 q 385 896 401 894 q 367 897 376 896 q 346 899 358 899 q 218 757 218 899 l 218 558 q 308 653 247 618 q 447 688 369 688 q 605 645 538 688 q 709 524 672 603 q 746 338 746 446 q 709 152 746 231 q 605 31 672 74 q 447 -12 538 -12 m 424 78 q 575 145 518 78 q 632 338 632 213 q 575 531 632 464 q 424 597 518 597 q 272 531 329 597 q 215 338 215 464 q 272 145 215 213 q 424 78 329 78 z "},"c":{"ha":643,"x_min":64,"x_max":618,"o":"m 392 -12 q 217 31 290 -12 q 103 155 143 75 q 64 342 64 235 q 151 595 64 503 q 392 688 239 688 q 496 672 442 688 q 594 619 550 656 q 615 578 618 603 q 591 540 611 553 q 544 546 571 528 q 470 585 507 574 q 399 596 433 596 q 236 530 293 596 q 179 340 179 464 q 236 149 179 219 q 399 79 293 79 q 470 90 433 79 q 544 129 507 101 q 590 134 571 147 q 612 96 610 121 q 592 56 614 71 q 494 3 547 19 q 392 -12 442 -12 z "},"ć":{"ha":643,"x_min":64,"x_max":618,"o":"m 392 -12 q 217 31 290 -12 q 103 155 143 75 q 64 342 64 235 q 151 595 64 503 q 392 688 239 688 q 496 672 442 688 q 594 619 550 656 q 615 578 618 603 q 591 540 611 553 q 544 546 571 528 q 470 585 507 574 q 399 596 433 596 q 236 530 293 596 q 179 340 179 464 q 236 149 179 219 q 399 79 293 79 q 470 90 433 79 q 544 129 507 101 q 590 134 571 147 q 612 96 610 121 q 592 56 614 71 q 494 3 547 19 q 392 -12 442 -12 m 432 772 q 400 755 419 753 q 369 772 381 757 q 367 808 357 786 l 483 1035 q 516 1063 496 1058 q 553 1057 536 1067 q 578 1028 571 1047 q 571 989 585 1010 l 432 772 z "},"č":{"ha":643,"x_min":64,"x_max":618,"o":"m 392 -12 q 217 31 290 -12 q 103 155 143 75 q 64 342 64 235 q 151 595 64 503 q 392 688 239 688 q 496 672 442 688 q 594 619 550 656 q 615 578 618 603 q 591 540 611 553 q 544 546 571 528 q 470 585 507 574 q 399 596 433 596 q 236 530 293 596 q 179 340 179 464 q 236 149 179 219 q 399 79 293 79 q 470 90 433 79 q 544 129 507 101 q 590 134 571 147 q 612 96 610 121 q 592 56 614 71 q 494 3 547 19 q 392 -12 442 -12 m 386 747 q 318 793 343 747 l 203 1003 q 203 1040 192 1025 q 233 1056 214 1054 q 263 1039 251 1058 l 386 840 l 510 1039 q 540 1056 521 1058 q 569 1040 558 1054 q 569 1003 581 1025 l 454 793 q 386 747 431 747 z "},"ç":{"ha":643,"x_min":64,"x_max":618,"o":"m 392 -12 q 217 31 290 -12 q 103 155 143 75 q 64 342 64 235 q 151 595 64 503 q 392 688 239 688 q 496 672 442 688 q 594 619 550 656 q 615 578 618 603 q 591 540 611 553 q 544 546 571 528 q 470 585 507 574 q 399 596 433 596 q 236 530 293 596 q 179 340 179 464 q 236 149 179 219 q 399 79 293 79 q 470 90 433 79 q 544 129 507 101 q 590 134 571 147 q 612 96 610 121 q 592 56 614 71 q 494 3 547 19 q 392 -12 442 -12 m 390 -267 q 338 -263 365 -267 q 289 -250 311 -260 q 266 -224 268 -242 q 276 -193 264 -206 q 310 -189 288 -181 q 388 -201 340 -201 q 446 -188 424 -201 q 468 -150 468 -175 q 415 -111 468 -111 q 394 -112 404 -111 q 369 -117 383 -114 q 336 -117 347 -124 q 331 -82 326 -108 l 347 28 l 418 28 l 403 -60 q 429 -58 417 -58 q 513 -83 481 -58 q 546 -153 546 -108 q 503 -235 546 -204 q 390 -267 460 -267 z "},"ḉ":{"ha":643,"x_min":64,"x_max":618,"o":"m 392 -12 q 217 31 290 -12 q 103 155 143 75 q 64 342 64 235 q 151 595 64 503 q 392 688 239 688 q 496 672 442 688 q 594 619 550 656 q 615 578 618 603 q 591 540 611 553 q 544 546 571 528 q 470 585 507 574 q 399 596 433 596 q 236 530 293 596 q 179 340 179 464 q 236 149 179 219 q 399 79 293 79 q 470 90 433 79 q 544 129 507 101 q 590 134 571 147 q 612 96 610 121 q 592 56 614 71 q 494 3 547 19 q 392 -12 442 -12 m 390 -267 q 338 -263 365 -267 q 289 -250 311 -260 q 266 -224 268 -242 q 276 -193 264 -206 q 310 -189 288 -181 q 388 -201 340 -201 q 446 -188 424 -201 q 468 -150 468 -175 q 415 -111 468 -111 q 394 -112 404 -111 q 369 -117 383 -114 q 336 -117 347 -124 q 331 -82 326 -108 l 347 28 l 418 28 l 403 -60 q 429 -58 417 -58 q 513 -83 481 -58 q 546 -153 546 -108 q 503 -235 546 -204 q 390 -267 460 -267 m 432 772 q 400 755 419 753 q 369 772 381 757 q 367 808 357 786 l 483 1035 q 516 1063 496 1058 q 553 1057 536 1067 q 578 1028 571 1047 q 571 989 585 1010 l 432 772 z "},"ĉ":{"ha":643,"x_min":64,"x_max":618,"o":"m 392 -12 q 217 31 290 -12 q 103 155 143 75 q 64 342 64 235 q 151 595 64 503 q 392 688 239 688 q 496 672 442 688 q 594 619 550 656 q 615 578 618 603 q 591 540 611 553 q 544 546 571 528 q 470 585 507 574 q 399 596 433 596 q 236 530 293 596 q 179 340 179 464 q 236 149 179 219 q 399 79 293 79 q 470 90 433 79 q 544 129 507 101 q 590 134 571 147 q 612 96 610 121 q 592 56 614 71 q 494 3 547 19 q 392 -12 442 -12 m 569 808 q 569 772 581 786 q 540 755 558 757 q 510 772 521 753 l 386 971 l 263 772 q 233 755 251 753 q 203 772 214 757 q 203 808 192 786 l 318 1019 q 386 1064 342 1064 q 454 1019 431 1064 l 569 808 z "},"ċ":{"ha":643,"x_min":64,"x_max":618,"o":"m 392 -12 q 217 31 290 -12 q 103 155 143 75 q 64 342 64 235 q 151 595 64 503 q 392 688 239 688 q 496 672 442 688 q 594 619 550 656 q 615 578 618 603 q 591 540 611 553 q 544 546 571 528 q 470 585 507 574 q 399 596 433 596 q 236 530 293 596 q 179 340 179 464 q 236 149 179 219 q 399 79 293 79 q 470 90 433 79 q 544 129 507 101 q 590 134 571 147 q 612 96 610 121 q 592 56 614 71 q 494 3 547 19 q 392 -12 442 -12 m 386 840 q 318 907 318 840 q 386 974 318 974 q 456 907 456 974 q 386 840 456 840 z "},"d":{"ha":810,"x_min":64,"x_max":704,"o":"m 363 -12 q 205 31 272 -12 q 101 152 138 74 q 64 338 64 231 q 101 524 64 446 q 205 645 138 603 q 363 688 272 688 q 502 653 442 688 q 592 557 563 618 l 592 932 q 649 989 592 989 q 704 932 704 989 l 704 49 q 649 -10 704 -10 q 593 49 593 -10 l 593 121 q 502 23 563 58 q 363 -12 442 -12 m 386 78 q 538 145 481 78 q 594 338 594 213 q 538 531 594 464 q 386 597 481 597 q 234 531 290 597 q 178 338 178 464 q 234 145 178 213 q 386 78 290 78 z "},"ð":{"ha":778,"x_min":64,"x_max":714,"o":"m 383 -12 q 215 28 288 -12 q 103 140 143 68 q 64 310 64 213 q 103 476 64 404 q 214 588 143 549 q 378 628 285 628 q 507 601 451 628 q 597 519 563 575 q 533 690 581 615 q 411 815 485 765 l 221 732 q 174 733 192 719 q 158 768 156 746 q 190 804 160 790 l 329 864 q 281 885 306 876 q 229 903 256 894 q 192 935 197 913 q 202 974 186 957 q 251 981 218 990 q 346 949 303 968 q 428 908 389 931 l 583 976 q 630 976 611 989 q 647 940 649 963 q 617 906 646 918 l 504 857 q 660 660 606 776 q 714 394 714 543 q 629 92 714 197 q 383 -12 544 -12 m 385 79 q 538 141 482 79 q 593 310 593 203 q 538 476 593 415 q 385 538 483 538 q 233 476 289 538 q 178 310 178 415 q 233 140 178 200 q 385 79 288 79 z "},"ď":{"ha":810,"x_min":64,"x_max":861,"o":"m 363 -12 q 205 31 272 -12 q 101 152 138 74 q 64 338 64 231 q 101 524 64 446 q 205 645 138 603 q 363 688 272 688 q 502 653 442 688 q 592 557 563 618 l 592 932 q 649 989 592 989 q 704 932 704 989 l 704 49 q 649 -10 704 -10 q 593 49 593 -10 l 593 121 q 502 23 563 58 q 363 -12 442 -12 m 386 78 q 538 145 481 78 q 594 338 594 213 q 538 531 594 464 q 386 597 481 597 q 234 531 290 597 q 178 338 178 464 q 234 145 178 213 q 386 78 290 78 m 797 708 q 768 739 768 708 l 768 943 q 814 989 768 989 q 854 940 861 989 l 829 738 q 797 708 824 708 z "},"đ":{"ha":810,"x_min":64,"x_max":839,"o":"m 363 -12 q 206 31 274 -12 q 101 152 139 74 q 64 338 64 231 q 101 524 64 446 q 206 645 139 603 q 363 688 272 688 q 502 653 442 688 q 593 557 563 618 l 593 769 l 365 769 q 318 811 318 769 q 365 853 318 853 l 593 853 l 593 938 q 608 975 593 961 q 649 989 622 989 q 690 975 675 989 q 706 938 706 961 l 706 853 l 792 853 q 839 811 839 853 q 792 769 839 769 l 706 769 l 706 49 q 650 -10 706 -10 q 593 49 593 -10 l 593 121 q 503 24 564 60 q 363 -12 443 -12 m 386 78 q 538 145 482 78 q 594 338 594 213 q 538 531 594 464 q 386 597 482 597 q 235 531 292 597 q 178 338 178 464 q 235 145 178 213 q 386 78 292 78 z "},"ḍ":{"ha":810,"x_min":64,"x_max":704,"o":"m 363 -12 q 205 31 272 -12 q 101 152 138 74 q 64 338 64 231 q 101 524 64 446 q 205 645 138 603 q 363 688 272 688 q 502 653 442 688 q 592 557 563 618 l 592 932 q 649 989 592 989 q 704 932 704 989 l 704 49 q 649 -10 704 -10 q 593 49 593 -10 l 593 121 q 502 23 563 58 q 363 -12 442 -12 m 386 78 q 538 145 481 78 q 594 338 594 213 q 538 531 594 464 q 386 597 481 597 q 234 531 290 597 q 178 338 178 464 q 234 145 178 213 q 386 78 290 78 m 408 -265 q 340 -199 340 -265 q 408 -133 340 -133 q 478 -199 478 -133 q 408 -265 478 -265 z "},"ɗ":{"ha":810,"x_min":64,"x_max":908,"o":"m 363 -12 q 205 31 272 -12 q 101 152 138 74 q 64 338 64 231 q 101 524 64 446 q 205 645 138 603 q 363 688 272 688 q 502 653 442 688 q 592 557 563 618 l 592 754 q 651 928 592 867 q 822 990 710 990 q 888 978 868 990 q 908 942 908 967 q 899 908 908 921 q 872 896 889 894 q 855 897 864 896 q 833 899 846 899 q 704 757 704 899 l 704 49 q 649 -10 704 -10 q 593 49 593 -10 l 593 121 q 502 23 563 58 q 363 -12 442 -12 m 386 79 q 538 146 481 79 q 594 338 594 213 q 538 531 594 464 q 386 597 481 597 q 234 531 290 597 q 178 338 178 464 q 234 146 178 213 q 386 79 290 79 z "},"ḏ":{"ha":810,"x_min":64,"x_max":704,"o":"m 363 -12 q 205 31 272 -12 q 101 152 138 74 q 64 338 64 231 q 101 524 64 446 q 205 645 138 603 q 363 688 272 688 q 502 653 442 688 q 592 557 563 618 l 592 932 q 649 989 592 989 q 704 932 704 989 l 704 49 q 649 -10 704 -10 q 593 49 593 -10 l 593 121 q 502 23 563 58 q 363 -12 442 -12 m 386 78 q 538 145 481 78 q 594 338 594 213 q 538 531 594 464 q 386 597 481 597 q 234 531 290 597 q 178 338 178 464 q 234 145 178 213 q 386 78 290 78 m 240 -217 q 200 -179 200 -217 q 240 -140 200 -140 l 576 -140 q 618 -179 618 -140 q 576 -217 618 -217 l 240 -217 z "},"ǆ":{"ha":1453,"x_min":64,"x_max":1422,"o":"m 363 -12 q 205 31 272 -12 q 101 152 138 74 q 64 338 64 231 q 101 524 64 446 q 205 645 138 603 q 363 688 272 688 q 502 653 442 688 q 592 557 563 618 l 592 932 q 649 989 592 989 q 704 932 704 989 l 704 49 q 649 -10 704 -10 q 593 49 593 -10 l 593 121 q 502 23 563 58 q 363 -12 442 -12 m 386 78 q 538 145 481 78 q 594 338 594 213 q 538 531 594 464 q 386 597 481 597 q 234 531 290 597 q 178 338 178 464 q 234 145 178 213 q 386 78 290 78 z "},"e":{"ha":739,"x_min":64,"x_max":682,"o":"m 410 -12 q 157 81 250 -12 q 64 336 64 175 q 106 520 64 440 q 220 644 147 600 q 389 688 293 688 q 604 599 526 688 q 682 357 682 511 q 633 314 682 314 l 174 314 q 240 138 179 199 q 410 78 301 78 q 503 90 456 78 q 594 132 550 101 q 648 140 626 153 q 670 102 669 128 q 642 57 671 76 q 533 6 596 24 q 410 -12 469 -12 m 392 604 q 240 544 296 604 q 175 388 185 485 l 585 388 q 531 547 581 490 q 392 604 482 604 z "},"é":{"ha":739,"x_min":64,"x_max":682,"o":"m 410 -12 q 157 81 250 -12 q 64 336 64 175 q 106 520 64 440 q 220 644 147 600 q 389 688 293 688 q 604 599 526 688 q 682 357 682 511 q 633 314 682 314 l 174 314 q 240 138 179 199 q 410 78 301 78 q 503 90 456 78 q 594 132 550 101 q 648 140 626 153 q 670 102 669 128 q 642 57 671 76 q 533 6 596 24 q 410 -12 469 -12 m 392 604 q 240 544 296 604 q 175 388 185 485 l 585 388 q 531 547 581 490 q 392 604 482 604 m 435 772 q 403 755 422 753 q 372 772 383 757 q 369 808 360 786 l 486 1035 q 519 1063 499 1058 q 556 1057 539 1067 q 581 1028 574 1047 q 574 989 588 1010 l 435 772 z "},"ĕ":{"ha":739,"x_min":64,"x_max":682,"o":"m 410 -12 q 157 81 250 -12 q 64 336 64 175 q 106 520 64 440 q 220 644 147 600 q 389 688 293 688 q 604 599 526 688 q 682 357 682 511 q 633 314 682 314 l 174 314 q 240 138 179 199 q 410 78 301 78 q 503 90 456 78 q 594 132 550 101 q 648 140 626 153 q 670 102 669 128 q 642 57 671 76 q 533 6 596 24 q 410 -12 469 -12 m 392 604 q 240 544 296 604 q 175 388 185 485 l 585 388 q 531 547 581 490 q 392 604 482 604 m 389 763 q 245 824 300 763 q 178 992 190 886 q 185 1024 175 1011 q 211 1036 194 1036 q 249 1000 244 1038 q 297 879 260 919 q 389 839 333 839 q 482 879 444 839 q 529 1000 519 919 q 567 1036 533 1038 q 593 1024 583 1036 q 600 992 603 1011 q 533 824 589 886 q 389 763 478 763 z "},"ě":{"ha":739,"x_min":64,"x_max":682,"o":"m 410 -12 q 157 81 250 -12 q 64 336 64 175 q 106 520 64 440 q 220 644 147 600 q 389 688 293 688 q 604 599 526 688 q 682 357 682 511 q 633 314 682 314 l 174 314 q 240 138 179 199 q 410 78 301 78 q 503 90 456 78 q 594 132 550 101 q 648 140 626 153 q 670 102 669 128 q 642 57 671 76 q 533 6 596 24 q 410 -12 469 -12 m 392 604 q 240 544 296 604 q 175 388 185 485 l 585 388 q 531 547 581 490 q 392 604 482 604 m 389 747 q 321 793 346 747 l 206 1003 q 206 1040 194 1025 q 235 1056 217 1054 q 265 1039 254 1058 l 389 840 l 513 1039 q 542 1056 524 1058 q 572 1040 561 1054 q 572 1003 583 1025 l 457 793 q 389 747 433 747 z "},"ḝ":{"ha":739,"x_min":64,"x_max":682,"o":"m 410 -12 q 157 81 250 -12 q 64 336 64 175 q 106 520 64 440 q 220 644 147 600 q 389 688 293 688 q 604 599 526 688 q 682 357 682 511 q 633 314 682 314 l 174 314 q 240 138 179 199 q 410 78 301 78 q 503 90 456 78 q 594 132 550 101 q 648 140 626 153 q 670 102 669 128 q 642 57 671 76 q 533 6 596 24 q 410 -12 469 -12 m 392 604 q 240 544 296 604 q 175 388 185 485 l 585 388 q 531 547 581 490 q 392 604 482 604 m 393 -267 q 341 -263 368 -267 q 292 -250 314 -260 q 269 -224 271 -242 q 278 -193 267 -206 q 313 -189 290 -181 q 390 -201 343 -201 q 449 -188 426 -201 q 471 -150 471 -175 q 418 -111 471 -111 q 397 -112 407 -111 q 372 -117 386 -114 q 339 -117 350 -124 q 333 -82 329 -108 l 350 28 l 421 28 l 406 -60 q 432 -58 419 -58 q 516 -83 483 -58 q 549 -153 549 -108 q 506 -235 549 -204 q 393 -267 463 -267 m 389 763 q 245 824 300 763 q 178 992 190 886 q 185 1024 175 1011 q 211 1036 194 1036 q 249 1000 244 1038 q 297 879 260 919 q 389 839 333 839 q 482 879 444 839 q 529 1000 519 919 q 567 1036 533 1038 q 593 1024 583 1036 q 600 992 603 1011 q 533 824 589 886 q 389 763 478 763 z "},"ê":{"ha":739,"x_min":64,"x_max":682,"o":"m 410 -12 q 157 81 250 -12 q 64 336 64 175 q 106 520 64 440 q 220 644 147 600 q 389 688 293 688 q 604 599 526 688 q 682 357 682 511 q 633 314 682 314 l 174 314 q 240 138 179 199 q 410 78 301 78 q 503 90 456 78 q 594 132 550 101 q 648 140 626 153 q 670 102 669 128 q 642 57 671 76 q 533 6 596 24 q 410 -12 469 -12 m 392 604 q 240 544 296 604 q 175 388 185 485 l 585 388 q 531 547 581 490 q 392 604 482 604 m 572 808 q 572 772 583 786 q 542 755 561 757 q 513 772 524 753 l 389 971 l 265 772 q 235 755 254 753 q 206 772 217 757 q 206 808 194 786 l 321 1019 q 389 1064 344 1064 q 457 1019 433 1064 l 572 808 z "},"ế":{"ha":739,"x_min":64,"x_max":721,"o":"m 410 -12 q 157 81 250 -12 q 64 336 64 175 q 106 520 64 440 q 220 644 147 600 q 389 688 293 688 q 604 599 526 688 q 682 357 682 511 q 633 314 682 314 l 174 314 q 240 138 179 199 q 410 78 301 78 q 503 90 456 78 q 594 132 550 101 q 648 140 626 153 q 670 102 669 128 q 642 57 671 76 q 533 6 596 24 q 410 -12 469 -12 m 392 604 q 240 544 296 604 q 175 388 185 485 l 585 388 q 531 547 581 490 q 392 604 482 604 m 588 903 q 559 890 575 888 q 535 906 543 892 q 538 940 526 921 l 633 1106 q 664 1131 646 1128 q 697 1126 682 1135 q 716 1099 711 1117 q 706 1064 721 1082 l 588 903 m 265 771 q 232 755 250 753 q 206 772 214 757 q 211 807 197 786 l 319 967 q 351 996 333 988 q 389 1004 368 1004 q 427 996 410 1004 q 458 967 444 988 l 567 807 q 572 772 581 786 q 547 755 564 757 q 513 771 529 753 l 389 918 l 265 771 z "},"ệ":{"ha":739,"x_min":64,"x_max":682,"o":"m 410 -12 q 157 81 250 -12 q 64 336 64 175 q 106 520 64 440 q 220 644 147 600 q 389 688 293 688 q 604 599 526 688 q 682 357 682 511 q 633 314 682 314 l 174 314 q 240 138 179 199 q 410 78 301 78 q 503 90 456 78 q 594 132 550 101 q 648 140 626 153 q 670 102 669 128 q 642 57 671 76 q 533 6 596 24 q 410 -12 469 -12 m 392 604 q 240 544 296 604 q 175 388 185 485 l 585 388 q 531 547 581 490 q 392 604 482 604 m 389 -265 q 321 -199 321 -265 q 389 -133 321 -133 q 458 -199 458 -133 q 389 -265 458 -265 m 572 808 q 572 772 583 786 q 542 755 561 757 q 513 772 524 753 l 389 971 l 265 772 q 235 755 254 753 q 206 772 217 757 q 206 808 194 786 l 321 1019 q 389 1064 344 1064 q 457 1019 433 1064 l 572 808 z "},"ề":{"ha":739,"x_min":64,"x_max":682,"o":"m 410 -12 q 157 81 250 -12 q 64 336 64 175 q 106 520 64 440 q 220 644 147 600 q 389 688 293 688 q 604 599 526 688 q 682 357 682 511 q 633 314 682 314 l 174 314 q 240 138 179 199 q 410 78 301 78 q 503 90 456 78 q 594 132 550 101 q 648 140 626 153 q 670 102 669 128 q 642 57 671 76 q 533 6 596 24 q 410 -12 469 -12 m 392 604 q 240 544 296 604 q 175 388 185 485 l 585 388 q 531 547 581 490 q 392 604 482 604 m 581 903 l 461 1064 q 452 1099 447 1082 q 472 1126 457 1117 q 504 1131 486 1135 q 535 1106 522 1128 l 631 940 q 633 906 642 921 q 608 890 625 892 q 581 903 592 888 m 265 771 q 232 755 250 753 q 206 772 214 757 q 211 807 197 786 l 319 967 q 351 996 333 988 q 389 1004 368 1004 q 427 996 410 1004 q 458 967 444 988 l 567 807 q 572 772 581 786 q 547 755 564 757 q 513 771 529 753 l 389 918 l 265 771 z "},"ể":{"ha":739,"x_min":64,"x_max":694,"o":"m 410 -12 q 157 81 250 -12 q 64 336 64 175 q 106 520 64 440 q 220 644 147 600 q 389 688 293 688 q 604 599 526 688 q 682 357 682 511 q 633 314 682 314 l 174 314 q 240 138 179 199 q 410 78 301 78 q 503 90 456 78 q 594 132 550 101 q 648 140 626 153 q 670 102 669 128 q 642 57 671 76 q 533 6 596 24 q 410 -12 469 -12 m 392 604 q 240 544 296 604 q 175 388 185 485 l 585 388 q 531 547 581 490 q 392 604 482 604 m 582 904 q 551 901 565 896 q 535 919 538 907 q 549 943 532 932 q 596 983 579 964 q 613 1025 613 1001 q 550 1064 613 1064 q 496 1057 525 1064 q 453 1072 461 1049 q 478 1111 444 1100 q 522 1121 499 1118 q 571 1124 546 1124 q 662 1103 629 1124 q 694 1042 694 1083 q 658 962 694 997 q 582 904 622 926 m 265 771 q 232 755 250 753 q 206 772 214 757 q 211 807 197 786 l 319 967 q 351 996 333 988 q 389 1004 368 1004 q 427 996 410 1004 q 458 967 444 988 l 567 807 q 572 772 581 786 q 547 755 564 757 q 513 771 529 753 l 389 918 l 265 771 z "},"ễ":{"ha":739,"x_min":64,"x_max":682,"o":"m 410 -12 q 157 81 250 -12 q 64 336 64 175 q 106 520 64 440 q 220 644 147 600 q 389 688 293 688 q 604 599 526 688 q 682 357 682 511 q 633 314 682 314 l 174 314 q 240 138 179 199 q 410 78 301 78 q 503 90 456 78 q 594 132 550 101 q 648 140 626 153 q 670 102 669 128 q 642 57 671 76 q 533 6 596 24 q 410 -12 469 -12 m 392 604 q 240 544 296 604 q 175 388 185 485 l 585 388 q 531 547 581 490 q 392 604 482 604 m 201 983 q 179 995 188 985 q 176 1025 171 1006 q 220 1102 188 1076 q 300 1128 253 1128 q 367 1110 338 1128 q 422 1073 396 1092 q 476 1054 449 1054 q 539 1100 526 1054 q 578 1129 549 1132 q 599 1118 592 1129 q 603 1088 607 1107 q 558 1011 590 1038 q 479 985 525 985 q 412 1003 442 985 q 356 1040 382 1022 q 301 1058 329 1058 q 239 1013 253 1058 q 201 983 231 981 m 258 765 q 226 755 242 751 q 206 772 211 758 q 214 801 200 786 l 315 924 q 350 951 332 943 q 389 958 368 958 q 428 951 410 958 q 463 924 446 943 l 564 801 q 572 772 578 786 q 551 755 567 758 q 519 765 536 751 l 389 883 l 258 765 z "},"ȅ":{"ha":739,"x_min":64,"x_max":682,"o":"m 410 -12 q 157 81 250 -12 q 64 336 64 175 q 106 520 64 440 q 220 644 147 600 q 389 688 293 688 q 604 599 526 688 q 682 357 682 511 q 633 314 682 314 l 174 314 q 240 138 179 199 q 410 78 301 78 q 503 90 456 78 q 594 132 550 101 q 648 140 626 153 q 670 102 669 128 q 642 57 671 76 q 533 6 596 24 q 410 -12 469 -12 m 392 604 q 240 544 296 604 q 175 388 185 485 l 585 388 q 531 547 581 490 q 392 604 482 604 m 443 775 l 350 1001 q 350 1041 340 1025 q 378 1062 360 1057 q 416 1058 397 1067 q 442 1022 435 1049 l 503 793 q 496 763 508 774 q 467 755 483 753 q 443 775 450 757 m 267 775 l 174 1001 q 172 1041 163 1025 q 201 1062 182 1057 q 239 1058 221 1067 q 264 1022 257 1049 l 326 793 q 319 763 332 774 q 290 755 307 753 q 267 775 274 757 z "},"ë":{"ha":739,"x_min":64,"x_max":682,"o":"m 410 -12 q 157 81 250 -12 q 64 336 64 175 q 106 520 64 440 q 220 644 147 600 q 389 688 293 688 q 604 599 526 688 q 682 357 682 511 q 633 314 682 314 l 174 314 q 240 138 179 199 q 410 78 301 78 q 503 90 456 78 q 594 132 550 101 q 648 140 626 153 q 670 102 669 128 q 642 57 671 76 q 533 6 596 24 q 410 -12 469 -12 m 392 604 q 240 544 296 604 q 175 388 185 485 l 585 388 q 531 547 581 490 q 392 604 482 604 m 511 842 q 444 906 444 842 q 511 971 444 971 q 575 906 575 971 q 511 842 575 842 m 268 842 q 203 906 203 842 q 268 971 203 971 q 333 906 333 971 q 268 842 333 842 z "},"ė":{"ha":739,"x_min":64,"x_max":682,"o":"m 410 -12 q 157 81 250 -12 q 64 336 64 175 q 106 520 64 440 q 220 644 147 600 q 389 688 293 688 q 604 599 526 688 q 682 357 682 511 q 633 314 682 314 l 174 314 q 240 138 179 199 q 410 78 301 78 q 503 90 456 78 q 594 132 550 101 q 648 140 626 153 q 670 102 669 128 q 642 57 671 76 q 533 6 596 24 q 410 -12 469 -12 m 392 604 q 240 544 296 604 q 175 388 185 485 l 585 388 q 531 547 581 490 q 392 604 482 604 m 389 840 q 321 907 321 840 q 389 974 321 974 q 458 907 458 974 q 389 840 458 840 z "},"ẹ":{"ha":739,"x_min":64,"x_max":682,"o":"m 410 -12 q 157 81 250 -12 q 64 336 64 175 q 106 520 64 440 q 220 644 147 600 q 389 688 293 688 q 604 599 526 688 q 682 357 682 511 q 633 314 682 314 l 174 314 q 240 138 179 199 q 410 78 301 78 q 503 90 456 78 q 594 132 550 101 q 648 140 626 153 q 670 102 669 128 q 642 57 671 76 q 533 6 596 24 q 410 -12 469 -12 m 392 604 q 240 544 296 604 q 175 388 185 485 l 585 388 q 531 547 581 490 q 392 604 482 604 m 389 -265 q 321 -199 321 -265 q 389 -133 321 -133 q 458 -199 458 -133 q 389 -265 458 -265 z "},"è":{"ha":739,"x_min":64,"x_max":682,"o":"m 410 -12 q 157 81 250 -12 q 64 336 64 175 q 106 520 64 440 q 220 644 147 600 q 389 688 293 688 q 604 599 526 688 q 682 357 682 511 q 633 314 682 314 l 174 314 q 240 138 179 199 q 410 78 301 78 q 503 90 456 78 q 594 132 550 101 q 648 140 626 153 q 670 102 669 128 q 642 57 671 76 q 533 6 596 24 q 410 -12 469 -12 m 392 604 q 240 544 296 604 q 175 388 185 485 l 585 388 q 531 547 581 490 q 392 604 482 604 m 344 772 l 204 989 q 197 1028 190 1010 q 222 1057 204 1047 q 260 1063 240 1067 q 292 1035 279 1058 l 408 808 q 408 772 419 786 q 376 756 396 757 q 344 772 357 754 z "},"ẻ":{"ha":739,"x_min":64,"x_max":682,"o":"m 410 -12 q 157 81 250 -12 q 64 336 64 175 q 106 520 64 440 q 220 644 147 600 q 389 688 293 688 q 604 599 526 688 q 682 357 682 511 q 633 314 682 314 l 174 314 q 240 138 179 199 q 410 78 301 78 q 503 90 456 78 q 594 132 550 101 q 648 140 626 153 q 670 102 669 128 q 642 57 671 76 q 533 6 596 24 q 410 -12 469 -12 m 392 604 q 240 544 296 604 q 175 388 185 485 l 585 388 q 531 547 581 490 q 392 604 482 604 m 389 756 q 351 788 351 756 q 364 844 351 822 q 394 883 376 867 q 424 913 411 899 q 438 947 438 928 q 374 986 438 986 q 344 984 360 986 q 313 976 328 982 q 267 990 276 964 q 290 1036 256 1021 q 339 1050 313 1046 q 394 1054 365 1054 q 494 1029 458 1054 q 529 960 529 1004 q 514 904 529 925 q 478 867 499 883 q 442 833 458 851 q 426 786 426 815 q 389 756 426 756 z "},"ȇ":{"ha":739,"x_min":64,"x_max":682,"o":"m 410 -12 q 157 81 250 -12 q 64 336 64 175 q 106 520 64 440 q 220 644 147 600 q 389 688 293 688 q 604 599 526 688 q 682 357 682 511 q 633 314 682 314 l 174 314 q 240 138 179 199 q 410 78 301 78 q 503 90 456 78 q 594 132 550 101 q 648 140 626 153 q 670 102 669 128 q 642 57 671 76 q 533 6 596 24 q 410 -12 469 -12 m 392 604 q 240 544 296 604 q 175 388 185 485 l 585 388 q 531 547 581 490 q 392 604 482 604 m 211 760 q 185 772 194 760 q 178 804 175 785 q 244 972 189 910 q 389 1033 300 1033 q 533 972 478 1033 q 600 804 589 910 q 593 772 603 785 q 567 760 583 760 q 529 796 533 758 q 482 917 519 876 q 389 957 444 957 q 296 917 333 957 q 249 796 258 876 q 211 760 244 758 z "},"ē":{"ha":739,"x_min":64,"x_max":682,"o":"m 410 -12 q 157 81 250 -12 q 64 336 64 175 q 106 520 64 440 q 220 644 147 600 q 389 688 293 688 q 604 599 526 688 q 682 357 682 511 q 633 314 682 314 l 174 314 q 240 138 179 199 q 410 78 301 78 q 503 90 456 78 q 594 132 550 101 q 648 140 626 153 q 670 102 669 128 q 642 57 671 76 q 533 6 596 24 q 410 -12 469 -12 m 392 604 q 240 544 296 604 q 175 388 185 485 l 585 388 q 531 547 581 490 q 392 604 482 604 m 221 868 q 181 906 181 868 q 221 944 181 944 l 557 944 q 599 906 599 944 q 557 868 599 868 l 221 868 z "},"ḗ":{"ha":739,"x_min":64,"x_max":682,"o":"m 410 -12 q 157 81 250 -12 q 64 336 64 175 q 106 520 64 440 q 220 644 147 600 q 389 688 293 688 q 604 599 526 688 q 682 357 682 511 q 633 314 682 314 l 174 314 q 240 138 179 199 q 410 78 301 78 q 503 90 456 78 q 594 132 550 101 q 648 140 626 153 q 670 102 669 128 q 642 57 671 76 q 533 6 596 24 q 410 -12 469 -12 m 392 604 q 240 544 296 604 q 175 388 185 485 l 585 388 q 531 547 581 490 q 392 604 482 604 m 425 918 q 394 904 413 901 q 367 922 376 907 q 371 956 358 936 l 464 1108 q 497 1135 478 1132 q 533 1129 517 1139 q 555 1102 550 1119 q 543 1064 560 1085 l 425 918 m 221 793 q 178 832 178 793 q 221 869 178 869 l 557 869 q 600 832 600 869 q 557 793 600 793 l 221 793 z "},"ḕ":{"ha":739,"x_min":64,"x_max":682,"o":"m 410 -12 q 157 81 250 -12 q 64 336 64 175 q 106 520 64 440 q 220 644 147 600 q 389 688 293 688 q 604 599 526 688 q 682 357 682 511 q 633 314 682 314 l 174 314 q 240 138 179 199 q 410 78 301 78 q 503 90 456 78 q 594 132 550 101 q 648 140 626 153 q 670 102 669 128 q 642 57 671 76 q 533 6 596 24 q 410 -12 469 -12 m 392 604 q 240 544 296 604 q 175 388 185 485 l 585 388 q 531 547 581 490 q 392 604 482 604 m 353 918 l 235 1064 q 223 1102 218 1085 q 244 1129 228 1119 q 281 1135 261 1139 q 314 1108 300 1132 l 407 956 q 410 922 419 936 q 383 904 401 907 q 353 918 365 901 m 221 793 q 178 832 178 793 q 221 869 178 869 l 557 869 q 600 832 600 869 q 557 793 600 793 l 221 793 z "},"ę":{"ha":739,"x_min":64,"x_max":682,"o":"m 410 -12 q 157 81 250 -12 q 64 336 64 175 q 106 520 64 440 q 220 644 147 600 q 389 688 293 688 q 604 599 526 688 q 682 357 682 511 q 633 314 682 314 l 174 314 q 240 138 179 199 q 410 78 301 78 q 503 90 456 78 q 594 132 550 101 q 648 140 626 153 q 670 102 669 128 q 642 57 671 76 q 533 6 596 24 q 410 -12 469 -12 m 392 604 q 240 544 296 604 q 175 388 185 485 l 585 388 q 531 547 581 490 q 392 604 482 604 m 468 -267 q 362 -231 401 -267 q 322 -132 322 -194 q 358 -28 322 -76 q 454 50 393 21 l 494 0 q 432 -45 461 -14 q 403 -119 403 -76 q 426 -178 403 -160 q 483 -197 449 -197 q 532 -189 506 -197 q 567 -196 557 -182 q 574 -228 578 -210 q 550 -254 569 -247 q 508 -265 529 -262 q 468 -267 488 -267 z "},"ẽ":{"ha":739,"x_min":64,"x_max":682,"o":"m 410 -12 q 157 81 250 -12 q 64 336 64 175 q 106 520 64 440 q 220 644 147 600 q 389 688 293 688 q 604 599 526 688 q 682 357 682 511 q 633 314 682 314 l 174 314 q 240 138 179 199 q 410 78 301 78 q 503 90 456 78 q 594 132 550 101 q 648 140 626 153 q 670 102 669 128 q 642 57 671 76 q 533 6 596 24 q 410 -12 469 -12 m 392 604 q 240 544 296 604 q 175 388 185 485 l 585 388 q 531 547 581 490 q 392 604 482 604 m 171 815 q 148 825 157 815 q 143 854 139 835 q 190 964 154 919 q 288 1008 225 1008 q 347 992 321 1008 q 397 956 374 976 q 442 919 419 935 q 489 903 464 903 q 542 926 521 903 q 571 992 563 950 q 607 1017 576 1018 q 630 1007 621 1017 q 635 978 639 997 q 588 869 624 914 q 490 824 553 824 q 431 840 457 824 q 381 876 404 856 q 336 913 358 897 q 289 929 314 929 q 236 906 257 929 q 207 840 215 882 q 171 815 201 814 z "},"ə":{"ha":739,"x_min":58,"x_max":675,"o":"m 357 -12 q 137 75 215 -12 q 58 321 58 163 q 106 363 58 363 l 567 363 q 499 537 560 476 q 329 597 438 597 q 235 584 283 597 q 143 540 188 571 q 91 534 111 521 q 70 574 71 547 q 97 618 69 600 q 207 669 144 651 q 329 688 269 688 q 583 594 490 688 q 675 340 675 501 q 635 154 675 233 q 523 31 594 75 q 357 -12 451 -12 m 356 71 q 501 128 446 71 q 565 288 556 186 l 160 288 q 213 127 164 183 q 356 71 261 71 z "},"ʒ":{"ha":688,"x_min":18,"x_max":643,"o":"m 317 -262 q 46 -194 151 -262 q 22 -162 26 -181 q 26 -128 18 -144 q 50 -106 33 -112 q 88 -114 67 -100 q 307 -172 178 -172 q 474 -121 418 -172 q 531 28 531 -69 q 475 163 531 115 q 318 210 419 210 l 203 210 q 169 232 174 210 q 188 278 165 254 l 467 585 l 89 585 q 39 631 39 585 q 89 675 39 675 l 560 675 q 606 644 599 675 q 586 585 614 613 l 321 293 l 347 293 q 565 224 488 293 q 643 33 643 156 q 556 -183 643 -104 q 317 -262 469 -262 z "},"ǯ":{"ha":688,"x_min":18,"x_max":643,"o":"m 317 -262 q 46 -194 151 -262 q 22 -162 26 -181 q 26 -128 18 -144 q 50 -106 33 -112 q 88 -114 67 -100 q 307 -172 178 -172 q 474 -121 418 -172 q 531 28 531 -69 q 475 163 531 115 q 318 210 419 210 l 203 210 q 169 232 174 210 q 188 278 165 254 l 467 585 l 89 585 q 39 631 39 585 q 89 675 39 675 l 560 675 q 606 644 599 675 q 586 585 614 613 l 321 293 l 347 293 q 565 224 488 293 q 643 33 643 156 q 556 -183 643 -104 q 317 -262 469 -262 m 324 747 q 256 793 281 747 l 140 1003 q 140 1040 129 1025 q 170 1056 151 1054 q 200 1039 189 1058 l 324 840 l 447 1039 q 477 1056 458 1058 q 507 1040 496 1054 q 507 1003 518 1025 l 392 793 q 324 747 368 747 z "},"f":{"ha":463,"x_min":4,"x_max":485,"o":"m 197 -10 q 142 49 142 -10 l 142 588 l 53 588 q 4 632 4 588 q 53 675 4 675 l 142 675 l 142 699 q 396 981 142 958 l 436 985 q 472 974 461 986 q 484 944 483 961 q 475 913 485 926 q 447 897 465 899 l 415 894 q 292 843 331 888 q 254 713 254 799 l 254 675 l 404 675 q 453 632 453 675 q 404 588 453 588 l 254 588 l 254 49 q 197 -10 254 -10 z "},"g":{"ha":814,"x_min":64,"x_max":708,"o":"m 404 -262 q 260 -245 331 -262 q 133 -190 190 -228 q 109 -160 113 -178 q 114 -127 106 -143 q 138 -104 122 -111 q 172 -107 154 -97 q 289 -158 233 -144 q 399 -172 344 -172 q 599 33 599 -172 l 599 153 q 508 52 569 89 q 367 15 446 15 q 206 58 274 15 q 101 177 138 101 q 64 353 64 253 q 101 528 64 453 q 206 646 138 604 q 367 688 274 688 q 507 653 446 688 q 597 556 568 618 l 597 628 q 653 685 597 685 q 708 628 708 685 l 708 49 q 631 -185 708 -107 q 404 -262 554 -262 m 388 107 q 542 174 485 107 q 599 353 599 240 q 542 531 599 465 q 388 597 485 597 q 235 531 292 597 q 178 353 178 465 q 235 174 178 240 q 388 107 292 107 z "},"ğ":{"ha":814,"x_min":64,"x_max":708,"o":"m 404 -262 q 260 -245 331 -262 q 133 -190 190 -228 q 109 -160 113 -178 q 114 -127 106 -143 q 138 -104 122 -111 q 172 -107 154 -97 q 289 -158 233 -144 q 399 -172 344 -172 q 599 33 599 -172 l 599 153 q 508 52 569 89 q 367 15 446 15 q 206 58 274 15 q 101 177 138 101 q 64 353 64 253 q 101 528 64 453 q 206 646 138 604 q 367 688 274 688 q 507 653 446 688 q 597 556 568 618 l 597 628 q 653 685 597 685 q 708 628 708 685 l 708 49 q 631 -185 708 -107 q 404 -262 554 -262 m 388 107 q 542 174 485 107 q 599 353 599 240 q 542 531 599 465 q 388 597 485 597 q 235 531 292 597 q 178 353 178 465 q 235 174 178 240 q 388 107 292 107 m 410 763 q 266 824 321 763 q 199 992 211 886 q 206 1024 196 1011 q 232 1036 215 1036 q 269 1000 265 1038 q 317 879 281 919 q 410 839 354 839 q 503 879 465 839 q 550 1000 540 919 q 588 1036 554 1038 q 614 1024 604 1036 q 621 992 624 1011 q 554 824 610 886 q 410 763 499 763 z "},"ǧ":{"ha":814,"x_min":64,"x_max":708,"o":"m 404 -262 q 260 -245 331 -262 q 133 -190 190 -228 q 109 -160 113 -178 q 114 -127 106 -143 q 138 -104 122 -111 q 172 -107 154 -97 q 289 -158 233 -144 q 399 -172 344 -172 q 599 33 599 -172 l 599 153 q 508 52 569 89 q 367 15 446 15 q 206 58 274 15 q 101 177 138 101 q 64 353 64 253 q 101 528 64 453 q 206 646 138 604 q 367 688 274 688 q 507 653 446 688 q 597 556 568 618 l 597 628 q 653 685 597 685 q 708 628 708 685 l 708 49 q 631 -185 708 -107 q 404 -262 554 -262 m 388 107 q 542 174 485 107 q 599 353 599 240 q 542 531 599 465 q 388 597 485 597 q 235 531 292 597 q 178 353 178 465 q 235 174 178 240 q 388 107 292 107 m 410 747 q 342 793 367 747 l 226 1003 q 226 1040 215 1025 q 256 1056 238 1054 q 286 1039 275 1058 l 410 840 l 533 1039 q 563 1056 544 1058 q 593 1040 582 1054 q 593 1003 604 1025 l 478 793 q 410 747 454 747 z "}}}
